<?xml version="1.0" encoding="utf-8"?>
<!-- Generator: Adobe Illustrator 19.2.1, SVG Export Plug-In . SVG Version: 6.00 Build 0)  -->
<svg version="1.1" xmlns="http://www.w3.org/2000/svg" xmlns:xlink="http://www.w3.org/1999/xlink" x="0px" y="0px"
	 viewBox="0 0 209 87.2" style="enable-background:new 0 0 209 87.2;" xml:space="preserve">
<style type="text/css">
	.st0{fill:#6CBE45;}
	.st1{fill:#726658;}
	.st2{fill:#9B8579;}
	.st3{fill:#FFFFFF;}
	.st4{fill:#ED1C24;}
	.st5{opacity:0.26;}
	.st6{fill:#3C2415;}
</style>
<g id="_x31_">
	<g>
		<path class="st0" d="M90.8-399.3c0,0,37.8-61.9,88.4-29.7C179.3-429,159.2-363.1,90.8-399.3z"/>
	</g>
	<g>
		<path class="st1" d="M281.8-312.5c0,0,55.5,39.9,94.6,36.7l37.2-33.5c0,0-60.3-1.3-88.2-19C297.6-346,281.8-312.5,281.8-312.5z"/>
	</g>
	<g>
		<rect y="32.7" class="st2" width="209" height="21.4"/>
	</g>
	<g>
		<path class="st1" d="M716-189.7H516.3c-4,0-7.3-3.3-7.3-7.3v-199.7c0-4,3.3-7.3,7.3-7.3H716c4,0,7.3,3.3,7.3,7.3V-197
			C723.3-193,720-189.7,716-189.7z"/>
	</g>
	<g>
		<path class="st3" d="M703.1-202.5h-174c-4,0-7.3-3.3-7.3-7.3v-174c0-4,3.3-7.3,7.3-7.3h174c4,0,7.3,3.3,7.3,7.3v174
			C710.5-205.8,707.2-202.5,703.1-202.5z"/>
	</g>
	<g>
		<path class="st1" d="M925.6,73.4c0,0-69.7-24.9-68.6-106.4c1.1-81.5,85.2-60.6,87.4-4.8c2.1,55.7-73.4,117.4-73.4,117.4l-4.3-10.2
			c0,0,63.3-44.4,65.4-102.9c1.6-46.1-66.5-59-64.9,3.8c1.9,74.3,67,97.5,67,97.5L925.6,73.4z"/>
	</g>
	<g>
		<path class="st2" d="M894.8-397.4c-30.1,0-54.5,32.9-54.5,73.6c0,40.6,24.4,73.6,54.5,73.6s54.5-32.9,54.5-73.6
			C949.3-364.5,924.9-397.4,894.8-397.4z M894.8-266.8c-23.4,0-42.3-25.5-42.3-57.1c0-31.5,18.9-57.1,42.3-57.1s42.3,25.5,42.3,57.1
			C937.1-292.3,918.1-266.8,894.8-266.8z"/>
	</g>
	<g>
		<path class="st1" d="M85.2-358.3c0.8-2.4,10.5-39.4-12.9-65.1l15.5-8c0,0,26.3,30.5,11,73.2H85.2z"/>
	</g>
	<g>
		<path class="st4" d="M95.7-367.9c-31.2,3.5-65.9-18.5-82,36.2c-14.1,48.1,46.6,133.5,82,98.1c0,0,30.5,30.5,60.3-18.5
			S194.6-379.2,95.7-367.9z"/>
	</g>
	<g>
		<g>
			<path class="st4" d="M383.1,44l-18.5,39.1l-22.5-63.5L330.8,41h-52.3c18.1,42.1,78.8,75.6,78.8,75.6s54.4-25.8,74.1-72.6H383.1z"
				/>
		</g>
		<g>
			<path class="st4" d="M322.8,30l20.1-34.6l22.5,56.3L375,34h60c1.2-4.2,2.2-8.4,2.8-12.9c8-61.1-53.9-71.6-83.6-32.2
				c0,0-39.4-56.3-74,4.8c-6.9,12.2-8,24.4-5.2,36.2H322.8z"/>
		</g>
	</g>
	<g>
		<circle class="st1" cx="894.8" cy="-278.4" r="66.7"/>
	</g>
	<g>
		<path class="st3" d="M853.9-304.9h10.8v21.3h0.2c1.1-1.9,2.2-3.6,3.3-5.3l10.9-16h13.3l-15.9,20.5l16.8,27.6h-12.7l-11.8-20.8
			l-4.1,5.1v15.7h-10.8V-304.9z"/>
		<path class="st3" d="M935.5-259c-3.4,1.1-9.7,2.7-16.1,2.7c-8.8,0-15.1-2.2-19.6-6.5c-4.4-4.1-6.9-10.4-6.8-17.5
			c0.1-16,11.7-25.1,27.5-25.1c6.2,0,11,1.2,13.4,2.4l-2.3,8.7c-2.6-1.1-5.9-2.1-11.2-2.1c-9.1,0-15.9,5.1-15.9,15.6
			c0,9.9,6.2,15.8,15.1,15.8c2.5,0,4.5-0.3,5.4-0.7v-10.1h-7.4v-8.5h17.9V-259z"/>
	</g>
	<g>
		<path class="st4" d="M870.9,59.2c0,0,9.6,12.3,12.3,16.6c2.7,4.3-12.9,7-12.3,8c0.5,1.1-37,41.3-52.5,28.9
			c-15.5-12.3,44.5-44.5,44.5-44.5S862.9,61.9,870.9,59.2z"/>
	</g>
	<g>
		<path class="st4" d="M933,59.2c0,0-9.6,12.3-12.3,16.6c-2.7,4.3,12.9,7,12.3,8c-0.5,1.1,37,41.3,52.5,28.9
			c15.5-12.3-44.5-44.5-44.5-44.5S941,61.9,933,59.2z"/>
	</g>
	<g>
		<path class="st1" d="M863.7-32.7c0,0,5.7,39,37,39c31.3,0,36.2-39,36.2-39l3.9,19.5c0,0-7.8,35.2-35.2,35.2
			C878.2,22,857-15,857-15L863.7-32.7z"/>
	</g>
	<g>
		<path class="st2" d="M685.9,115.2H548.2c-3.9,0-7.1-3.2-7.1-7.1V-56.1c0-3.9,3.2-7.1,7.1-7.1h137.7c3.9,0,7.1,3.2,7.1,7.1v164.2
			C693.1,112,689.9,115.2,685.9,115.2z"/>
	</g>
	<g>
		<rect x="558" y="-50.4" class="st3" width="118.2" height="152.8"/>
	</g>
	<g>
		<rect x="566" y="-14.7" class="st1" width="80.4" height="5.4"/>
	</g>
	<g>
		<rect x="566" y="17.4" class="st1" width="80.4" height="5.4"/>
	</g>
	<g>
		<rect x="566" y="49.6" class="st1" width="80.4" height="5.4"/>
	</g>
	<g>
		<rect x="566" y="81.7" class="st1" width="80.4" height="5.4"/>
	</g>
	<g>
		<path class="st1" d="M652.1-20.9v17.7h17.7v-17.7H652.1z M666.8-6.2H655V-18h11.8V-6.2z"/>
	</g>
	<g>
		<path class="st1" d="M652.1,11.3v17.7h17.7V11.3H652.1z M666.8,26H655V14.2h11.8V26z"/>
	</g>
	<g>
		<path class="st1" d="M652.1,43.4v17.7h17.7V43.4H652.1z M666.8,58.2H655V46.4h11.8V58.2z"/>
	</g>
	<g>
		<path class="st1" d="M652.1,75.6v17.7h17.7V75.6H652.1z M666.8,90.3H655V78.5h11.8V90.3z"/>
	</g>
	<g>
		<polygon class="st4" points="655.6,-15.6 661.2,-7.4 672.9,-21.5 661.8,-11.9 		"/>
	</g>
	<g>
		<polygon class="st4" points="655.6,17.1 661.2,25.4 672.9,11.3 661.8,20.9 		"/>
	</g>
	<g>
		<path class="st1" d="M652.4-43.1h-70.7c-1.8,0-3.2-1.4-3.2-3.2v-19.4c0-1.8,1.4-3.2,3.2-3.2h70.7c1.8,0,3.2,1.4,3.2,3.2v19.4
			C655.6-44.6,654.2-43.1,652.4-43.1z"/>
	</g>
	<g>
		<path class="st4" d="M616.1-373.5c-34,0-61.6,27.6-61.6,61.6h47.2c0-8,6.5-14.5,14.5-14.5c8,0,14.5,6.5,14.5,14.5h47.2
			C677.8-345.9,650.2-373.5,616.1-373.5z"/>
	</g>
	<g>
		<polygon class="st3" points="633,-321.5 660.8,-344.8 629,-326.3 		"/>
	</g>
	<g>
		<path class="st1" d="M619.2-195.3h-6.1c-0.8,0-1.4-0.6-1.4-1.4v-80.1c0-0.8,0.6-1.4,1.4-1.4h6.1c0.8,0,1.4,0.6,1.4,1.4v80.1
			C620.6-195.9,619.9-195.3,619.2-195.3z"/>
	</g>
	<g>
		<path class="st1" d="M61.2,86.8H35.8c-3.2,0-5.7-2.6-5.7-5.8V5.8C30,2.6,32.6,0,35.8,0h25.5C64.4,0,67,2.6,67,5.8v75.3
			C67,84.2,64.4,86.8,61.2,86.8z"/>
	</g>
	<g>
		<path class="st1" d="M22.3,67.5h-12c-1.5,0-2.7-1.2-2.7-2.7V22c0-1.5,1.2-2.7,2.7-2.7h12c1.5,0,2.7,1.2,2.7,2.7v42.8
			C25.1,66.3,23.8,67.5,22.3,67.5z"/>
	</g>
	<g>
		<path class="st1" d="M147.9,86.8h25.5c3.2,0,5.8-2.6,5.8-5.8V5.8c0-3.2-2.6-5.8-5.8-5.8h-25.5c-3.2,0-5.7,2.6-5.7,5.8v75.3
			C142.2,84.2,144.7,86.8,147.9,86.8z"/>
	</g>
	<g>
		<path class="st1" d="M186.8,67.5h12c1.5,0,2.7-1.2,2.7-2.7V22c0-1.5-1.2-2.7-2.7-2.7h-12c-1.5,0-2.7,1.2-2.7,2.7v42.8
			C184.1,66.3,185.3,67.5,186.8,67.5z"/>
	</g>
	<g>
		<path class="st2" d="M413.6-405.7l25.7,26.5c0,0-59.5,58.7-157.6,66.7v-37.8C281.8-350.2,342.9-347.8,413.6-405.7z"/>
	</g>
	<g>
		<path class="st3" d="M295.9-318.1c-0.9,0-1.6-0.7-1.6-1.5l-0.4-9.2c0-0.9,0.7-1.6,1.5-1.7c0.9,0,1.6,0.7,1.7,1.5l0.4,9.2
			C297.5-318.9,296.8-318.1,295.9-318.1C295.9-318.1,295.9-318.1,295.9-318.1z"/>
	</g>
	<g>
		<path class="st3" d="M320-324.1c-0.7,0-1.4-0.5-1.5-1.2l-2.4-8.8c-0.2-0.9,0.3-1.7,1.1-2c0.8-0.2,1.7,0.3,2,1.1l2.4,8.8
			c0.2,0.9-0.3,1.7-1.1,2C320.3-324.1,320.1-324.1,320-324.1z"/>
	</g>
	<g>
		<path class="st3" d="M346.5-333.4c-0.6,0-1.2-0.3-1.5-0.9l-4-8.4c-0.4-0.8,0-1.8,0.8-2.1c0.8-0.4,1.8,0,2.1,0.8l4,8.4
			c0.4,0.8,0,1.8-0.8,2.1C347-333.4,346.7-333.4,346.5-333.4z"/>
	</g>
	<g>
		<path class="st3" d="M369.8-342.2c-0.6,0-1.1-0.3-1.4-0.8l-4.4-8c-0.4-0.8-0.1-1.8,0.6-2.2c0.8-0.4,1.8-0.1,2.2,0.6l4.4,8
			c0.4,0.8,0.1,1.8-0.6,2.2C370.3-342.3,370.1-342.2,369.8-342.2z"/>
	</g>
	<g>
		<path class="st3" d="M390.3-353.1c-0.5,0-1-0.2-1.3-0.6l-5.2-6.8c-0.5-0.7-0.4-1.7,0.3-2.3c0.7-0.5,1.7-0.4,2.3,0.3l5.2,6.8
			c0.5,0.7,0.4,1.7-0.3,2.3C391-353.2,390.7-353.1,390.3-353.1z"/>
	</g>
	<g>
		<path class="st3" d="M410.4-365.1c-0.4,0-0.8-0.1-1.1-0.4l-6.4-6c-0.6-0.6-0.7-1.6-0.1-2.3c0.6-0.7,1.6-0.7,2.3-0.1l6.4,6
			c0.6,0.6,0.7,1.6,0.1,2.3C411.3-365.3,410.8-365.1,410.4-365.1z"/>
	</g>
	<g>
		<path class="st3" d="M427.7-376.4c-0.4,0-0.8-0.1-1.1-0.4l-9.2-8c-0.7-0.6-0.7-1.6-0.2-2.3c0.6-0.7,1.6-0.7,2.3-0.2l9.2,8
			c0.7,0.6,0.7,1.6,0.2,2.3C428.6-376.6,428.2-376.4,427.7-376.4z"/>
	</g>
	<g>
		<path class="st2" d="M413.6-309.2l25.7,26.5c0,0-59.5,58.7-157.6,66.7v-37.8C281.8-253.8,342.9-251.4,413.6-309.2z"/>
	</g>
	<g>
		<path class="st3" d="M295.9-221.6c-0.9,0-1.6-0.7-1.6-1.5l-0.4-9.2c0-0.9,0.7-1.6,1.5-1.7c0.9,0,1.6,0.7,1.7,1.5l0.4,9.2
			C297.5-222.4,296.8-221.7,295.9-221.6C295.9-221.6,295.9-221.6,295.9-221.6z"/>
	</g>
	<g>
		<path class="st3" d="M320-227.6c-0.7,0-1.4-0.5-1.5-1.2l-2.4-8.8c-0.2-0.9,0.3-1.7,1.1-2c0.8-0.2,1.7,0.3,2,1.1l2.4,8.8
			c0.2,0.9-0.3,1.7-1.1,2C320.3-227.7,320.1-227.6,320-227.6z"/>
	</g>
	<g>
		<path class="st3" d="M346.5-236.9c-0.6,0-1.2-0.3-1.5-0.9l-4-8.4c-0.4-0.8,0-1.8,0.8-2.1c0.8-0.4,1.8,0,2.1,0.8l4,8.4
			c0.4,0.8,0,1.8-0.8,2.1C347-236.9,346.7-236.9,346.5-236.9z"/>
	</g>
	<g>
		<path class="st3" d="M369.8-245.7c-0.6,0-1.1-0.3-1.4-0.8l-4.4-8c-0.4-0.8-0.1-1.8,0.6-2.2c0.8-0.4,1.8-0.1,2.2,0.6l4.4,8
			c0.4,0.8,0.1,1.8-0.6,2.2C370.3-245.8,370.1-245.7,369.8-245.7z"/>
	</g>
	<g>
		<path class="st3" d="M390.3-256.6c-0.5,0-1-0.2-1.3-0.6l-5.2-6.8c-0.5-0.7-0.4-1.7,0.3-2.3c0.7-0.5,1.7-0.4,2.3,0.3l5.2,6.8
			c0.5,0.7,0.4,1.7-0.3,2.3C391-256.7,390.7-256.6,390.3-256.6z"/>
	</g>
	<g>
		<path class="st3" d="M410.4-268.6c-0.4,0-0.8-0.1-1.1-0.4l-6.4-6c-0.6-0.6-0.7-1.6-0.1-2.3c0.6-0.6,1.6-0.7,2.3-0.1l6.4,6
			c0.6,0.6,0.7,1.6,0.1,2.3C411.3-268.8,410.8-268.6,410.4-268.6z"/>
	</g>
	<g>
		<path class="st3" d="M427.7-279.9c-0.4,0-0.8-0.1-1.1-0.4l-9.2-8c-0.7-0.6-0.7-1.6-0.2-2.3c0.6-0.7,1.6-0.7,2.3-0.2l9.2,8
			c0.7,0.6,0.7,1.6,0.2,2.3C428.6-280.1,428.2-279.9,427.7-279.9z"/>
	</g>
</g>
<g id="Designed_by_Vecteezy">
	<g class="st5">
		<g>
			<g>
				<path class="st6" d="M501.5,202c0.5,0,1,0.5,1,0.5l-8.9,19c-1,0-3.3,0.1-3.9,0.1c-0.5,0-1-0.5-1-0.5l-3-19
					c1.8,0,4.2-0.1,4.8-0.1c0.5,0,1,0.5,1,0.5l0.9,9.3c0.1,0.8,0.1,1.9,0.1,3.1c0.3-1.3,0.6-2.5,1-3.3l3.7-9.4
					C498.9,202.2,500.9,202,501.5,202L501.5,202z"/>
			</g>
			<g>
				<path class="st6" d="M510.7,211.4c0,2.1-1.2,3.4-4,4l-3,0.6c0.2,1.3,1.1,1.9,2.4,1.9c1.7,0,2.8-1.3,2.8-1.3s0.8,0.5,0.8,1.4
					c0,1.7-2.6,3.6-5.7,3.6c-3.1,0-5.2-2-5.2-5.3c0-3.8,2.7-9.1,7.6-9.1C509.1,207.4,510.7,209,510.7,211.4L510.7,211.4z
					 M505.6,213.4c0.6-0.2,0.8-0.7,0.8-1.3c0-0.6-0.2-1.4-0.9-1.4c-1.2,0-1.7,1.9-1.9,3.4L505.6,213.4z"/>
			</g>
			<g>
				<path class="st6" d="M518.9,207.4c2.4,0,4.3,1.3,4.3,3c0,2.1-2.6,2.9-2.6,2.9s-0.7-2.3-2.5-2.3c-1.2,0-1.8,1.2-1.8,3.7
					c0,2.3,0.6,3.3,2.1,3.3c1.5,0,2.5-1,2.5-1s0.9,0.5,0.9,1.4c0,1.7-2.5,3.4-5.5,3.4c-3.2,0-5.1-2-5.1-5.3
					C511.1,212.6,513.9,207.4,518.9,207.4L518.9,207.4z"/>
			</g>
			<g>
				<path class="st6" d="M530.6,204.3c0.6,0,1,0.5,1,0.5l-0.5,2.9h3.1l-0.7,2.2c-0.2,0.7-0.6,1.1-1.3,1.1h-1.6l-0.9,5.7
					c-0.1,0.9,0.1,1.3,0.7,1.3c0.6,0,1.1-0.3,1.1-0.3s0.9,0.5,0.9,1.4c0,1.4-2,2.8-4.5,2.8c-2.6,0-3.7-1.6-3.3-4.5l1-6.3H524
					l0.7-2.3c0.2-0.6,0.7-1,1.3-1h0.8l1-2.7C529,204.7,530.1,204.3,530.6,204.3L530.6,204.3z"/>
			</g>
			<g>
				<path class="st6" d="M545.5,211.4c0,2.1-1.2,3.4-4,4l-3,0.6c0.2,1.3,1.1,1.9,2.4,1.9c1.7,0,2.8-1.3,2.8-1.3s0.9,0.5,0.9,1.4
					c0,1.7-2.6,3.6-5.7,3.6c-3.1,0-5.2-2-5.2-5.3c0-3.8,2.7-9.1,7.6-9.1C543.9,207.4,545.5,209,545.5,211.4L545.5,211.4z
					 M540.4,213.4c0.6-0.2,0.8-0.7,0.8-1.3c0-0.6-0.2-1.4-0.9-1.4c-1.2,0-1.7,1.9-1.9,3.4L540.4,213.4z"/>
			</g>
			<g>
				<path class="st6" d="M557.9,211.4c0,2.1-1.2,3.4-4,4l-3,0.6c0.2,1.3,1.1,1.9,2.4,1.9c1.7,0,2.8-1.3,2.8-1.3s0.9,0.5,0.9,1.4
					c0,1.7-2.6,3.6-5.7,3.6c-3.1,0-5.2-2-5.2-5.3c0-3.8,2.7-9.1,7.6-9.1C556.2,207.4,557.9,209,557.9,211.4L557.9,211.4z
					 M552.8,213.4c0.6-0.2,0.8-0.7,0.8-1.3c0-0.6-0.2-1.4-0.9-1.4c-1.2,0-1.7,1.9-1.9,3.4L552.8,213.4z"/>
			</g>
			<g>
				<path class="st6" d="M568,216.6c0,0,1,1,1,2.5c0,2.1-1.8,2.7-3.3,2.7c-2,0-3.4-0.9-4.9-1.4c-0.4,0.5-0.8,1-1.2,1.4
					c0,0-2.2-0.1-2.2-1.6c0-1.8,3.1-5,6.4-8.5c-0.4-0.1-0.7-0.1-1.1-0.1c-1.9,0-2.6,0.9-2.6,0.9s-1-1.1-0.9-2.5c0.1-2,2-2.5,3.5-2.5
					c1.6,0,2.7,0.6,3.9,1.1l0.9-1.1c0,0,2.2,0.1,2.2,1.6c0,1.8-3,4.9-6.2,8.3c0.7,0.2,1.3,0.3,1.9,0.3
					C567.2,217.6,568,216.6,568,216.6L568,216.6z"/>
			</g>
			<g>
				<path class="st6" d="M582.3,220.6c-0.8,4.8-4.1,7.3-8.3,7.3c-2.7,0-4.7-1.4-4.7-3c0-1.1,0.9-1.6,0.9-1.6s0.9,0.8,2.7,0.8
					c1.7,0,4-0.7,4.4-3.3l0.3-2c-1.1,1.6-2.6,3-4.5,3c-2.1,0-3.1-1.7-2.5-5.3l0.6-3.8c0.4-2.3,0.5-4.3,0.5-4.3c1.5-0.3,3.5-1,4.2-1
					c0.5,0,1,0.5,1,0.5l-0.8,4.8l-0.7,4.4c-0.1,0.4,0,0.6,0.4,0.6c1.8,0,2.8-5.1,2.8-5.1c0.4-2.3,0.5-4.3,0.5-4.3
					c1.5-0.3,3.5-1,4.2-1c0.5,0,1,0.5,1,0.5l-0.8,4.8L582.3,220.6z"/>
			</g>
		</g>
		<g>
			<path class="st6" d="M377.6,208.2h4.8c1.1,0,1.9,0.1,2.5,0.2c0.8,0.2,1.4,0.6,1.9,1.2c0.5,0.6,0.9,1.3,1.2,2.1
				c0.3,0.8,0.4,1.8,0.4,3c0,1.1-0.1,2-0.4,2.7c-0.3,0.9-0.8,1.7-1.4,2.3c-0.5,0.4-1.1,0.8-1.8,1c-0.6,0.2-1.3,0.3-2.3,0.3h-4.9
				V208.2z M380.2,210.4v8.5h1.9c0.7,0,1.3,0,1.6-0.1c0.4-0.1,0.8-0.3,1.1-0.5c0.3-0.3,0.5-0.7,0.7-1.2c0.2-0.6,0.3-1.4,0.3-2.4
				c0-1-0.1-1.8-0.3-2.3c-0.2-0.5-0.4-0.9-0.7-1.2s-0.7-0.5-1.2-0.6c-0.4-0.1-1.1-0.1-2.1-0.1H380.2z"/>
			<path class="st6" d="M395.6,218.1l2.5,0.4c-0.3,0.9-0.8,1.6-1.5,2.1c-0.7,0.5-1.5,0.7-2.6,0.7c-1.6,0-2.8-0.5-3.6-1.6
				c-0.6-0.8-0.9-1.9-0.9-3.2c0-1.5,0.4-2.8,1.2-3.6c0.8-0.9,1.8-1.3,3.1-1.3c1.4,0,2.5,0.5,3.3,1.4c0.8,0.9,1.2,2.3,1.2,4.2H392
				c0,0.7,0.2,1.3,0.6,1.7c0.4,0.4,0.9,0.6,1.4,0.6c0.4,0,0.7-0.1,1-0.3C395.3,218.9,395.5,218.6,395.6,218.1z M395.7,215.6
				c0-0.7-0.2-1.3-0.6-1.6c-0.4-0.4-0.8-0.6-1.3-0.6c-0.5,0-1,0.2-1.3,0.6c-0.4,0.4-0.5,0.9-0.5,1.6H395.7z"/>
			<path class="st6" d="M399,218.4l2.5-0.4c0.1,0.5,0.3,0.8,0.6,1.1c0.3,0.2,0.8,0.4,1.4,0.4c0.6,0,1.1-0.1,1.4-0.4
				c0.2-0.2,0.3-0.4,0.3-0.7c0-0.2-0.1-0.3-0.2-0.5c-0.1-0.1-0.4-0.2-0.8-0.3c-2-0.4-3.3-0.8-3.8-1.2c-0.7-0.5-1.1-1.2-1.1-2.1
				c0-0.8,0.3-1.5,1-2c0.6-0.6,1.6-0.8,3-0.8c1.3,0,2.2,0.2,2.8,0.6c0.6,0.4,1,1,1.3,1.8l-2.3,0.4c-0.1-0.4-0.3-0.6-0.6-0.8
				c-0.3-0.2-0.7-0.3-1.2-0.3c-0.7,0-1.1,0.1-1.4,0.3c-0.2,0.1-0.3,0.3-0.3,0.5c0,0.2,0.1,0.3,0.2,0.4c0.2,0.2,1,0.4,2.3,0.7
				c1.3,0.3,2.2,0.7,2.8,1.1c0.5,0.4,0.8,1.1,0.8,1.8c0,0.9-0.4,1.6-1.1,2.2c-0.7,0.6-1.8,0.9-3.2,0.9c-1.3,0-2.3-0.3-3-0.8
				C399.7,220,399.2,219.3,399,218.4z"/>
			<path class="st6" d="M409.5,210.5v-2.3h2.5v2.3H409.5z M409.5,221.1v-9.3h2.5v9.3H409.5z"/>
			<path class="st6" d="M413.9,221.7l2.8,0.3c0,0.3,0.2,0.6,0.3,0.7c0.2,0.2,0.6,0.3,1.1,0.3c0.6,0,1.1-0.1,1.5-0.3
				c0.2-0.1,0.4-0.3,0.5-0.6c0.1-0.2,0.1-0.6,0.1-1.1v-1.4c-0.7,1-1.7,1.5-2.8,1.5c-1.3,0-2.2-0.5-3-1.6c-0.6-0.8-0.9-1.9-0.9-3.1
				c0-1.6,0.4-2.8,1.1-3.6c0.8-0.8,1.7-1.2,2.8-1.2c1.2,0,2.1,0.5,2.9,1.5v-1.3h2.3v8.4c0,1.1-0.1,1.9-0.3,2.5
				c-0.2,0.5-0.4,1-0.8,1.3c-0.3,0.3-0.8,0.6-1.3,0.7c-0.5,0.2-1.2,0.3-2.1,0.3c-1.6,0-2.7-0.3-3.4-0.8c-0.7-0.5-1-1.2-1-2.1
				C413.9,221.9,413.9,221.8,413.9,221.7z M416.1,216.2c0,1,0.2,1.7,0.6,2.2c0.4,0.5,0.9,0.7,1.4,0.7c0.6,0,1.1-0.2,1.5-0.7
				c0.4-0.5,0.6-1.2,0.6-2.1c0-1-0.2-1.7-0.6-2.2c-0.4-0.5-0.9-0.7-1.5-0.7c-0.6,0-1.1,0.2-1.5,0.7
				C416.3,214.6,416.1,215.3,416.1,216.2z"/>
			<path class="st6" d="M433.2,221.1h-2.5v-4.8c0-1-0.1-1.7-0.2-2c-0.1-0.3-0.3-0.5-0.5-0.7c-0.2-0.2-0.5-0.2-0.9-0.2
				c-0.4,0-0.8,0.1-1.2,0.4c-0.3,0.2-0.6,0.5-0.7,0.9c-0.1,0.4-0.2,1.1-0.2,2.1v4.2h-2.5v-9.3h2.3v1.4c0.8-1.1,1.8-1.6,3.1-1.6
				c0.5,0,1,0.1,1.5,0.3c0.5,0.2,0.8,0.4,1,0.8c0.2,0.3,0.4,0.7,0.5,1c0.1,0.4,0.1,0.9,0.1,1.7V221.1z"/>
			<path class="st6" d="M440.8,218.1l2.5,0.4c-0.3,0.9-0.8,1.6-1.5,2.1c-0.7,0.5-1.5,0.7-2.6,0.7c-1.6,0-2.8-0.5-3.6-1.6
				c-0.6-0.8-0.9-1.9-0.9-3.2c0-1.5,0.4-2.8,1.2-3.6c0.8-0.9,1.8-1.3,3.1-1.3c1.4,0,2.5,0.5,3.3,1.4c0.8,0.9,1.2,2.3,1.2,4.2h-6.2
				c0,0.7,0.2,1.3,0.6,1.7c0.4,0.4,0.9,0.6,1.4,0.6c0.4,0,0.7-0.1,1-0.3C440.5,218.9,440.7,218.6,440.8,218.1z M440.9,215.6
				c0-0.7-0.2-1.3-0.6-1.6c-0.4-0.4-0.8-0.6-1.3-0.6c-0.5,0-1,0.2-1.3,0.6c-0.4,0.4-0.5,0.9-0.5,1.6H440.9z"/>
			<path class="st6" d="M453.6,221.1h-2.3v-1.4c-0.4,0.5-0.8,0.9-1.3,1.2c-0.5,0.3-1,0.4-1.6,0.4c-1.1,0-2-0.4-2.8-1.3
				c-0.8-0.9-1.1-2.1-1.1-3.6c0-1.6,0.4-2.8,1.1-3.6c0.7-0.8,1.7-1.2,2.8-1.2c1,0,1.9,0.4,2.7,1.3v-4.6h2.5V221.1z M447,216.2
				c0,1,0.1,1.7,0.4,2.2c0.4,0.6,1,1,1.7,1c0.6,0,1.1-0.2,1.5-0.7c0.4-0.5,0.6-1.2,0.6-2.2c0-1.1-0.2-1.8-0.6-2.3
				c-0.4-0.5-0.9-0.7-1.5-0.7c-0.6,0-1.1,0.2-1.5,0.7C447.2,214.6,447,215.3,447,216.2z"/>
			<path class="st6" d="M460.2,221.1v-12.9h2.5v4.6c0.8-0.9,1.7-1.3,2.7-1.3c1.1,0,2.1,0.4,2.8,1.2c0.7,0.8,1.1,2,1.1,3.5
				c0,1.6-0.4,2.8-1.1,3.7c-0.8,0.9-1.7,1.3-2.8,1.3c-0.5,0-1.1-0.1-1.6-0.4c-0.5-0.3-1-0.7-1.3-1.2v1.4H460.2z M462.7,216.2
				c0,1,0.2,1.7,0.5,2.1c0.4,0.7,1,1,1.7,1c0.5,0,1-0.2,1.4-0.7c0.4-0.5,0.6-1.2,0.6-2.2c0-1.1-0.2-1.8-0.6-2.3
				c-0.4-0.5-0.9-0.7-1.5-0.7c-0.6,0-1.1,0.2-1.5,0.7C462.9,214.6,462.7,215.3,462.7,216.2z"/>
			<path class="st6" d="M469.8,211.7h2.6l2.2,6.6l2.2-6.6h2.6l-3.3,9l-0.6,1.6c-0.2,0.5-0.4,1-0.6,1.2c-0.2,0.3-0.4,0.5-0.7,0.7
				c-0.3,0.2-0.6,0.3-0.9,0.4c-0.4,0.1-0.8,0.1-1.3,0.1c-0.5,0-0.9,0-1.4-0.1l-0.2-1.9c0.4,0.1,0.7,0.1,1,0.1c0.6,0,1-0.2,1.3-0.5
				c0.3-0.3,0.5-0.8,0.6-1.3L469.8,211.7z"/>
		</g>
	</g>
</g>
</svg>
