<?xml version="1.0" encoding="utf-8"?>
<!-- Generator: Adobe Illustrator 19.2.1, SVG Export Plug-In . SVG Version: 6.00 Build 0)  -->
<svg version="1.1" xmlns="http://www.w3.org/2000/svg" xmlns:xlink="http://www.w3.org/1999/xlink" x="0px" y="0px"
	 viewBox="0 0 172.2 202.2" style="enable-background:new 0 0 172.2 202.2;" xml:space="preserve">
<style type="text/css">
	.st0{fill:#6CBE45;}
	.st1{fill:#726658;}
	.st2{fill:#9B8579;}
	.st3{fill:#FFFFFF;}
	.st4{fill:#ED1C24;}
	.st5{opacity:0.26;}
	.st6{fill:#3C2415;}
</style>
<g id="_x31_">
	<g>
		<path class="st0" d="M-725-312.3c0,0,37.8-61.9,88.4-29.7C-636.6-342-656.7-276.1-725-312.3z"/>
	</g>
	<g>
		<path class="st1" d="M-534.1-225.5c0,0,55.5,39.9,94.6,36.7l37.2-33.5c0,0-60.3-1.3-88.2-19S-534.1-225.5-534.1-225.5z"/>
	</g>
	<g>
		<rect x="-815.8" y="119.7" class="st2" width="209" height="21.4"/>
	</g>
	<g>
		<path class="st1" d="M-99.8-102.7h-199.7c-4,0-7.3-3.3-7.3-7.3v-199.7c0-4,3.3-7.3,7.3-7.3h199.7c4,0,7.3,3.3,7.3,7.3V-110
			C-92.5-106-95.8-102.7-99.8-102.7z"/>
	</g>
	<g>
		<path class="st3" d="M-112.7-115.5h-174c-4,0-7.3-3.3-7.3-7.3v-174c0-4,3.3-7.3,7.3-7.3h174c4,0,7.3,3.3,7.3,7.3v174
			C-105.4-118.8-108.7-115.5-112.7-115.5z"/>
	</g>
	<g>
		<path class="st1" d="M109.8,160.4c0,0-69.7-24.9-68.6-106.4c1.1-81.5,85.2-60.6,87.4-4.8c2.1,55.7-73.4,117.4-73.4,117.4
			l-4.3-10.2c0,0,63.3-44.4,65.4-102.9c1.6-46.1-66.5-59-64.9,3.8c1.9,74.3,67,97.5,67,97.5L109.8,160.4z"/>
	</g>
	<g>
		<path class="st2" d="M78.9-310.4c-30.1,0-54.5,32.9-54.5,73.6c0,40.6,24.4,73.6,54.5,73.6s54.5-32.9,54.5-73.6
			C133.5-277.5,109.1-310.4,78.9-310.4z M78.9-179.8c-23.4,0-42.3-25.5-42.3-57.1c0-31.5,18.9-57.1,42.3-57.1s42.3,25.5,42.3,57.1
			C121.2-205.3,102.3-179.8,78.9-179.8z"/>
	</g>
	<g>
		<path class="st1" d="M-730.6-271.3c0.8-2.4,10.5-39.4-12.9-65.1l15.5-8c0,0,26.3,30.5,11,73.2H-730.6z"/>
	</g>
	<g>
		<path class="st4" d="M-720.2-280.9c-31.2,3.5-65.9-18.5-82,36.2c-14.1,48.1,46.6,133.5,82,98.1c0,0,30.5,30.5,60.3-18.5
			S-621.3-292.2-720.2-280.9z"/>
	</g>
	<g>
		<g>
			<path class="st4" d="M-432.8,131l-18.5,39.1l-22.5-63.5L-485,128h-52.3c18.1,42.1,78.8,75.6,78.8,75.6s54.4-25.8,74.1-72.6
				H-432.8z"/>
		</g>
		<g>
			<path class="st4" d="M-493.1,117l20.1-34.6l22.5,56.3l9.6-17.7h60c1.2-4.2,2.2-8.4,2.8-12.9c8-61.1-53.9-71.6-83.6-32.2
				c0,0-39.4-56.3-74,4.8c-6.9,12.2-8,24.4-5.2,36.2H-493.1z"/>
		</g>
	</g>
	<g>
		<circle class="st1" cx="78.9" cy="-191.4" r="66.7"/>
	</g>
	<g>
		<path class="st3" d="M38-217.9h10.8v21.3H49c1.1-1.9,2.2-3.6,3.3-5.3l10.9-16h13.3l-15.9,20.5l16.8,27.6H64.7l-11.8-20.8l-4.1,5.1
			v15.7H38V-217.9z"/>
		<path class="st3" d="M119.7-172c-3.4,1.1-9.7,2.7-16.1,2.7c-8.8,0-15.1-2.2-19.6-6.5c-4.4-4.1-6.9-10.4-6.8-17.5
			c0.1-16,11.7-25.1,27.5-25.1c6.2,0,11,1.2,13.4,2.4l-2.3,8.7c-2.6-1.1-5.9-2.1-11.2-2.1c-9.1,0-15.9,5.1-15.9,15.6
			c0,9.9,6.2,15.8,15.1,15.8c2.5,0,4.5-0.3,5.4-0.7v-10.1h-7.4v-8.5h17.9V-172z"/>
	</g>
	<g>
		<path class="st4" d="M55.1,146.2c0,0,9.6,12.3,12.3,16.6c2.7,4.3-12.9,7-12.3,8c0.5,1.1-37,41.3-52.5,28.9
			c-15.5-12.3,44.5-44.5,44.5-44.5S47.1,148.9,55.1,146.2z"/>
	</g>
	<g>
		<path class="st4" d="M117.1,146.2c0,0-9.6,12.3-12.3,16.6c-2.7,4.3,12.9,7,12.3,8c-0.5,1.1,37,41.3,52.5,28.9
			s-44.5-44.5-44.5-44.5S125.2,148.9,117.1,146.2z"/>
	</g>
	<g>
		<path class="st1" d="M47.9,54.3c0,0,5.7,39,37,39s36.2-39,36.2-39l3.9,19.5c0,0-7.8,35.2-35.2,35.2c-27.4,0-48.6-37-48.6-37
			L47.9,54.3z"/>
	</g>
	<g>
		<path class="st2" d="M-129.9,202.2h-137.7c-3.9,0-7.1-3.2-7.1-7.1V30.9c0-3.9,3.2-7.1,7.1-7.1h137.7c3.9,0,7.1,3.2,7.1,7.1v164.2
			C-122.8,199-126,202.2-129.9,202.2z"/>
	</g>
	<g>
		<rect x="-257.8" y="36.6" class="st3" width="118.2" height="152.8"/>
	</g>
	<g>
		<rect x="-249.8" y="72.3" class="st1" width="80.4" height="5.4"/>
	</g>
	<g>
		<rect x="-249.8" y="104.4" class="st1" width="80.4" height="5.4"/>
	</g>
	<g>
		<rect x="-249.8" y="136.6" class="st1" width="80.4" height="5.4"/>
	</g>
	<g>
		<rect x="-249.8" y="168.7" class="st1" width="80.4" height="5.4"/>
	</g>
	<g>
		<path class="st1" d="M-163.8,66.1v17.7h17.7V66.1H-163.8z M-149,80.8h-11.8V69h11.8V80.8z"/>
	</g>
	<g>
		<path class="st1" d="M-163.8,98.3v17.7h17.7V98.3H-163.8z M-149,113h-11.8v-11.8h11.8V113z"/>
	</g>
	<g>
		<path class="st1" d="M-163.8,130.4v17.7h17.7v-17.7H-163.8z M-149,145.2h-11.8v-11.8h11.8V145.2z"/>
	</g>
	<g>
		<path class="st1" d="M-163.8,162.6v17.7h17.7v-17.7H-163.8z M-149,177.3h-11.8v-11.8h11.8V177.3z"/>
	</g>
	<g>
		<polygon class="st4" points="-160.2,71.4 -154.6,79.6 -142.9,65.5 -154,75.1 		"/>
	</g>
	<g>
		<polygon class="st4" points="-160.2,104.1 -154.6,112.4 -142.9,98.3 -154,107.9 		"/>
	</g>
	<g>
		<path class="st1" d="M-163.4,43.9h-70.7c-1.8,0-3.2-1.4-3.2-3.2V21.3c0-1.8,1.4-3.2,3.2-3.2h70.7c1.8,0,3.2,1.4,3.2,3.2v19.4
			C-160.2,42.4-161.7,43.9-163.4,43.9z"/>
	</g>
	<g>
		<path class="st4" d="M-199.7-286.5c-34,0-61.6,27.6-61.6,61.6h47.2c0-8,6.5-14.5,14.5-14.5c8,0,14.5,6.5,14.5,14.5h47.2
			C-138.1-258.9-165.7-286.5-199.7-286.5z"/>
	</g>
	<g>
		<polygon class="st3" points="-182.8,-234.5 -155.1,-257.8 -186.8,-239.3 		"/>
	</g>
	<g>
		<path class="st1" d="M-196.6-108.3h-6.1c-0.8,0-1.4-0.6-1.4-1.4v-80.1c0-0.8,0.6-1.4,1.4-1.4h6.1c0.8,0,1.4,0.6,1.4,1.4v80.1
			C-195.3-108.9-195.9-108.3-196.6-108.3z"/>
	</g>
	<g>
		<path class="st1" d="M-754.6,173.8h-25.5c-3.2,0-5.8-2.6-5.8-5.8V92.7c0-3.2,2.6-5.8,5.8-5.8h25.5c3.2,0,5.8,2.6,5.8,5.8v75.3
			C-748.8,171.2-751.4,173.8-754.6,173.8z"/>
	</g>
	<g>
		<path class="st1" d="M-793.5,154.5h-12c-1.5,0-2.7-1.2-2.7-2.7V109c0-1.5,1.2-2.7,2.7-2.7h12c1.5,0,2.7,1.2,2.7,2.7v42.8
			C-790.8,153.3-792,154.5-793.5,154.5z"/>
	</g>
	<g>
		<path class="st1" d="M-667.9,173.8h25.5c3.2,0,5.8-2.6,5.8-5.8V92.7c0-3.2-2.6-5.8-5.8-5.8h-25.5c-3.2,0-5.7,2.6-5.7,5.8v75.3
			C-673.7,171.2-671.1,173.8-667.9,173.8z"/>
	</g>
	<g>
		<path class="st1" d="M-629,154.5h12c1.5,0,2.7-1.2,2.7-2.7V109c0-1.5-1.2-2.7-2.7-2.7h-12c-1.5,0-2.7,1.2-2.7,2.7v42.8
			C-631.7,153.3-630.5,154.5-629,154.5z"/>
	</g>
	<g>
		<path class="st2" d="M-402.2-318.7l25.7,26.5c0,0-59.5,58.7-157.6,66.7v-37.8C-534.1-263.2-473-260.8-402.2-318.7z"/>
	</g>
	<g>
		<path class="st3" d="M-520-231.1c-0.9,0-1.6-0.7-1.6-1.5l-0.4-9.2c0-0.9,0.7-1.6,1.5-1.7c0.9,0,1.6,0.7,1.7,1.5l0.4,9.2
			C-518.3-231.9-519-231.1-520-231.1C-519.9-231.1-520-231.1-520-231.1z"/>
	</g>
	<g>
		<path class="st3" d="M-495.9-237.1c-0.7,0-1.4-0.5-1.5-1.2l-2.4-8.8c-0.2-0.9,0.3-1.7,1.1-2c0.8-0.2,1.7,0.3,2,1.1l2.4,8.8
			c0.2,0.9-0.3,1.7-1.1,2C-495.6-237.1-495.7-237.1-495.9-237.1z"/>
	</g>
	<g>
		<path class="st3" d="M-469.3-246.4c-0.6,0-1.2-0.3-1.5-0.9l-4-8.4c-0.4-0.8,0-1.8,0.8-2.1c0.8-0.4,1.8,0,2.1,0.8l4,8.4
			c0.4,0.8,0,1.8-0.8,2.1C-468.9-246.4-469.1-246.4-469.3-246.4z"/>
	</g>
	<g>
		<path class="st3" d="M-446-255.2c-0.6,0-1.1-0.3-1.4-0.8l-4.4-8c-0.4-0.8-0.1-1.8,0.6-2.2c0.8-0.4,1.8-0.1,2.2,0.6l4.4,8
			c0.4,0.8,0.1,1.8-0.6,2.2C-445.5-255.3-445.8-255.2-446-255.2z"/>
	</g>
	<g>
		<path class="st3" d="M-425.5-266.1c-0.5,0-1-0.2-1.3-0.6l-5.2-6.8c-0.5-0.7-0.4-1.7,0.3-2.3c0.7-0.5,1.7-0.4,2.3,0.3l5.2,6.8
			c0.5,0.7,0.4,1.7-0.3,2.3C-424.8-266.2-425.2-266.1-425.5-266.1z"/>
	</g>
	<g>
		<path class="st3" d="M-405.4-278.1c-0.4,0-0.8-0.1-1.1-0.4l-6.4-6c-0.6-0.6-0.7-1.6-0.1-2.3c0.6-0.7,1.6-0.7,2.3-0.1l6.4,6
			c0.6,0.6,0.7,1.6,0.1,2.3C-404.6-278.3-405-278.1-405.4-278.1z"/>
	</g>
	<g>
		<path class="st3" d="M-388.1-289.4c-0.4,0-0.8-0.1-1.1-0.4l-9.2-8c-0.7-0.6-0.7-1.6-0.2-2.3c0.6-0.7,1.6-0.7,2.3-0.2l9.2,8
			c0.7,0.6,0.7,1.6,0.2,2.3C-387.2-289.6-387.7-289.4-388.1-289.4z"/>
	</g>
	<g>
		<path class="st2" d="M-402.2-222.2l25.7,26.5c0,0-59.5,58.7-157.6,66.7v-37.8C-534.1-166.8-473-164.4-402.2-222.2z"/>
	</g>
	<g>
		<path class="st3" d="M-520-134.6c-0.9,0-1.6-0.7-1.6-1.5l-0.4-9.2c0-0.9,0.7-1.6,1.5-1.7c0.9,0,1.6,0.6,1.7,1.5l0.4,9.2
			C-518.3-135.4-519-134.7-520-134.6C-519.9-134.6-520-134.6-520-134.6z"/>
	</g>
	<g>
		<path class="st3" d="M-495.9-140.6c-0.7,0-1.4-0.5-1.5-1.2l-2.4-8.8c-0.2-0.9,0.3-1.7,1.1-2c0.8-0.2,1.7,0.3,2,1.1l2.4,8.8
			c0.2,0.9-0.3,1.7-1.1,2C-495.6-140.7-495.7-140.6-495.9-140.6z"/>
	</g>
	<g>
		<path class="st3" d="M-469.3-149.9c-0.6,0-1.2-0.3-1.5-0.9l-4-8.4c-0.4-0.8,0-1.8,0.8-2.1c0.8-0.4,1.8,0,2.1,0.8l4,8.4
			c0.4,0.8,0,1.8-0.8,2.1C-468.9-149.9-469.1-149.9-469.3-149.9z"/>
	</g>
	<g>
		<path class="st3" d="M-446-158.7c-0.6,0-1.1-0.3-1.4-0.8l-4.4-8c-0.4-0.8-0.1-1.8,0.6-2.2c0.8-0.4,1.8-0.1,2.2,0.6l4.4,8
			c0.4,0.8,0.1,1.8-0.6,2.2C-445.5-158.8-445.8-158.7-446-158.7z"/>
	</g>
	<g>
		<path class="st3" d="M-425.5-169.6c-0.5,0-1-0.2-1.3-0.6l-5.2-6.8c-0.5-0.7-0.4-1.7,0.3-2.3c0.7-0.5,1.7-0.4,2.3,0.3l5.2,6.8
			c0.5,0.7,0.4,1.7-0.3,2.3C-424.8-169.7-425.2-169.6-425.5-169.6z"/>
	</g>
	<g>
		<path class="st3" d="M-405.4-181.6c-0.4,0-0.8-0.1-1.1-0.4l-6.4-6c-0.6-0.6-0.7-1.6-0.1-2.3c0.6-0.6,1.6-0.7,2.3-0.1l6.4,6
			c0.6,0.6,0.7,1.6,0.1,2.3C-404.6-181.8-405-181.6-405.4-181.6z"/>
	</g>
	<g>
		<path class="st3" d="M-388.1-192.9c-0.4,0-0.8-0.1-1.1-0.4l-9.2-8c-0.7-0.6-0.7-1.6-0.2-2.3c0.6-0.7,1.6-0.7,2.3-0.2l9.2,8
			c0.7,0.6,0.7,1.6,0.2,2.3C-387.2-193.1-387.7-192.9-388.1-192.9z"/>
	</g>
</g>
<g id="Designed_by_Vecteezy">
	<g class="st5">
		<g>
			<g>
				<path class="st6" d="M-314.3,289c0.5,0,1,0.5,1,0.5l-8.9,19c-1,0-3.3,0.1-3.9,0.1c-0.5,0-1-0.5-1-0.5l-3-19
					c1.8,0,4.2-0.1,4.8-0.1c0.5,0,1,0.5,1,0.5l0.9,9.3c0.1,0.8,0.1,1.9,0.1,3.1c0.3-1.3,0.6-2.5,1-3.3l3.7-9.4
					C-317,289.2-314.9,289-314.3,289L-314.3,289z"/>
			</g>
			<g>
				<path class="st6" d="M-305.1,298.4c0,2.1-1.2,3.4-4,4l-3,0.6c0.2,1.3,1.1,1.9,2.4,1.9c1.7,0,2.8-1.3,2.8-1.3s0.8,0.5,0.8,1.4
					c0,1.7-2.6,3.6-5.7,3.6c-3.1,0-5.2-2-5.2-5.3c0-3.8,2.7-9.1,7.6-9.1C-306.8,294.4-305.1,296-305.1,298.4L-305.1,298.4z
					 M-310.2,300.4c0.6-0.2,0.8-0.7,0.8-1.3c0-0.6-0.2-1.4-0.9-1.4c-1.2,0-1.7,1.9-1.9,3.4L-310.2,300.4z"/>
			</g>
			<g>
				<path class="st6" d="M-297,294.4c2.4,0,4.3,1.3,4.3,3c0,2.1-2.6,2.9-2.6,2.9s-0.7-2.3-2.5-2.3c-1.2,0-1.8,1.2-1.8,3.7
					c0,2.3,0.6,3.3,2.1,3.3c1.5,0,2.5-1,2.5-1s0.9,0.5,0.9,1.4c0,1.7-2.5,3.4-5.5,3.4c-3.2,0-5.1-2-5.1-5.3
					C-304.7,299.6-301.9,294.4-297,294.4L-297,294.4z"/>
			</g>
			<g>
				<path class="st6" d="M-285.2,291.3c0.6,0,1,0.5,1,0.5l-0.5,2.9h3.1l-0.7,2.2c-0.2,0.7-0.6,1.1-1.3,1.1h-1.6l-0.9,5.7
					c-0.1,0.9,0.1,1.3,0.7,1.3c0.6,0,1.1-0.3,1.1-0.3s0.9,0.5,0.9,1.4c0,1.4-2,2.8-4.5,2.8c-2.6,0-3.7-1.6-3.3-4.5l1-6.3h-1.7
					l0.7-2.3c0.2-0.6,0.7-1,1.3-1h0.8l1-2.7C-286.9,291.7-285.8,291.3-285.2,291.3L-285.2,291.3z"/>
			</g>
			<g>
				<path class="st6" d="M-270.3,298.4c0,2.1-1.2,3.4-4,4l-3,0.6c0.2,1.3,1.1,1.9,2.4,1.9c1.7,0,2.8-1.3,2.8-1.3s0.9,0.5,0.9,1.4
					c0,1.7-2.6,3.6-5.7,3.6c-3.1,0-5.2-2-5.2-5.3c0-3.8,2.7-9.1,7.6-9.1C-272,294.4-270.3,296-270.3,298.4L-270.3,298.4z
					 M-275.4,300.4c0.6-0.2,0.8-0.7,0.8-1.3c0-0.6-0.2-1.4-0.9-1.4c-1.2,0-1.7,1.9-1.9,3.4L-275.4,300.4z"/>
			</g>
			<g>
				<path class="st6" d="M-258,298.4c0,2.1-1.2,3.4-4,4l-3,0.6c0.2,1.3,1.1,1.9,2.4,1.9c1.7,0,2.8-1.3,2.8-1.3s0.9,0.5,0.9,1.4
					c0,1.7-2.6,3.6-5.7,3.6c-3.1,0-5.2-2-5.2-5.3c0-3.8,2.7-9.1,7.6-9.1C-259.6,294.4-258,296-258,298.4L-258,298.4z M-263.1,300.4
					c0.6-0.2,0.8-0.7,0.8-1.3c0-0.6-0.2-1.4-0.9-1.4c-1.2,0-1.7,1.9-1.9,3.4L-263.1,300.4z"/>
			</g>
			<g>
				<path class="st6" d="M-247.9,303.6c0,0,1,1,1,2.5c0,2.1-1.8,2.7-3.3,2.7c-2,0-3.4-0.9-4.9-1.4c-0.4,0.5-0.8,1-1.2,1.4
					c0,0-2.2-0.1-2.2-1.6c0-1.8,3.1-5,6.4-8.5c-0.4-0.1-0.7-0.1-1.1-0.1c-1.9,0-2.6,0.9-2.6,0.9s-1-1.1-0.9-2.5c0.1-2,2-2.5,3.5-2.5
					c1.6,0,2.7,0.6,3.9,1.1l0.9-1.1c0,0,2.2,0.1,2.2,1.6c0,1.8-3,4.9-6.2,8.3c0.7,0.2,1.3,0.3,1.9,0.3
					C-248.7,304.6-247.9,303.6-247.9,303.6L-247.9,303.6z"/>
			</g>
			<g>
				<path class="st6" d="M-233.5,307.6c-0.8,4.8-4.1,7.3-8.3,7.3c-2.7,0-4.7-1.4-4.7-3c0-1.1,0.9-1.6,0.9-1.6s0.9,0.8,2.7,0.8
					c1.7,0,4-0.7,4.4-3.3l0.3-2c-1.1,1.6-2.6,3-4.5,3c-2.1,0-3.1-1.7-2.5-5.3l0.6-3.8c0.4-2.3,0.5-4.3,0.5-4.3c1.5-0.3,3.5-1,4.2-1
					c0.5,0,1,0.5,1,0.5l-0.8,4.8l-0.7,4.4c-0.1,0.4,0,0.6,0.4,0.6c1.8,0,2.8-5.1,2.8-5.1c0.4-2.3,0.5-4.3,0.5-4.3
					c1.5-0.3,3.5-1,4.2-1c0.5,0,1,0.5,1,0.5l-0.8,4.8L-233.5,307.6z"/>
			</g>
		</g>
		<g>
			<path class="st6" d="M-438.3,295.2h4.8c1.1,0,1.9,0.1,2.5,0.2c0.8,0.2,1.4,0.6,1.9,1.2c0.5,0.6,0.9,1.3,1.2,2.1
				c0.3,0.8,0.4,1.8,0.4,3c0,1.1-0.1,2-0.4,2.7c-0.3,0.9-0.8,1.7-1.4,2.3c-0.5,0.4-1.1,0.8-1.8,1c-0.6,0.2-1.3,0.3-2.3,0.3h-4.9
				V295.2z M-435.7,297.4v8.5h1.9c0.7,0,1.3,0,1.6-0.1c0.4-0.1,0.8-0.3,1.1-0.5c0.3-0.3,0.5-0.7,0.7-1.2c0.2-0.6,0.3-1.4,0.3-2.4
				s-0.1-1.8-0.3-2.3s-0.4-0.9-0.7-1.2s-0.7-0.5-1.2-0.6c-0.4-0.1-1.1-0.1-2.1-0.1H-435.7z"/>
			<path class="st6" d="M-420.3,305.1l2.5,0.4c-0.3,0.9-0.8,1.6-1.5,2.1c-0.7,0.5-1.5,0.7-2.6,0.7c-1.6,0-2.8-0.5-3.6-1.6
				c-0.6-0.8-0.9-1.9-0.9-3.2c0-1.5,0.4-2.8,1.2-3.6c0.8-0.9,1.8-1.3,3.1-1.3c1.4,0,2.5,0.5,3.3,1.4c0.8,0.9,1.2,2.3,1.2,4.2h-6.2
				c0,0.7,0.2,1.3,0.6,1.7c0.4,0.4,0.9,0.6,1.4,0.6c0.4,0,0.7-0.1,1-0.3C-420.6,305.9-420.4,305.6-420.3,305.1z M-420.1,302.6
				c0-0.7-0.2-1.3-0.6-1.6c-0.4-0.4-0.8-0.6-1.3-0.6c-0.5,0-1,0.2-1.3,0.6c-0.4,0.4-0.5,0.9-0.5,1.6H-420.1z"/>
			<path class="st6" d="M-416.9,305.4l2.5-0.4c0.1,0.5,0.3,0.8,0.6,1.1c0.3,0.2,0.8,0.4,1.4,0.4c0.6,0,1.1-0.1,1.4-0.4
				c0.2-0.2,0.3-0.4,0.3-0.7c0-0.2-0.1-0.3-0.2-0.5c-0.1-0.1-0.4-0.2-0.8-0.3c-2-0.4-3.3-0.8-3.8-1.2c-0.7-0.5-1.1-1.2-1.1-2.1
				c0-0.8,0.3-1.5,1-2c0.6-0.6,1.6-0.8,3-0.8c1.3,0,2.2,0.2,2.8,0.6c0.6,0.4,1,1,1.3,1.8l-2.3,0.4c-0.1-0.4-0.3-0.6-0.6-0.8
				c-0.3-0.2-0.7-0.3-1.2-0.3c-0.7,0-1.1,0.1-1.4,0.3c-0.2,0.1-0.3,0.3-0.3,0.5c0,0.2,0.1,0.3,0.2,0.4c0.2,0.2,1,0.4,2.3,0.7
				c1.3,0.3,2.2,0.7,2.8,1.1c0.5,0.4,0.8,1.1,0.8,1.8c0,0.9-0.4,1.6-1.1,2.2c-0.7,0.6-1.8,0.9-3.2,0.9c-1.3,0-2.3-0.3-3-0.8
				C-416.2,307-416.6,306.3-416.9,305.4z"/>
			<path class="st6" d="M-406.4,297.5v-2.3h2.5v2.3H-406.4z M-406.4,308.1v-9.3h2.5v9.3H-406.4z"/>
			<path class="st6" d="M-401.9,308.7l2.8,0.3c0,0.3,0.2,0.6,0.3,0.7c0.2,0.2,0.6,0.3,1.1,0.3c0.6,0,1.1-0.1,1.5-0.3
				c0.2-0.1,0.4-0.3,0.5-0.6c0.1-0.2,0.1-0.6,0.1-1.1v-1.4c-0.7,1-1.7,1.5-2.8,1.5c-1.3,0-2.2-0.5-3-1.6c-0.6-0.8-0.9-1.9-0.9-3.1
				c0-1.6,0.4-2.8,1.1-3.6c0.8-0.8,1.7-1.2,2.8-1.2c1.2,0,2.1,0.5,2.9,1.5v-1.3h2.3v8.4c0,1.1-0.1,1.9-0.3,2.5
				c-0.2,0.5-0.4,1-0.8,1.3c-0.3,0.3-0.8,0.6-1.3,0.7c-0.5,0.2-1.2,0.3-2.1,0.3c-1.6,0-2.7-0.3-3.4-0.8c-0.7-0.5-1-1.2-1-2.1
				C-402,308.9-402,308.8-401.9,308.7z M-399.7,303.2c0,1,0.2,1.7,0.6,2.2c0.4,0.5,0.9,0.7,1.4,0.7c0.6,0,1.1-0.2,1.5-0.7
				c0.4-0.5,0.6-1.2,0.6-2.1c0-1-0.2-1.7-0.6-2.2c-0.4-0.5-0.9-0.7-1.5-0.7c-0.6,0-1.1,0.2-1.5,0.7
				C-399.5,301.6-399.7,302.3-399.7,303.2z"/>
			<path class="st6" d="M-382.6,308.1h-2.5v-4.8c0-1-0.1-1.7-0.2-2c-0.1-0.3-0.3-0.5-0.5-0.7c-0.2-0.2-0.5-0.2-0.9-0.2
				c-0.4,0-0.8,0.1-1.2,0.4c-0.3,0.2-0.6,0.5-0.7,0.9c-0.1,0.4-0.2,1.1-0.2,2.1v4.2h-2.5v-9.3h2.3v1.4c0.8-1.1,1.8-1.6,3.1-1.6
				c0.5,0,1,0.1,1.5,0.3c0.5,0.2,0.8,0.4,1,0.8c0.2,0.3,0.4,0.7,0.5,1c0.1,0.4,0.1,0.9,0.1,1.7V308.1z"/>
			<path class="st6" d="M-375,305.1l2.5,0.4c-0.3,0.9-0.8,1.6-1.5,2.1c-0.7,0.5-1.5,0.7-2.6,0.7c-1.6,0-2.8-0.5-3.6-1.6
				c-0.6-0.8-0.9-1.9-0.9-3.2c0-1.5,0.4-2.8,1.2-3.6c0.8-0.9,1.8-1.3,3.1-1.3c1.4,0,2.5,0.5,3.3,1.4c0.8,0.9,1.2,2.3,1.2,4.2h-6.2
				c0,0.7,0.2,1.3,0.6,1.7c0.4,0.4,0.9,0.6,1.4,0.6c0.4,0,0.7-0.1,1-0.3C-375.4,305.9-375.2,305.6-375,305.1z M-374.9,302.6
				c0-0.7-0.2-1.3-0.6-1.6c-0.4-0.4-0.8-0.6-1.3-0.6c-0.5,0-1,0.2-1.3,0.6c-0.4,0.4-0.5,0.9-0.5,1.6H-374.9z"/>
			<path class="st6" d="M-362.2,308.1h-2.3v-1.4c-0.4,0.5-0.8,0.9-1.3,1.2c-0.5,0.3-1,0.4-1.6,0.4c-1.1,0-2-0.4-2.8-1.3
				c-0.8-0.9-1.1-2.1-1.1-3.6c0-1.6,0.4-2.8,1.1-3.6c0.7-0.8,1.7-1.2,2.8-1.2c1,0,1.9,0.4,2.7,1.3v-4.6h2.5V308.1z M-368.8,303.2
				c0,1,0.1,1.7,0.4,2.2c0.4,0.6,1,1,1.7,1c0.6,0,1.1-0.2,1.5-0.7c0.4-0.5,0.6-1.2,0.6-2.2c0-1.1-0.2-1.8-0.6-2.3
				c-0.4-0.5-0.9-0.7-1.5-0.7c-0.6,0-1.1,0.2-1.5,0.7C-368.6,301.6-368.8,302.3-368.8,303.2z"/>
			<path class="st6" d="M-355.6,308.1v-12.9h2.5v4.6c0.8-0.9,1.7-1.3,2.7-1.3c1.1,0,2.1,0.4,2.8,1.2c0.7,0.8,1.1,2,1.1,3.5
				c0,1.6-0.4,2.8-1.1,3.7c-0.8,0.9-1.7,1.3-2.8,1.3c-0.5,0-1.1-0.1-1.6-0.4c-0.5-0.3-1-0.7-1.3-1.2v1.4H-355.6z M-353.2,303.2
				c0,1,0.2,1.7,0.5,2.1c0.4,0.7,1,1,1.7,1c0.5,0,1-0.2,1.4-0.7c0.4-0.5,0.6-1.2,0.6-2.2c0-1.1-0.2-1.8-0.6-2.3
				c-0.4-0.5-0.9-0.7-1.5-0.7c-0.6,0-1.1,0.2-1.5,0.7C-353,301.6-353.2,302.3-353.2,303.2z"/>
			<path class="st6" d="M-346.1,298.7h2.6l2.2,6.6l2.2-6.6h2.6l-3.3,9l-0.6,1.6c-0.2,0.5-0.4,1-0.6,1.2c-0.2,0.3-0.4,0.5-0.7,0.7
				c-0.3,0.2-0.6,0.3-0.9,0.4c-0.4,0.1-0.8,0.1-1.3,0.1c-0.5,0-0.9,0-1.4-0.1l-0.2-1.9c0.4,0.1,0.7,0.1,1,0.1c0.6,0,1-0.2,1.3-0.5
				c0.3-0.3,0.5-0.8,0.6-1.3L-346.1,298.7z"/>
		</g>
	</g>
</g>
</svg>
