<?xml version="1.0" encoding="utf-8"?>
<!-- Generator: Adobe Illustrator 19.2.1, SVG Export Plug-In . SVG Version: 6.00 Build 0)  -->
<svg version="1.1" xmlns="http://www.w3.org/2000/svg" xmlns:xlink="http://www.w3.org/1999/xlink" x="0px" y="0px"
	 viewBox="0 0 133.5 185.7" style="enable-background:new 0 0 133.5 185.7;" xml:space="preserve">
<style type="text/css">
	.st0{fill:#6CBE45;}
	.st1{fill:#726658;}
	.st2{fill:#9B8579;}
	.st3{fill:#FFFFFF;}
	.st4{fill:#ED1C24;}
	.st5{opacity:0.26;}
	.st6{fill:#3C2415;}
</style>
<g id="_x31_">
	<g>
		<path class="st0" d="M-737.2-1.9c0,0,37.8-61.9,88.4-29.7C-648.8-31.6-668.9,34.3-737.2-1.9z"/>
	</g>
	<g>
		<path class="st1" d="M-546.3,84.9c0,0,55.5,39.9,94.6,36.7l37.2-33.5c0,0-60.3-1.3-88.2-19C-530.5,51.5-546.3,84.9-546.3,84.9z"/>
	</g>
	<g>
		<rect x="-828.1" y="430.1" class="st2" width="209" height="21.4"/>
	</g>
	<g>
		<path class="st1" d="M-112.1,207.8h-199.7c-4,0-7.3-3.3-7.3-7.3V0.7c0-4,3.3-7.3,7.3-7.3h199.7c4,0,7.3,3.3,7.3,7.3v199.7
			C-104.7,204.5-108,207.8-112.1,207.8z"/>
	</g>
	<g>
		<path class="st3" d="M-124.9,194.9h-174c-4,0-7.3-3.3-7.3-7.3v-174c0-4,3.3-7.3,7.3-7.3h174c4,0,7.3,3.3,7.3,7.3v174
			C-117.6,191.6-120.9,194.9-124.9,194.9z"/>
	</g>
	<g>
		<path class="st1" d="M97.5,470.8c0,0-69.7-24.9-68.6-106.4c1.1-81.5,85.2-60.6,87.4-4.8C118.4,415.4,42.9,477,42.9,477l-4.3-10.2
			c0,0,63.3-44.4,65.4-102.9c1.6-46.1-66.5-59-64.9,3.8c1.9,74.3,67,97.5,67,97.5L97.5,470.8z"/>
	</g>
	<g>
		<path class="st2" d="M66.7,0C36.6,0,12.2,32.9,12.2,73.6c0,40.6,24.4,73.6,54.5,73.6s54.5-32.9,54.5-73.6
			C121.3,32.9,96.8,0,66.7,0z M66.7,130.6c-23.4,0-42.3-25.5-42.3-57.1c0-31.5,18.9-57.1,42.3-57.1S109,42,109,73.6
			C109,105.1,90.1,130.6,66.7,130.6z"/>
	</g>
	<g>
		<path class="st1" d="M-742.8,39.1c0.8-2.4,10.5-39.4-12.9-65.1l15.5-8c0,0,26.3,30.5,11,73.2H-742.8z"/>
	</g>
	<g>
		<path class="st4" d="M-732.4,29.5c-31.2,3.5-65.9-18.5-82,36.2c-14.1,48.1,46.6,133.5,82,98.1c0,0,30.5,30.5,60.3-18.5
			S-633.5,18.2-732.4,29.5z"/>
	</g>
	<g>
		<g>
			<path class="st4" d="M-445,441.4l-18.5,39.1L-486,417l-11.3,21.4h-52.3c18.1,42.1,78.8,75.6,78.8,75.6s54.4-25.8,74.1-72.6H-445z
				"/>
		</g>
		<g>
			<path class="st4" d="M-505.3,427.4l20.1-34.6l22.5,56.3l9.6-17.7h60c1.2-4.2,2.2-8.4,2.8-12.9c8-61.1-53.9-71.6-83.6-32.2
				c0,0-39.4-56.3-74,4.8c-6.9,12.2-8,24.4-5.2,36.2H-505.3z"/>
		</g>
	</g>
	<g>
		<circle class="st1" cx="66.7" cy="119" r="66.7"/>
	</g>
	<g>
		<path class="st3" d="M25.8,92.5h10.8v21.3h0.2c1.1-1.9,2.2-3.6,3.3-5.3l10.9-16h13.3L48.4,113l16.8,27.6H52.5l-11.8-20.8l-4.1,5.1
			v15.7H25.8V92.5z"/>
		<path class="st3" d="M107.5,138.5c-3.4,1.1-9.7,2.7-16.1,2.7c-8.8,0-15.1-2.2-19.6-6.5c-4.4-4.1-6.9-10.4-6.8-17.5
			c0.1-16,11.7-25.1,27.5-25.1c6.2,0,11,1.2,13.4,2.4l-2.3,8.7c-2.6-1.1-5.9-2.1-11.2-2.1c-9.1,0-15.9,5.1-15.9,15.6
			c0,9.9,6.2,15.8,15.1,15.8c2.5,0,4.5-0.3,5.4-0.7v-10.1h-7.4v-8.5h17.9V138.5z"/>
	</g>
	<g>
		<path class="st4" d="M42.9,456.6c0,0,9.6,12.3,12.3,16.6c2.7,4.3-12.9,7-12.3,8c0.5,1.1-37,41.3-52.5,28.9
			c-15.5-12.3,44.5-44.5,44.5-44.5S34.8,459.3,42.9,456.6z"/>
	</g>
	<g>
		<path class="st4" d="M104.9,456.6c0,0-9.6,12.3-12.3,16.6c-2.7,4.3,12.9,7,12.3,8c-0.5,1.1,37,41.3,52.5,28.9S113,465.7,113,465.7
			S113,459.3,104.9,456.6z"/>
	</g>
	<g>
		<path class="st1" d="M35.6,364.7c0,0,5.7,39,37,39s36.2-39,36.2-39l3.9,19.5c0,0-7.8,35.2-35.2,35.2c-27.4,0-48.6-37-48.6-37
			L35.6,364.7z"/>
	</g>
	<g>
		<path class="st2" d="M-142.1,512.6h-137.7c-3.9,0-7.1-3.2-7.1-7.1V341.3c0-3.9,3.2-7.1,7.1-7.1h137.7c3.9,0,7.1,3.2,7.1,7.1v164.2
			C-135,509.4-138.2,512.6-142.1,512.6z"/>
	</g>
	<g>
		<rect x="-270.1" y="347" class="st3" width="118.2" height="152.8"/>
	</g>
	<g>
		<rect x="-262" y="382.7" class="st1" width="80.4" height="5.4"/>
	</g>
	<g>
		<rect x="-262" y="414.8" class="st1" width="80.4" height="5.4"/>
	</g>
	<g>
		<rect x="-262" y="447" class="st1" width="80.4" height="5.4"/>
	</g>
	<g>
		<rect x="-262" y="479.1" class="st1" width="80.4" height="5.4"/>
	</g>
	<g>
		<path class="st1" d="M-176,376.5v17.7h17.7v-17.7H-176z M-161.3,391.2h-11.8v-11.8h11.8V391.2z"/>
	</g>
	<g>
		<path class="st1" d="M-176,408.7v17.7h17.7v-17.7H-176z M-161.3,423.4h-11.8v-11.8h11.8V423.4z"/>
	</g>
	<g>
		<path class="st1" d="M-176,440.8v17.7h17.7v-17.7H-176z M-161.3,455.6h-11.8v-11.8h11.8V455.6z"/>
	</g>
	<g>
		<path class="st1" d="M-176,473v17.7h17.7V473H-176z M-161.3,487.7h-11.8v-11.8h11.8V487.7z"/>
	</g>
	<g>
		<polygon class="st4" points="-172.5,381.8 -166.8,390.1 -155.1,375.9 -166.3,385.6 		"/>
	</g>
	<g>
		<polygon class="st4" points="-172.5,414.6 -166.8,422.8 -155.1,408.7 -166.3,418.3 		"/>
	</g>
	<g>
		<path class="st1" d="M-175.6,354.3h-70.7c-1.8,0-3.2-1.4-3.2-3.2v-19.4c0-1.8,1.4-3.2,3.2-3.2h70.7c1.8,0,3.2,1.4,3.2,3.2v19.4
			C-172.5,352.8-173.9,354.3-175.6,354.3z"/>
	</g>
	<g>
		<path class="st4" d="M-211.9,23.9c-34,0-61.6,27.6-61.6,61.6h47.2c0-8,6.5-14.5,14.5-14.5c8,0,14.5,6.5,14.5,14.5h47.2
			C-150.3,51.5-177.9,23.9-211.9,23.9z"/>
	</g>
	<g>
		<polygon class="st3" points="-195,75.9 -167.3,52.6 -199,71.1 		"/>
	</g>
	<g>
		<path class="st1" d="M-208.9,202.1h-6.1c-0.8,0-1.4-0.6-1.4-1.4v-80.1c0-0.8,0.6-1.4,1.4-1.4h6.1c0.8,0,1.4,0.6,1.4,1.4v80.1
			C-207.5,201.5-208.1,202.1-208.9,202.1z"/>
	</g>
	<g>
		<path class="st1" d="M-766.8,484.2h-25.5c-3.2,0-5.8-2.6-5.8-5.8v-75.3c0-3.2,2.6-5.8,5.8-5.8h25.5c3.2,0,5.8,2.6,5.8,5.8v75.3
			C-761.1,481.6-763.7,484.2-766.8,484.2z"/>
	</g>
	<g>
		<path class="st1" d="M-805.7,464.9h-12c-1.5,0-2.7-1.2-2.7-2.7v-42.8c0-1.5,1.2-2.7,2.7-2.7h12c1.5,0,2.7,1.2,2.7,2.7v42.8
			C-803,463.7-804.2,464.9-805.7,464.9z"/>
	</g>
	<g>
		<path class="st1" d="M-680.1,484.2h25.5c3.2,0,5.8-2.6,5.8-5.8v-75.3c0-3.2-2.6-5.8-5.8-5.8h-25.5c-3.2,0-5.7,2.6-5.7,5.8v75.3
			C-685.9,481.6-683.3,484.2-680.1,484.2z"/>
	</g>
	<g>
		<path class="st1" d="M-641.2,464.9h12c1.5,0,2.7-1.2,2.7-2.7v-42.8c0-1.5-1.2-2.7-2.7-2.7h-12c-1.5,0-2.7,1.2-2.7,2.7v42.8
			C-644,463.7-642.7,464.9-641.2,464.9z"/>
	</g>
	<g>
		<path class="st2" d="M-414.4-8.3l25.7,26.5c0,0-59.5,58.7-157.6,66.7V47.2C-546.3,47.2-485.2,49.6-414.4-8.3z"/>
	</g>
	<g>
		<path class="st3" d="M-532.2,79.3c-0.9,0-1.6-0.7-1.6-1.5l-0.4-9.2c0-0.9,0.7-1.6,1.5-1.7c0.9,0,1.6,0.7,1.7,1.5l0.4,9.2
			C-530.6,78.5-531.2,79.3-532.2,79.3C-532.2,79.3-532.2,79.3-532.2,79.3z"/>
	</g>
	<g>
		<path class="st3" d="M-508.1,73.3c-0.7,0-1.4-0.5-1.5-1.2l-2.4-8.8c-0.2-0.9,0.3-1.7,1.1-2c0.8-0.2,1.7,0.3,2,1.1l2.4,8.8
			c0.2,0.9-0.3,1.7-1.1,2C-507.8,73.3-507.9,73.3-508.1,73.3z"/>
	</g>
	<g>
		<path class="st3" d="M-481.6,64c-0.6,0-1.2-0.3-1.5-0.9l-4-8.4c-0.4-0.8,0-1.8,0.8-2.1c0.8-0.4,1.8,0,2.1,0.8l4,8.4
			c0.4,0.8,0,1.8-0.8,2.1C-481.1,64-481.3,64-481.6,64z"/>
	</g>
	<g>
		<path class="st3" d="M-458.2,55.2c-0.6,0-1.1-0.3-1.4-0.8l-4.4-8c-0.4-0.8-0.1-1.8,0.6-2.2c0.8-0.4,1.8-0.1,2.2,0.6l4.4,8
			c0.4,0.8,0.1,1.8-0.6,2.2C-457.7,55.1-458,55.2-458.2,55.2z"/>
	</g>
	<g>
		<path class="st3" d="M-437.7,44.4c-0.5,0-1-0.2-1.3-0.6l-5.2-6.8c-0.5-0.7-0.4-1.7,0.3-2.3c0.7-0.5,1.7-0.4,2.3,0.3l5.2,6.8
			c0.5,0.7,0.4,1.7-0.3,2.3C-437.1,44.2-437.4,44.4-437.7,44.4z"/>
	</g>
	<g>
		<path class="st3" d="M-417.6,32.3c-0.4,0-0.8-0.1-1.1-0.4l-6.4-6c-0.6-0.6-0.7-1.6-0.1-2.3c0.6-0.7,1.6-0.7,2.3-0.1l6.4,6
			c0.6,0.6,0.7,1.6,0.1,2.3C-416.8,32.1-417.2,32.3-417.6,32.3z"/>
	</g>
	<g>
		<path class="st3" d="M-400.4,21c-0.4,0-0.8-0.1-1.1-0.4l-9.2-8c-0.7-0.6-0.7-1.6-0.2-2.3c0.6-0.7,1.6-0.7,2.3-0.2l9.2,8
			c0.7,0.6,0.7,1.6,0.2,2.3C-399.5,20.8-399.9,21-400.4,21z"/>
	</g>
	<g>
		<path class="st2" d="M-414.4,88.2l25.7,26.5c0,0-59.5,58.7-157.6,66.7v-37.8C-546.3,143.6-485.2,146-414.4,88.2z"/>
	</g>
	<g>
		<path class="st3" d="M-532.2,175.8c-0.9,0-1.6-0.7-1.6-1.5l-0.4-9.2c0-0.9,0.7-1.6,1.5-1.7c0.9,0,1.6,0.7,1.7,1.5l0.4,9.2
			C-530.6,175-531.2,175.8-532.2,175.8C-532.2,175.8-532.2,175.8-532.2,175.8z"/>
	</g>
	<g>
		<path class="st3" d="M-508.1,169.8c-0.7,0-1.4-0.5-1.5-1.2l-2.4-8.8c-0.2-0.9,0.3-1.7,1.1-2c0.8-0.2,1.7,0.3,2,1.1l2.4,8.8
			c0.2,0.9-0.3,1.7-1.1,2C-507.8,169.7-507.9,169.8-508.1,169.8z"/>
	</g>
	<g>
		<path class="st3" d="M-481.6,160.5c-0.6,0-1.2-0.3-1.5-0.9l-4-8.4c-0.4-0.8,0-1.8,0.8-2.1c0.8-0.4,1.8,0,2.1,0.8l4,8.4
			c0.4,0.8,0,1.8-0.8,2.1C-481.1,160.5-481.3,160.5-481.6,160.5z"/>
	</g>
	<g>
		<path class="st3" d="M-458.2,151.7c-0.6,0-1.1-0.3-1.4-0.8l-4.4-8c-0.4-0.8-0.1-1.8,0.6-2.2c0.8-0.4,1.8-0.1,2.2,0.6l4.4,8
			c0.4,0.8,0.1,1.8-0.6,2.2C-457.7,151.6-458,151.7-458.2,151.7z"/>
	</g>
	<g>
		<path class="st3" d="M-437.7,140.8c-0.5,0-1-0.2-1.3-0.6l-5.2-6.8c-0.5-0.7-0.4-1.7,0.3-2.3c0.7-0.5,1.7-0.4,2.3,0.3l5.2,6.8
			c0.5,0.7,0.4,1.7-0.3,2.3C-437.1,140.7-437.4,140.8-437.7,140.8z"/>
	</g>
	<g>
		<path class="st3" d="M-417.6,128.8c-0.4,0-0.8-0.1-1.1-0.4l-6.4-6c-0.6-0.6-0.7-1.6-0.1-2.3c0.6-0.7,1.6-0.7,2.3-0.1l6.4,6
			c0.6,0.6,0.7,1.6,0.1,2.3C-416.8,128.6-417.2,128.8-417.6,128.8z"/>
	</g>
	<g>
		<path class="st3" d="M-400.4,117.5c-0.4,0-0.8-0.1-1.1-0.4l-9.2-8c-0.7-0.6-0.7-1.6-0.2-2.3c0.6-0.7,1.6-0.7,2.3-0.2l9.2,8
			c0.7,0.6,0.7,1.6,0.2,2.3C-399.5,117.3-399.9,117.5-400.4,117.5z"/>
	</g>
</g>
<g id="Designed_by_Vecteezy">
	<g class="st5">
		<g>
			<g>
				<path class="st6" d="M-326.5,599.4c0.5,0,1,0.5,1,0.5l-8.9,19c-1,0-3.3,0.1-3.9,0.1c-0.5,0-1-0.5-1-0.5l-3-19
					c1.8,0,4.2-0.1,4.8-0.1c0.5,0,1,0.5,1,0.5l0.9,9.3c0.1,0.8,0.1,1.9,0.1,3.1c0.3-1.3,0.6-2.5,1-3.3l3.7-9.4
					C-329.2,599.6-327.1,599.4-326.5,599.4L-326.5,599.4z"/>
			</g>
			<g>
				<path class="st6" d="M-317.3,608.8c0,2.1-1.2,3.4-4,4l-3,0.6c0.2,1.3,1.1,1.9,2.4,1.9c1.7,0,2.8-1.3,2.8-1.3s0.8,0.5,0.8,1.4
					c0,1.7-2.6,3.6-5.7,3.6c-3.1,0-5.2-2-5.2-5.3c0-3.8,2.7-9.1,7.6-9.1C-319,604.8-317.3,606.4-317.3,608.8L-317.3,608.8z
					 M-322.4,610.8c0.6-0.2,0.8-0.7,0.8-1.3c0-0.6-0.2-1.4-0.9-1.4c-1.2,0-1.7,1.9-1.9,3.4L-322.4,610.8z"/>
			</g>
			<g>
				<path class="st6" d="M-309.2,604.8c2.4,0,4.3,1.3,4.3,3c0,2.1-2.6,2.9-2.6,2.9s-0.7-2.3-2.5-2.3c-1.2,0-1.8,1.2-1.8,3.7
					c0,2.3,0.6,3.3,2.1,3.3c1.5,0,2.5-1,2.5-1s0.9,0.5,0.9,1.4c0,1.7-2.5,3.4-5.5,3.4c-3.2,0-5.1-2-5.1-5.3
					C-316.9,610-314.1,604.8-309.2,604.8L-309.2,604.8z"/>
			</g>
			<g>
				<path class="st6" d="M-297.4,601.8c0.6,0,1,0.5,1,0.5l-0.5,2.9h3.1l-0.7,2.2c-0.2,0.7-0.6,1.1-1.3,1.1h-1.6l-0.9,5.7
					c-0.1,0.9,0.1,1.3,0.7,1.3c0.6,0,1.1-0.3,1.1-0.3s0.9,0.5,0.9,1.4c0,1.4-2,2.8-4.5,2.8c-2.6,0-3.7-1.6-3.3-4.5l1-6.3h-1.7
					l0.7-2.3c0.2-0.6,0.7-1,1.3-1h0.8l1-2.7C-299.1,602.1-298,601.8-297.4,601.8L-297.4,601.8z"/>
			</g>
			<g>
				<path class="st6" d="M-282.5,608.8c0,2.1-1.2,3.4-4,4l-3,0.6c0.2,1.3,1.1,1.9,2.4,1.9c1.7,0,2.8-1.3,2.8-1.3s0.9,0.5,0.9,1.4
					c0,1.7-2.6,3.6-5.7,3.6c-3.1,0-5.2-2-5.2-5.3c0-3.8,2.7-9.1,7.6-9.1C-284.2,604.8-282.5,606.4-282.5,608.8L-282.5,608.8z
					 M-287.6,610.8c0.6-0.2,0.8-0.7,0.8-1.3c0-0.6-0.2-1.4-0.9-1.4c-1.2,0-1.7,1.9-1.9,3.4L-287.6,610.8z"/>
			</g>
			<g>
				<path class="st6" d="M-270.2,608.8c0,2.1-1.2,3.4-4,4l-3,0.6c0.2,1.3,1.1,1.9,2.4,1.9c1.7,0,2.8-1.3,2.8-1.3s0.9,0.5,0.9,1.4
					c0,1.7-2.6,3.6-5.7,3.6c-3.1,0-5.2-2-5.2-5.3c0-3.8,2.7-9.1,7.6-9.1C-271.8,604.8-270.2,606.4-270.2,608.8L-270.2,608.8z
					 M-275.3,610.8c0.6-0.2,0.8-0.7,0.8-1.3c0-0.6-0.2-1.4-0.9-1.4c-1.2,0-1.7,1.9-1.9,3.4L-275.3,610.8z"/>
			</g>
			<g>
				<path class="st6" d="M-260.1,614c0,0,1,1,1,2.5c0,2.1-1.8,2.7-3.3,2.7c-2,0-3.4-0.9-4.9-1.4c-0.4,0.5-0.8,1-1.2,1.4
					c0,0-2.2-0.1-2.2-1.6c0-1.8,3.1-5,6.4-8.5c-0.4-0.1-0.7-0.1-1.1-0.1c-1.9,0-2.6,0.9-2.6,0.9s-1-1.1-0.9-2.5c0.1-2,2-2.5,3.5-2.5
					c1.6,0,2.7,0.6,3.9,1.1l0.9-1.1c0,0,2.2,0.1,2.2,1.6c0,1.8-3,4.9-6.2,8.3c0.7,0.2,1.3,0.3,1.9,0.3
					C-260.9,615.1-260.1,614-260.1,614L-260.1,614z"/>
			</g>
			<g>
				<path class="st6" d="M-245.8,618c-0.8,4.8-4.1,7.3-8.3,7.3c-2.7,0-4.7-1.4-4.7-3c0-1.1,0.9-1.6,0.9-1.6s0.9,0.8,2.7,0.8
					c1.7,0,4-0.7,4.4-3.3l0.3-2c-1.1,1.6-2.6,3-4.5,3c-2.1,0-3.1-1.7-2.5-5.3l0.6-3.8c0.4-2.3,0.5-4.3,0.5-4.3c1.5-0.3,3.5-1,4.2-1
					c0.5,0,1,0.5,1,0.5l-0.8,4.8l-0.7,4.4c-0.1,0.4,0,0.6,0.4,0.6c1.8,0,2.8-5.1,2.8-5.1c0.4-2.3,0.5-4.3,0.5-4.3
					c1.5-0.3,3.5-1,4.2-1c0.5,0,1,0.5,1,0.5l-0.8,4.8L-245.8,618z"/>
			</g>
		</g>
		<g>
			<path class="st6" d="M-450.5,605.6h4.8c1.1,0,1.9,0.1,2.5,0.2c0.8,0.2,1.4,0.6,1.9,1.2c0.5,0.6,0.9,1.3,1.2,2.1
				c0.3,0.8,0.4,1.8,0.4,3c0,1.1-0.1,2-0.4,2.7c-0.3,0.9-0.8,1.7-1.4,2.3c-0.5,0.4-1.1,0.8-1.8,1c-0.6,0.2-1.3,0.3-2.3,0.3h-4.9
				V605.6z M-447.9,607.8v8.5h1.9c0.7,0,1.3,0,1.6-0.1c0.4-0.1,0.8-0.3,1.1-0.5c0.3-0.3,0.5-0.7,0.7-1.2c0.2-0.6,0.3-1.4,0.3-2.4
				c0-1-0.1-1.8-0.3-2.3c-0.2-0.5-0.4-0.9-0.7-1.2c-0.3-0.3-0.7-0.5-1.2-0.6c-0.4-0.1-1.1-0.1-2.1-0.1H-447.9z"/>
			<path class="st6" d="M-432.5,615.5l2.5,0.4c-0.3,0.9-0.8,1.6-1.5,2.1c-0.7,0.5-1.5,0.7-2.6,0.7c-1.6,0-2.8-0.5-3.6-1.6
				c-0.6-0.8-0.9-1.9-0.9-3.2c0-1.5,0.4-2.8,1.2-3.6c0.8-0.9,1.8-1.3,3.1-1.3c1.4,0,2.5,0.5,3.3,1.4c0.8,0.9,1.2,2.3,1.2,4.2h-6.2
				c0,0.7,0.2,1.3,0.6,1.7c0.4,0.4,0.9,0.6,1.4,0.6c0.4,0,0.7-0.1,1-0.3C-432.8,616.3-432.6,616-432.5,615.5z M-432.3,613
				c0-0.7-0.2-1.3-0.6-1.6c-0.4-0.4-0.8-0.6-1.3-0.6c-0.5,0-1,0.2-1.3,0.6c-0.4,0.4-0.5,0.9-0.5,1.6H-432.3z"/>
			<path class="st6" d="M-429.1,615.8l2.5-0.4c0.1,0.5,0.3,0.8,0.6,1.1c0.3,0.2,0.8,0.4,1.4,0.4c0.6,0,1.1-0.1,1.4-0.4
				c0.2-0.2,0.3-0.4,0.3-0.7c0-0.2-0.1-0.3-0.2-0.5c-0.1-0.1-0.4-0.2-0.8-0.3c-2-0.4-3.3-0.8-3.8-1.2c-0.7-0.5-1.1-1.2-1.1-2.1
				c0-0.8,0.3-1.5,1-2c0.6-0.6,1.6-0.8,3-0.8c1.3,0,2.2,0.2,2.8,0.6c0.6,0.4,1,1,1.3,1.8l-2.3,0.4c-0.1-0.4-0.3-0.6-0.6-0.8
				c-0.3-0.2-0.7-0.3-1.2-0.3c-0.7,0-1.1,0.1-1.4,0.3c-0.2,0.1-0.3,0.3-0.3,0.5c0,0.2,0.1,0.3,0.2,0.4c0.2,0.2,1,0.4,2.3,0.7
				c1.3,0.3,2.2,0.7,2.8,1.1c0.5,0.4,0.8,1.1,0.8,1.8c0,0.9-0.4,1.6-1.1,2.2c-0.7,0.6-1.8,0.9-3.2,0.9c-1.3,0-2.3-0.3-3-0.8
				C-428.4,617.4-428.9,616.7-429.1,615.8z"/>
			<path class="st6" d="M-418.6,607.9v-2.3h2.5v2.3H-418.6z M-418.6,618.5v-9.3h2.5v9.3H-418.6z"/>
			<path class="st6" d="M-414.2,619.1l2.8,0.3c0,0.3,0.2,0.6,0.3,0.7c0.2,0.2,0.6,0.3,1.1,0.3c0.6,0,1.1-0.1,1.5-0.3
				c0.2-0.1,0.4-0.3,0.5-0.6c0.1-0.2,0.1-0.6,0.1-1.1V617c-0.7,1-1.7,1.5-2.8,1.5c-1.3,0-2.2-0.5-3-1.6c-0.6-0.8-0.9-1.9-0.9-3.1
				c0-1.6,0.4-2.8,1.1-3.6c0.8-0.8,1.7-1.2,2.8-1.2c1.2,0,2.1,0.5,2.9,1.5v-1.3h2.3v8.4c0,1.1-0.1,1.9-0.3,2.5
				c-0.2,0.5-0.4,1-0.8,1.3c-0.3,0.3-0.8,0.6-1.3,0.7c-0.5,0.2-1.2,0.3-2.1,0.3c-1.6,0-2.7-0.3-3.4-0.8c-0.7-0.5-1-1.2-1-2.1
				C-414.2,619.3-414.2,619.2-414.2,619.1z M-412,613.6c0,1,0.2,1.7,0.6,2.2c0.4,0.5,0.9,0.7,1.4,0.7c0.6,0,1.1-0.2,1.5-0.7
				c0.4-0.5,0.6-1.2,0.6-2.1c0-1-0.2-1.7-0.6-2.2c-0.4-0.5-0.9-0.7-1.5-0.7c-0.6,0-1.1,0.2-1.5,0.7C-411.8,612-412,612.7-412,613.6z
				"/>
			<path class="st6" d="M-394.8,618.5h-2.5v-4.8c0-1-0.1-1.7-0.2-2c-0.1-0.3-0.3-0.5-0.5-0.7c-0.2-0.2-0.5-0.2-0.9-0.2
				c-0.4,0-0.8,0.1-1.2,0.4c-0.3,0.2-0.6,0.5-0.7,0.9c-0.1,0.4-0.2,1.1-0.2,2.1v4.2h-2.5v-9.3h2.3v1.4c0.8-1.1,1.8-1.6,3.1-1.6
				c0.5,0,1,0.1,1.5,0.3c0.5,0.2,0.8,0.4,1,0.8c0.2,0.3,0.4,0.7,0.5,1c0.1,0.4,0.1,0.9,0.1,1.7V618.5z"/>
			<path class="st6" d="M-387.3,615.5l2.5,0.4c-0.3,0.9-0.8,1.6-1.5,2.1c-0.7,0.5-1.5,0.7-2.6,0.7c-1.6,0-2.8-0.5-3.6-1.6
				c-0.6-0.8-0.9-1.9-0.9-3.2c0-1.5,0.4-2.8,1.2-3.6c0.8-0.9,1.8-1.3,3.1-1.3c1.4,0,2.5,0.5,3.3,1.4c0.8,0.9,1.2,2.3,1.2,4.2h-6.2
				c0,0.7,0.2,1.3,0.6,1.7c0.4,0.4,0.9,0.6,1.4,0.6c0.4,0,0.7-0.1,1-0.3C-387.6,616.3-387.4,616-387.3,615.5z M-387.1,613
				c0-0.7-0.2-1.3-0.6-1.6c-0.4-0.4-0.8-0.6-1.3-0.6c-0.5,0-1,0.2-1.3,0.6c-0.4,0.4-0.5,0.9-0.5,1.6H-387.1z"/>
			<path class="st6" d="M-374.5,618.5h-2.3v-1.4c-0.4,0.5-0.8,0.9-1.3,1.2c-0.5,0.3-1,0.4-1.6,0.4c-1.1,0-2-0.4-2.8-1.3
				c-0.8-0.9-1.1-2.1-1.1-3.6c0-1.6,0.4-2.8,1.1-3.6c0.7-0.8,1.7-1.2,2.8-1.2c1,0,1.9,0.4,2.7,1.3v-4.6h2.5V618.5z M-381,613.6
				c0,1,0.1,1.7,0.4,2.2c0.4,0.6,1,1,1.7,1c0.6,0,1.1-0.2,1.5-0.7c0.4-0.5,0.6-1.2,0.6-2.2c0-1.1-0.2-1.8-0.6-2.3
				c-0.4-0.5-0.9-0.7-1.5-0.7c-0.6,0-1.1,0.2-1.5,0.7C-380.8,612-381,612.7-381,613.6z"/>
			<path class="st6" d="M-367.8,618.5v-12.9h2.5v4.6c0.8-0.9,1.7-1.3,2.7-1.3c1.1,0,2.1,0.4,2.8,1.2c0.7,0.8,1.1,2,1.1,3.5
				c0,1.6-0.4,2.8-1.1,3.7c-0.8,0.9-1.7,1.3-2.8,1.3c-0.5,0-1.1-0.1-1.6-0.4c-0.5-0.3-1-0.7-1.3-1.2v1.4H-367.8z M-365.4,613.6
				c0,1,0.2,1.7,0.5,2.1c0.4,0.7,1,1,1.7,1c0.5,0,1-0.2,1.4-0.7c0.4-0.5,0.6-1.2,0.6-2.2c0-1.1-0.2-1.8-0.6-2.3
				c-0.4-0.5-0.9-0.7-1.5-0.7c-0.6,0-1.1,0.2-1.5,0.7C-365.2,612-365.4,612.7-365.4,613.6z"/>
			<path class="st6" d="M-358.3,609.2h2.6l2.2,6.6l2.2-6.6h2.6l-3.3,9l-0.6,1.6c-0.2,0.5-0.4,1-0.6,1.2c-0.2,0.3-0.4,0.5-0.7,0.7
				c-0.3,0.2-0.6,0.3-0.9,0.4c-0.4,0.1-0.8,0.1-1.3,0.1c-0.5,0-0.9,0-1.4-0.1l-0.2-1.9c0.4,0.1,0.7,0.1,1,0.1c0.6,0,1-0.2,1.3-0.5
				c0.3-0.3,0.5-0.8,0.6-1.3L-358.3,609.2z"/>
		</g>
	</g>
</g>
</svg>
