<?xml version="1.0" encoding="utf-8"?>
<!-- Generator: Adobe Illustrator 19.2.1, SVG Export Plug-In . SVG Version: 6.00 Build 0)  -->
<svg version="1.1" xmlns="http://www.w3.org/2000/svg" xmlns:xlink="http://www.w3.org/1999/xlink" x="0px" y="0px"
	 viewBox="0 0 162.8 151.2" style="enable-background:new 0 0 162.8 151.2;" xml:space="preserve">
<style type="text/css">
	.st0{fill:#6CBE45;}
	.st1{fill:#726658;}
	.st2{fill:#9B8579;}
	.st3{fill:#FFFFFF;}
	.st4{fill:#ED1C24;}
	.st5{opacity:0.26;}
	.st6{fill:#3C2415;}
</style>
<g id="_x31_">
	<g>
		<path class="st0" d="M-184.1-364.7c0,0,37.8-61.9,88.4-29.7C-95.7-394.4-115.8-328.5-184.1-364.7z"/>
	</g>
	<g>
		<path class="st1" d="M6.9-277.8c0,0,55.5,39.9,94.6,36.7l37.2-33.5c0,0-60.3-1.3-88.2-19C22.7-311.3,6.9-277.8,6.9-277.8z"/>
	</g>
	<g>
		<rect x="-274.9" y="67.3" class="st2" width="209" height="21.4"/>
	</g>
	<g>
		<path class="st1" d="M441.1-155H241.4c-4,0-7.3-3.3-7.3-7.3v-199.7c0-4,3.3-7.3,7.3-7.3h199.7c4,0,7.3,3.3,7.3,7.3v199.7
			C448.4-158.3,445.1-155,441.1-155z"/>
	</g>
	<g>
		<path class="st3" d="M428.2-167.9h-174c-4,0-7.3-3.3-7.3-7.3v-174c0-4,3.3-7.3,7.3-7.3h174c4,0,7.3,3.3,7.3,7.3v174
			C435.5-171.2,432.2-167.9,428.2-167.9z"/>
	</g>
	<g>
		<path class="st1" d="M650.7,108c0,0-69.7-24.9-68.6-106.4c1.1-81.5,85.2-60.6,87.4-4.8c2.1,55.7-73.4,117.4-73.4,117.4l-4.3-10.2
			c0,0,63.3-44.4,65.4-102.9c1.6-46.1-66.5-59-64.9,3.8c1.9,74.3,67,97.5,67,97.5L650.7,108z"/>
	</g>
	<g>
		<path class="st2" d="M619.9-362.8c-30.1,0-54.5,32.9-54.5,73.6c0,40.6,24.4,73.6,54.5,73.6s54.5-32.9,54.5-73.6
			C674.4-329.8,650-362.8,619.9-362.8z M619.9-232.2c-23.4,0-42.3-25.5-42.3-57.1c0-31.5,18.9-57.1,42.3-57.1s42.3,25.5,42.3,57.1
			C662.2-257.7,643.2-232.2,619.9-232.2z"/>
	</g>
	<g>
		<path class="st1" d="M-189.7-323.7c0.8-2.4,10.5-39.4-12.9-65.1l15.5-8c0,0,26.3,30.5,11,73.2H-189.7z"/>
	</g>
	<g>
		<path class="st4" d="M-179.3-333.3c-31.2,3.5-65.9-18.5-82,36.2c-14.1,48.1,46.6,133.5,82,98.1c0,0,30.5,30.5,60.3-18.5
			S-80.4-344.6-179.3-333.3z"/>
	</g>
	<g>
		<g>
			<path class="st4" d="M108.2,78.6l-18.5,39.1L67.2,54.2L55.9,75.6H3.6c18.1,42.1,78.8,75.6,78.8,75.6s54.4-25.8,74.1-72.6H108.2z"
				/>
		</g>
		<g>
			<path class="st4" d="M47.9,64.6L68,30.1l22.5,56.3l9.6-17.7h60c1.2-4.2,2.2-8.4,2.8-12.9c8-61.1-53.9-71.6-83.6-32.2
				c0,0-39.4-56.3-74,4.8c-6.9,12.2-8,24.4-5.2,36.2H47.9z"/>
		</g>
	</g>
	<g>
		<circle class="st1" cx="619.9" cy="-243.8" r="66.7"/>
	</g>
	<g>
		<path class="st3" d="M578.9-270.2h10.8v21.3h0.2c1.1-1.9,2.2-3.6,3.3-5.3l10.9-16h13.3l-15.9,20.5l16.8,27.6h-12.7l-11.8-20.8
			l-4.1,5.1v15.7h-10.8V-270.2z"/>
		<path class="st3" d="M660.6-224.3c-3.4,1.1-9.7,2.7-16.1,2.7c-8.8,0-15.1-2.2-19.6-6.5c-4.4-4.1-6.9-10.4-6.8-17.5
			c0.1-16,11.7-25.1,27.5-25.1c6.2,0,11,1.2,13.4,2.4l-2.3,8.7c-2.6-1.1-5.9-2.1-11.2-2.1c-9.1,0-15.9,5.1-15.9,15.6
			c0,9.9,6.2,15.8,15.1,15.8c2.5,0,4.5-0.3,5.4-0.7v-10.1h-7.4v-8.5h17.9V-224.3z"/>
	</g>
	<g>
		<path class="st4" d="M596,93.9c0,0,9.6,12.3,12.3,16.6c2.7,4.3-12.9,7-12.3,8c0.5,1.1-37,41.3-52.5,28.9
			C527.9,135.1,588,103,588,103S588,96.5,596,93.9z"/>
	</g>
	<g>
		<path class="st4" d="M658.1,93.9c0,0-9.6,12.3-12.3,16.6c-2.7,4.3,12.9,7,12.3,8c-0.5,1.1,37,41.3,52.5,28.9
			c15.5-12.3-44.5-44.5-44.5-44.5S666.1,96.5,658.1,93.9z"/>
	</g>
	<g>
		<path class="st1" d="M588.8,1.9c0,0,5.7,39,37,39c31.3,0,36.2-39,36.2-39l3.9,19.5c0,0-7.8,35.2-35.2,35.2
			c-27.4,0-48.6-37-48.6-37L588.8,1.9z"/>
	</g>
	<g>
		<path class="st2" d="M411,149.8H273.3c-3.9,0-7.1-3.2-7.1-7.1V-21.5c0-3.9,3.2-7.1,7.1-7.1H411c3.9,0,7.1,3.2,7.1,7.1v164.2
			C418.1,146.6,414.9,149.8,411,149.8z"/>
	</g>
	<g>
		<rect x="283.1" y="-15.8" class="st3" width="118.2" height="152.8"/>
	</g>
	<g>
		<rect x="291.1" y="19.9" class="st1" width="80.4" height="5.4"/>
	</g>
	<g>
		<rect x="291.1" y="52" class="st1" width="80.4" height="5.4"/>
	</g>
	<g>
		<rect x="291.1" y="84.2" class="st1" width="80.4" height="5.4"/>
	</g>
	<g>
		<rect x="291.1" y="116.4" class="st1" width="80.4" height="5.4"/>
	</g>
	<g>
		<path class="st1" d="M377.1,13.7v17.7h17.7V13.7H377.1z M391.9,28.5h-11.8V16.7h11.8V28.5z"/>
	</g>
	<g>
		<path class="st1" d="M377.1,45.9v17.7h17.7V45.9H377.1z M391.9,60.6h-11.8V48.8h11.8V60.6z"/>
	</g>
	<g>
		<path class="st1" d="M377.1,78v17.7h17.7V78H377.1z M391.9,92.8h-11.8V81h11.8V92.8z"/>
	</g>
	<g>
		<path class="st1" d="M377.1,110.2v17.7h17.7v-17.7H377.1z M391.9,124.9h-11.8v-11.8h11.8V124.9z"/>
	</g>
	<g>
		<polygon class="st4" points="380.7,19 386.3,27.3 398,13.1 386.9,22.8 		"/>
	</g>
	<g>
		<polygon class="st4" points="380.7,51.8 386.3,60 398,45.9 386.9,55.5 		"/>
	</g>
	<g>
		<path class="st1" d="M377.5-8.5h-70.7c-1.8,0-3.2-1.4-3.2-3.2v-19.4c0-1.8,1.4-3.2,3.2-3.2h70.7c1.8,0,3.2,1.4,3.2,3.2v19.4
			C380.7-9.9,379.3-8.5,377.5-8.5z"/>
	</g>
	<g>
		<path class="st4" d="M341.2-338.9c-34,0-61.6,27.6-61.6,61.6h47.2c0-8,6.5-14.5,14.5-14.5c8,0,14.5,6.5,14.5,14.5h47.2
			C402.8-311.3,375.3-338.9,341.2-338.9z"/>
	</g>
	<g>
		<polygon class="st3" points="358.1,-286.9 385.8,-310.2 354.1,-291.7 		"/>
	</g>
	<g>
		<path class="st1" d="M344.3-160.7h-6.1c-0.8,0-1.4-0.6-1.4-1.4v-80.1c0-0.8,0.6-1.4,1.4-1.4h6.1c0.8,0,1.4,0.6,1.4,1.4v80.1
			C345.6-161.3,345-160.7,344.3-160.7z"/>
	</g>
	<g>
		<path class="st1" d="M-213.7,121.5h-25.5c-3.2,0-5.8-2.6-5.8-5.8V40.4c0-3.2,2.6-5.8,5.8-5.8h25.5c3.2,0,5.8,2.6,5.8,5.8v75.3
			C-207.9,118.9-210.5,121.5-213.7,121.5z"/>
	</g>
	<g>
		<path class="st1" d="M-252.6,102.2h-12c-1.5,0-2.7-1.2-2.7-2.7V56.6c0-1.5,1.2-2.7,2.7-2.7h12c1.5,0,2.7,1.2,2.7,2.7v42.8
			C-249.9,100.9-251.1,102.2-252.6,102.2z"/>
	</g>
	<g>
		<path class="st1" d="M-127,121.5h25.5c3.2,0,5.8-2.6,5.8-5.8V40.4c0-3.2-2.6-5.8-5.8-5.8H-127c-3.2,0-5.7,2.6-5.7,5.8v75.3
			C-132.8,118.9-130.2,121.5-127,121.5z"/>
	</g>
	<g>
		<path class="st1" d="M-88.1,102.2h12c1.5,0,2.7-1.2,2.7-2.7V56.6c0-1.5-1.2-2.7-2.7-2.7h-12c-1.5,0-2.7,1.2-2.7,2.7v42.8
			C-90.8,100.9-89.6,102.2-88.1,102.2z"/>
	</g>
	<g>
		<path class="st2" d="M138.7-371.1l25.7,26.5c0,0-59.5,58.7-157.6,66.7v-37.8C6.9-315.6,68-313.2,138.7-371.1z"/>
	</g>
	<g>
		<path class="st3" d="M20.9-283.5c-0.9,0-1.6-0.7-1.6-1.5l-0.4-9.2c0-0.9,0.7-1.6,1.5-1.7c0.9,0,1.6,0.7,1.7,1.5l0.4,9.2
			C22.6-284.3,21.9-283.5,20.9-283.5C21-283.5,20.9-283.5,20.9-283.5z"/>
	</g>
	<g>
		<path class="st3" d="M45-289.5c-0.7,0-1.4-0.5-1.5-1.2l-2.4-8.8c-0.2-0.9,0.3-1.7,1.1-2c0.8-0.2,1.7,0.3,2,1.1l2.4,8.8
			c0.2,0.9-0.3,1.7-1.1,2C45.3-289.5,45.2-289.5,45-289.5z"/>
	</g>
	<g>
		<path class="st3" d="M71.6-298.7c-0.6,0-1.2-0.3-1.5-0.9l-4-8.4c-0.4-0.8,0-1.8,0.8-2.1c0.8-0.4,1.8,0,2.1,0.8l4,8.4
			c0.4,0.8,0,1.8-0.8,2.1C72-298.8,71.8-298.7,71.6-298.7z"/>
	</g>
	<g>
		<path class="st3" d="M94.9-307.6c-0.6,0-1.1-0.3-1.4-0.8l-4.4-8c-0.4-0.8-0.1-1.8,0.6-2.2c0.8-0.4,1.8-0.1,2.2,0.6l4.4,8
			c0.4,0.8,0.1,1.8-0.6,2.2C95.4-307.6,95.1-307.6,94.9-307.6z"/>
	</g>
	<g>
		<path class="st3" d="M115.4-318.4c-0.5,0-1-0.2-1.3-0.6l-5.2-6.8c-0.5-0.7-0.4-1.7,0.3-2.3c0.7-0.5,1.7-0.4,2.3,0.3l5.2,6.8
			c0.5,0.7,0.4,1.7-0.3,2.3C116.1-318.5,115.7-318.4,115.4-318.4z"/>
	</g>
	<g>
		<path class="st3" d="M135.5-330.5c-0.4,0-0.8-0.1-1.1-0.4l-6.4-6c-0.6-0.6-0.7-1.6-0.1-2.3c0.6-0.7,1.6-0.7,2.3-0.1l6.4,6
			c0.6,0.6,0.7,1.6,0.1,2.3C136.3-330.7,135.9-330.5,135.5-330.5z"/>
	</g>
	<g>
		<path class="st3" d="M152.8-341.7c-0.4,0-0.8-0.1-1.1-0.4l-9.2-8c-0.7-0.6-0.7-1.6-0.2-2.3c0.6-0.7,1.6-0.7,2.3-0.2l9.2,8
			c0.7,0.6,0.7,1.6,0.2,2.3C153.7-341.9,153.2-341.7,152.8-341.7z"/>
	</g>
	<g>
		<path class="st2" d="M138.7-274.6l25.7,26.5c0,0-59.5,58.7-157.6,66.7v-37.8C6.9-219.1,68-216.7,138.7-274.6z"/>
	</g>
	<g>
		<path class="st3" d="M20.9-187c-0.9,0-1.6-0.7-1.6-1.5l-0.4-9.2c0-0.9,0.7-1.6,1.5-1.7c0.9,0,1.6,0.6,1.7,1.5l0.4,9.2
			C22.6-187.8,21.9-187,20.9-187C21-187,20.9-187,20.9-187z"/>
	</g>
	<g>
		<path class="st3" d="M45-193c-0.7,0-1.4-0.5-1.5-1.2l-2.4-8.8c-0.2-0.9,0.3-1.7,1.1-2c0.8-0.2,1.7,0.3,2,1.1l2.4,8.8
			c0.2,0.9-0.3,1.7-1.1,2C45.3-193,45.2-193,45-193z"/>
	</g>
	<g>
		<path class="st3" d="M71.6-202.3c-0.6,0-1.2-0.3-1.5-0.9l-4-8.4c-0.4-0.8,0-1.8,0.8-2.1c0.8-0.4,1.8,0,2.1,0.8l4,8.4
			c0.4,0.8,0,1.8-0.8,2.1C72-202.3,71.8-202.3,71.6-202.3z"/>
	</g>
	<g>
		<path class="st3" d="M94.9-211.1c-0.6,0-1.1-0.3-1.4-0.8l-4.4-8c-0.4-0.8-0.1-1.8,0.6-2.2c0.8-0.4,1.8-0.1,2.2,0.6l4.4,8
			c0.4,0.8,0.1,1.8-0.6,2.2C95.4-211.2,95.1-211.1,94.9-211.1z"/>
	</g>
	<g>
		<path class="st3" d="M115.4-222c-0.5,0-1-0.2-1.3-0.6l-5.2-6.8c-0.5-0.7-0.4-1.7,0.3-2.3c0.7-0.5,1.7-0.4,2.3,0.3l5.2,6.8
			c0.5,0.7,0.4,1.7-0.3,2.3C116.1-222.1,115.7-222,115.4-222z"/>
	</g>
	<g>
		<path class="st3" d="M135.5-234c-0.4,0-0.8-0.1-1.1-0.4l-6.4-6c-0.6-0.6-0.7-1.6-0.1-2.3c0.6-0.6,1.6-0.7,2.3-0.1l6.4,6
			c0.6,0.6,0.7,1.6,0.1,2.3C136.3-234.2,135.9-234,135.5-234z"/>
	</g>
	<g>
		<path class="st3" d="M152.8-245.3c-0.4,0-0.8-0.1-1.1-0.4l-9.2-8c-0.7-0.6-0.7-1.6-0.2-2.3c0.6-0.7,1.6-0.7,2.3-0.2l9.2,8
			c0.7,0.6,0.7,1.6,0.2,2.3C153.7-245.5,153.2-245.3,152.8-245.3z"/>
	</g>
</g>
<g id="Designed_by_Vecteezy">
	<g class="st5">
		<g>
			<g>
				<path class="st6" d="M226.6,236.7c0.5,0,1,0.5,1,0.5l-8.9,19c-1,0-3.3,0.1-3.9,0.1c-0.5,0-1-0.5-1-0.5l-3-19
					c1.8,0,4.2-0.1,4.8-0.1c0.5,0,1,0.5,1,0.5l0.9,9.3c0.1,0.8,0.1,1.9,0.1,3.1c0.3-1.3,0.6-2.5,1-3.3l3.7-9.4
					C223.9,236.8,226,236.7,226.6,236.7L226.6,236.7z"/>
			</g>
			<g>
				<path class="st6" d="M235.8,246c0,2.1-1.2,3.4-4,4l-3,0.6c0.2,1.3,1.1,1.9,2.4,1.9c1.7,0,2.8-1.3,2.8-1.3s0.8,0.5,0.8,1.4
					c0,1.7-2.6,3.6-5.7,3.6c-3.1,0-5.2-2-5.2-5.3c0-3.8,2.7-9.1,7.6-9.1C234.1,242,235.8,243.6,235.8,246L235.8,246z M230.7,248
					c0.6-0.2,0.8-0.7,0.8-1.3c0-0.6-0.2-1.4-0.9-1.4c-1.2,0-1.7,1.9-1.9,3.4L230.7,248z"/>
			</g>
			<g>
				<path class="st6" d="M243.9,242c2.4,0,4.3,1.3,4.3,3c0,2.1-2.6,2.9-2.6,2.9s-0.7-2.3-2.5-2.3c-1.2,0-1.8,1.2-1.8,3.7
					c0,2.3,0.6,3.3,2.1,3.3c1.5,0,2.5-1,2.5-1s0.9,0.5,0.9,1.4c0,1.7-2.5,3.4-5.5,3.4c-3.2,0-5.1-2-5.1-5.3
					C236.2,247.3,239,242,243.9,242L243.9,242z"/>
			</g>
			<g>
				<path class="st6" d="M255.7,239c0.6,0,1,0.5,1,0.5l-0.5,2.9h3.1l-0.7,2.2c-0.2,0.7-0.6,1.1-1.3,1.1h-1.6l-0.9,5.7
					c-0.1,0.9,0.1,1.3,0.7,1.3c0.6,0,1.1-0.3,1.1-0.3s0.9,0.5,0.9,1.4c0,1.4-2,2.8-4.5,2.8c-2.6,0-3.7-1.6-3.3-4.5l1-6.3H249
					l0.7-2.3c0.2-0.6,0.7-1,1.3-1h0.8l1-2.7C254,239.4,255.1,239,255.7,239L255.7,239z"/>
			</g>
			<g>
				<path class="st6" d="M270.6,246c0,2.1-1.2,3.4-4,4l-3,0.6c0.2,1.3,1.1,1.9,2.4,1.9c1.7,0,2.8-1.3,2.8-1.3s0.9,0.5,0.9,1.4
					c0,1.7-2.6,3.6-5.7,3.6c-3.1,0-5.2-2-5.2-5.3c0-3.8,2.7-9.1,7.6-9.1C268.9,242,270.6,243.6,270.6,246L270.6,246z M265.5,248
					c0.6-0.2,0.8-0.7,0.8-1.3c0-0.6-0.2-1.4-0.9-1.4c-1.2,0-1.7,1.9-1.9,3.4L265.5,248z"/>
			</g>
			<g>
				<path class="st6" d="M282.9,246c0,2.1-1.2,3.4-4,4l-3,0.6c0.2,1.3,1.1,1.9,2.4,1.9c1.7,0,2.8-1.3,2.8-1.3s0.9,0.5,0.9,1.4
					c0,1.7-2.6,3.6-5.7,3.6c-3.1,0-5.2-2-5.2-5.3c0-3.8,2.7-9.1,7.6-9.1C281.3,242,282.9,243.6,282.9,246L282.9,246z M277.8,248
					c0.6-0.2,0.8-0.7,0.8-1.3c0-0.6-0.2-1.4-0.9-1.4c-1.2,0-1.7,1.9-1.9,3.4L277.8,248z"/>
			</g>
			<g>
				<path class="st6" d="M293,251.2c0,0,1,1,1,2.5c0,2.1-1.8,2.7-3.3,2.7c-2,0-3.4-0.9-4.9-1.4c-0.4,0.5-0.8,1-1.2,1.4
					c0,0-2.2-0.1-2.2-1.6c0-1.8,3.1-5,6.4-8.5c-0.4-0.1-0.7-0.1-1.1-0.1c-1.9,0-2.6,0.9-2.6,0.9s-1-1.1-0.9-2.5c0.1-2,2-2.5,3.5-2.5
					c1.6,0,2.7,0.6,3.9,1.1l0.9-1.1c0,0,2.2,0.1,2.2,1.6c0,1.8-3,4.9-6.2,8.3c0.7,0.2,1.3,0.3,1.9,0.3
					C292.3,252.3,293,251.2,293,251.2L293,251.2z"/>
			</g>
			<g>
				<path class="st6" d="M307.4,255.2c-0.8,4.8-4.1,7.3-8.3,7.3c-2.7,0-4.7-1.4-4.7-3c0-1.1,0.9-1.6,0.9-1.6s0.9,0.8,2.7,0.8
					c1.7,0,4-0.7,4.4-3.3l0.3-2c-1.1,1.6-2.6,3-4.5,3c-2.1,0-3.1-1.7-2.5-5.3l0.6-3.8c0.4-2.3,0.5-4.3,0.5-4.3c1.5-0.3,3.5-1,4.2-1
					c0.5,0,1,0.5,1,0.5l-0.8,4.8l-0.7,4.4c-0.1,0.4,0,0.6,0.4,0.6c1.8,0,2.8-5.1,2.8-5.1c0.4-2.3,0.5-4.3,0.5-4.3
					c1.5-0.3,3.5-1,4.2-1c0.5,0,1,0.5,1,0.5l-0.8,4.8L307.4,255.2z"/>
			</g>
		</g>
		<g>
			<path class="st6" d="M102.6,242.8h4.8c1.1,0,1.9,0.1,2.5,0.2c0.8,0.2,1.4,0.6,1.9,1.2c0.5,0.6,0.9,1.3,1.2,2.1
				c0.3,0.8,0.4,1.8,0.4,3c0,1.1-0.1,2-0.4,2.7c-0.3,0.9-0.8,1.7-1.4,2.3c-0.5,0.4-1.1,0.8-1.8,1c-0.6,0.2-1.3,0.3-2.3,0.3h-4.9
				V242.8z M105.2,245v8.5h1.9c0.7,0,1.3,0,1.6-0.1c0.4-0.1,0.8-0.3,1.1-0.5c0.3-0.3,0.5-0.7,0.7-1.2c0.2-0.6,0.3-1.4,0.3-2.4
				c0-1-0.1-1.8-0.3-2.3c-0.2-0.5-0.4-0.9-0.7-1.2c-0.3-0.3-0.7-0.5-1.2-0.6c-0.4-0.1-1.1-0.1-2.1-0.1H105.2z"/>
			<path class="st6" d="M120.7,252.7l2.5,0.4c-0.3,0.9-0.8,1.6-1.5,2.1c-0.7,0.5-1.5,0.7-2.6,0.7c-1.6,0-2.8-0.5-3.6-1.6
				c-0.6-0.8-0.9-1.9-0.9-3.2c0-1.5,0.4-2.8,1.2-3.6c0.8-0.9,1.8-1.3,3.1-1.3c1.4,0,2.5,0.5,3.3,1.4c0.8,0.9,1.2,2.3,1.2,4.2h-6.2
				c0,0.7,0.2,1.3,0.6,1.7c0.4,0.4,0.9,0.6,1.4,0.6c0.4,0,0.7-0.1,1-0.3C120.3,253.5,120.5,253.2,120.7,252.7z M120.8,250.2
				c0-0.7-0.2-1.3-0.6-1.6c-0.4-0.4-0.8-0.6-1.3-0.6c-0.5,0-1,0.2-1.3,0.6c-0.4,0.4-0.5,0.9-0.5,1.6H120.8z"/>
			<path class="st6" d="M124,253l2.5-0.4c0.1,0.5,0.3,0.8,0.6,1.1c0.3,0.2,0.8,0.4,1.4,0.4c0.6,0,1.1-0.1,1.4-0.4
				c0.2-0.2,0.3-0.4,0.3-0.7c0-0.2-0.1-0.3-0.2-0.5c-0.1-0.1-0.4-0.2-0.8-0.3c-2-0.4-3.3-0.8-3.8-1.2c-0.7-0.5-1.1-1.2-1.1-2.1
				c0-0.8,0.3-1.5,1-2c0.6-0.6,1.6-0.8,3-0.8c1.3,0,2.2,0.2,2.8,0.6c0.6,0.4,1,1,1.3,1.8l-2.3,0.4c-0.1-0.4-0.3-0.6-0.6-0.8
				c-0.3-0.2-0.7-0.3-1.2-0.3c-0.7,0-1.1,0.1-1.4,0.3c-0.2,0.1-0.3,0.3-0.3,0.5c0,0.2,0.1,0.3,0.2,0.4c0.2,0.2,1,0.4,2.3,0.7
				c1.3,0.3,2.2,0.7,2.8,1.1c0.5,0.4,0.8,1.1,0.8,1.8c0,0.9-0.4,1.6-1.1,2.2c-0.7,0.6-1.8,0.9-3.2,0.9c-1.3,0-2.3-0.3-3-0.8
				C124.7,254.6,124.3,253.9,124,253z"/>
			<path class="st6" d="M134.5,245.1v-2.3h2.5v2.3H134.5z M134.5,255.7v-9.3h2.5v9.3H134.5z"/>
			<path class="st6" d="M139,256.3l2.8,0.3c0,0.3,0.2,0.6,0.3,0.7c0.2,0.2,0.6,0.3,1.1,0.3c0.6,0,1.1-0.1,1.5-0.3
				c0.2-0.1,0.4-0.3,0.5-0.6c0.1-0.2,0.1-0.6,0.1-1.1v-1.4c-0.7,1-1.7,1.5-2.8,1.5c-1.3,0-2.2-0.5-3-1.6c-0.6-0.8-0.9-1.9-0.9-3.1
				c0-1.6,0.4-2.8,1.1-3.6c0.8-0.8,1.7-1.2,2.8-1.2c1.2,0,2.1,0.5,2.9,1.5v-1.3h2.3v8.4c0,1.1-0.1,1.9-0.3,2.5
				c-0.2,0.5-0.4,1-0.8,1.3c-0.3,0.3-0.8,0.6-1.3,0.7c-0.5,0.2-1.2,0.3-2.1,0.3c-1.6,0-2.7-0.3-3.4-0.8c-0.7-0.5-1-1.2-1-2.1
				C139,256.5,139,256.4,139,256.3z M141.2,250.8c0,1,0.2,1.7,0.6,2.2c0.4,0.5,0.9,0.7,1.4,0.7c0.6,0,1.1-0.2,1.5-0.7
				c0.4-0.5,0.6-1.2,0.6-2.1c0-1-0.2-1.7-0.6-2.2c-0.4-0.5-0.9-0.7-1.5-0.7c-0.6,0-1.1,0.2-1.5,0.7
				C141.4,249.2,141.2,249.9,141.2,250.8z"/>
			<path class="st6" d="M158.3,255.7h-2.5v-4.8c0-1-0.1-1.7-0.2-2c-0.1-0.3-0.3-0.5-0.5-0.7c-0.2-0.2-0.5-0.2-0.9-0.2
				c-0.4,0-0.8,0.1-1.2,0.4c-0.3,0.2-0.6,0.5-0.7,0.9c-0.1,0.4-0.2,1.1-0.2,2.1v4.2h-2.5v-9.3h2.3v1.4c0.8-1.1,1.8-1.6,3.1-1.6
				c0.5,0,1,0.1,1.5,0.3c0.5,0.2,0.8,0.4,1,0.8c0.2,0.3,0.4,0.7,0.5,1c0.1,0.4,0.1,0.9,0.1,1.7V255.7z"/>
			<path class="st6" d="M165.9,252.7l2.5,0.4c-0.3,0.9-0.8,1.6-1.5,2.1c-0.7,0.5-1.5,0.7-2.6,0.7c-1.6,0-2.8-0.5-3.6-1.6
				c-0.6-0.8-0.9-1.9-0.9-3.2c0-1.5,0.4-2.8,1.2-3.6c0.8-0.9,1.8-1.3,3.1-1.3c1.4,0,2.5,0.5,3.3,1.4c0.8,0.9,1.2,2.3,1.2,4.2h-6.2
				c0,0.7,0.2,1.3,0.6,1.7c0.4,0.4,0.9,0.6,1.4,0.6c0.4,0,0.7-0.1,1-0.3C165.5,253.5,165.7,253.2,165.9,252.7z M166,250.2
				c0-0.7-0.2-1.3-0.6-1.6c-0.4-0.4-0.8-0.6-1.3-0.6c-0.5,0-1,0.2-1.3,0.6c-0.4,0.4-0.5,0.9-0.5,1.6H166z"/>
			<path class="st6" d="M178.7,255.7h-2.3v-1.4c-0.4,0.5-0.8,0.9-1.3,1.2c-0.5,0.3-1,0.4-1.6,0.4c-1.1,0-2-0.4-2.8-1.3
				c-0.8-0.9-1.1-2.1-1.1-3.6c0-1.6,0.4-2.8,1.1-3.6c0.7-0.8,1.7-1.2,2.8-1.2c1,0,1.9,0.4,2.7,1.3v-4.6h2.5V255.7z M172.1,250.8
				c0,1,0.1,1.7,0.4,2.2c0.4,0.6,1,1,1.7,1c0.6,0,1.1-0.2,1.5-0.7c0.4-0.5,0.6-1.2,0.6-2.2c0-1.1-0.2-1.8-0.6-2.3
				c-0.4-0.5-0.9-0.7-1.5-0.7c-0.6,0-1.1,0.2-1.5,0.7C172.3,249.2,172.1,249.9,172.1,250.8z"/>
			<path class="st6" d="M185.3,255.7v-12.9h2.5v4.6c0.8-0.9,1.7-1.3,2.7-1.3c1.1,0,2.1,0.4,2.8,1.2c0.7,0.8,1.1,2,1.1,3.5
				c0,1.6-0.4,2.8-1.1,3.7c-0.8,0.9-1.7,1.3-2.8,1.3c-0.5,0-1.1-0.1-1.6-0.4c-0.5-0.3-1-0.7-1.3-1.2v1.4H185.3z M187.7,250.8
				c0,1,0.2,1.7,0.5,2.1c0.4,0.7,1,1,1.7,1c0.5,0,1-0.2,1.4-0.7c0.4-0.5,0.6-1.2,0.6-2.2c0-1.1-0.2-1.8-0.6-2.3
				c-0.4-0.5-0.9-0.7-1.5-0.7c-0.6,0-1.1,0.2-1.5,0.7C187.9,249.2,187.7,249.9,187.7,250.8z"/>
			<path class="st6" d="M194.9,246.4h2.6l2.2,6.6l2.2-6.6h2.6l-3.3,9l-0.6,1.6c-0.2,0.5-0.4,1-0.6,1.2c-0.2,0.3-0.4,0.5-0.7,0.7
				c-0.3,0.2-0.6,0.3-0.9,0.4c-0.4,0.1-0.8,0.1-1.3,0.1c-0.5,0-0.9,0-1.4-0.1l-0.2-1.9c0.4,0.1,0.7,0.1,1,0.1c0.6,0,1-0.2,1.3-0.5
				c0.3-0.3,0.5-0.8,0.6-1.3L194.9,246.4z"/>
		</g>
	</g>
</g>
</svg>
