<?xml version="1.0" encoding="utf-8"?>
<!-- Generator: Adobe Illustrator 19.2.1, SVG Export Plug-In . SVG Version: 6.00 Build 0)  -->
<svg version="1.1" xmlns="http://www.w3.org/2000/svg" xmlns:xlink="http://www.w3.org/1999/xlink" x="0px" y="0px"
	 viewBox="0 0 214.4 214.4" style="enable-background:new 0 0 214.4 214.4;" xml:space="preserve">
<style type="text/css">
	.st0{fill:#6CBE45;}
	.st1{fill:#726658;}
	.st2{fill:#9B8579;}
	.st3{fill:#FFFFFF;}
	.st4{fill:#ED1C24;}
	.st5{opacity:0.26;}
	.st6{fill:#3C2415;}
</style>
<g id="_x31_">
	<g>
		<path class="st0" d="M-418.1,4.8c0,0,37.8-61.9,88.4-29.7C-329.7-25-349.8,40.9-418.1,4.8z"/>
	</g>
	<g>
		<path class="st1" d="M-227.2,91.6c0,0,55.5,39.9,94.6,36.7l37.2-33.5c0,0-60.3-1.3-88.2-19S-227.2,91.6-227.2,91.6z"/>
	</g>
	<g>
		<rect x="-509" y="436.7" class="st2" width="209" height="21.4"/>
	</g>
	<g>
		<path class="st1" d="M207,214.4H7.3c-4,0-7.3-3.3-7.3-7.3V7.3C0,3.3,3.3,0,7.3,0H207c4,0,7.3,3.3,7.3,7.3V207
			C214.4,211.1,211.1,214.4,207,214.4z"/>
	</g>
	<g>
		<path class="st3" d="M194.2,201.5h-174c-4,0-7.3-3.3-7.3-7.3v-174c0-4,3.3-7.3,7.3-7.3h174c4,0,7.3,3.3,7.3,7.3v174
			C201.5,198.2,198.2,201.5,194.2,201.5z"/>
	</g>
	<g>
		<path class="st1" d="M416.6,477.4c0,0-69.7-24.9-68.6-106.4c1.1-81.5,85.2-60.6,87.4-4.8C437.5,422,362,483.6,362,483.6l-4.3-10.2
			c0,0,63.3-44.4,65.4-102.9c1.6-46.1-66.5-59-64.9,3.8c1.9,74.3,67,97.5,67,97.5L416.6,477.4z"/>
	</g>
	<g>
		<path class="st2" d="M385.8,6.6c-30.1,0-54.5,32.9-54.5,73.6c0,40.6,24.4,73.6,54.5,73.6s54.5-32.9,54.5-73.6
			C440.4,39.6,416,6.6,385.8,6.6z M385.8,137.2c-23.4,0-42.3-25.5-42.3-57.1c0-31.5,18.9-57.1,42.3-57.1s42.3,25.5,42.3,57.1
			C428.1,111.7,409.2,137.2,385.8,137.2z"/>
	</g>
	<g>
		<path class="st1" d="M-423.7,45.8c0.8-2.4,10.5-39.4-12.9-65.1l15.5-8c0,0,26.3,30.5,11,73.2H-423.7z"/>
	</g>
	<g>
		<path class="st4" d="M-413.3,36.1c-31.2,3.5-65.9-18.5-82,36.2c-14.1,48.1,46.6,133.5,82,98.1c0,0,30.5,30.5,60.3-18.5
			S-314.4,24.9-413.3,36.1z"/>
	</g>
	<g>
		<g>
			<path class="st4" d="M-125.9,448.1l-18.5,39.1l-22.5-63.5l-11.3,21.4h-52.3c18.1,42.1,78.8,75.6,78.8,75.6s54.4-25.8,74.1-72.6
				H-125.9z"/>
		</g>
		<g>
			<path class="st4" d="M-186.2,434.1l20.1-34.6l22.5,56.3l9.6-17.7h60c1.2-4.2,2.2-8.4,2.8-12.9c8-61.1-53.9-71.6-83.6-32.2
				c0,0-39.4-56.3-74,4.8c-6.9,12.2-8,24.4-5.2,36.2H-186.2z"/>
		</g>
	</g>
	<g>
		<circle class="st1" cx="385.8" cy="125.6" r="66.7"/>
	</g>
	<g>
		<path class="st3" d="M344.9,99.2h10.8v21.3h0.2c1.1-1.9,2.2-3.6,3.3-5.3l10.9-16h13.3l-15.9,20.5l16.8,27.6h-12.7l-11.8-20.8
			l-4.1,5.1v15.7h-10.8V99.2z"/>
		<path class="st3" d="M426.6,145.1c-3.4,1.1-9.7,2.7-16.1,2.7c-8.8,0-15.1-2.2-19.6-6.5c-4.4-4.1-6.9-10.4-6.8-17.5
			c0.1-16,11.7-25.1,27.5-25.1c6.2,0,11,1.2,13.4,2.4l-2.3,8.7c-2.6-1.1-5.9-2.1-11.2-2.1c-9.1,0-15.9,5.1-15.9,15.6
			c0,9.9,6.2,15.8,15.1,15.8c2.5,0,4.5-0.3,5.4-0.7v-10.1h-7.4v-8.5h17.9V145.1z"/>
	</g>
	<g>
		<path class="st4" d="M362,463.3c0,0,9.6,12.3,12.3,16.6c2.7,4.3-12.9,7-12.3,8c0.5,1.1-37,41.3-52.5,28.9
			c-15.5-12.3,44.5-44.5,44.5-44.5S353.9,465.9,362,463.3z"/>
	</g>
	<g>
		<path class="st4" d="M424,463.3c0,0-9.6,12.3-12.3,16.6c-2.7,4.3,12.9,7,12.3,8c-0.5,1.1,37,41.3,52.5,28.9
			c15.5-12.3-44.5-44.5-44.5-44.5S432.1,465.9,424,463.3z"/>
	</g>
	<g>
		<path class="st1" d="M354.7,371.3c0,0,5.7,39,37,39s36.2-39,36.2-39l3.9,19.5c0,0-7.8,35.2-35.2,35.2c-27.4,0-48.6-37-48.6-37
			L354.7,371.3z"/>
	</g>
	<g>
		<path class="st2" d="M177,519.2H39.3c-3.9,0-7.1-3.2-7.1-7.1V347.9c0-3.9,3.2-7.1,7.1-7.1H177c3.9,0,7.1,3.2,7.1,7.1v164.2
			C184.1,516,180.9,519.2,177,519.2z"/>
	</g>
	<g>
		<rect x="49" y="353.6" class="st3" width="118.2" height="152.8"/>
	</g>
	<g>
		<rect x="57.1" y="389.3" class="st1" width="80.4" height="5.4"/>
	</g>
	<g>
		<rect x="57.1" y="421.5" class="st1" width="80.4" height="5.4"/>
	</g>
	<g>
		<rect x="57.1" y="453.6" class="st1" width="80.4" height="5.4"/>
	</g>
	<g>
		<rect x="57.1" y="485.8" class="st1" width="80.4" height="5.4"/>
	</g>
	<g>
		<path class="st1" d="M143.1,383.1v17.7h17.7v-17.7H143.1z M157.8,397.9H146v-11.8h11.8V397.9z"/>
	</g>
	<g>
		<path class="st1" d="M143.1,415.3V433h17.7v-17.7H143.1z M157.8,430H146v-11.8h11.8V430z"/>
	</g>
	<g>
		<path class="st1" d="M143.1,447.5v17.7h17.7v-17.7H143.1z M157.8,462.2H146v-11.8h11.8V462.2z"/>
	</g>
	<g>
		<path class="st1" d="M143.1,479.6v17.7h17.7v-17.7H143.1z M157.8,494.4H146v-11.8h11.8V494.4z"/>
	</g>
	<g>
		<polygon class="st4" points="146.7,388.4 152.3,396.7 164,382.5 152.8,392.2 		"/>
	</g>
	<g>
		<polygon class="st4" points="146.7,421.2 152.3,429.5 164,415.3 152.8,424.9 		"/>
	</g>
	<g>
		<path class="st1" d="M143.5,360.9H72.8c-1.8,0-3.2-1.4-3.2-3.2v-19.4c0-1.8,1.4-3.2,3.2-3.2h70.7c1.8,0,3.2,1.4,3.2,3.2v19.4
			C146.7,359.5,145.2,360.9,143.5,360.9z"/>
	</g>
	<g>
		<path class="st4" d="M107.2,30.5c-34,0-61.6,27.6-61.6,61.6h47.2c0-8,6.5-14.5,14.5-14.5c8,0,14.5,6.5,14.5,14.5h47.2
			C168.8,58.1,141.2,30.5,107.2,30.5z"/>
	</g>
	<g>
		<polygon class="st3" points="124.1,82.5 151.8,59.2 120.1,77.7 		"/>
	</g>
	<g>
		<path class="st1" d="M110.2,208.8h-6.1c-0.8,0-1.4-0.6-1.4-1.4v-80.1c0-0.8,0.6-1.4,1.4-1.4h6.1c0.8,0,1.4,0.6,1.4,1.4v80.1
			C111.6,208.1,111,208.8,110.2,208.8z"/>
	</g>
	<g>
		<path class="st1" d="M-447.7,490.9h-25.5c-3.2,0-5.8-2.6-5.8-5.8v-75.3c0-3.2,2.6-5.8,5.8-5.8h25.5c3.2,0,5.8,2.6,5.8,5.8v75.3
			C-442,488.3-444.5,490.9-447.7,490.9z"/>
	</g>
	<g>
		<path class="st1" d="M-486.6,471.6h-12c-1.5,0-2.7-1.2-2.7-2.7V426c0-1.5,1.2-2.7,2.7-2.7h12c1.5,0,2.7,1.2,2.7,2.7v42.8
			C-483.9,470.4-485.1,471.6-486.6,471.6z"/>
	</g>
	<g>
		<path class="st1" d="M-361,490.9h25.5c3.2,0,5.8-2.6,5.8-5.8v-75.3c0-3.2-2.6-5.8-5.8-5.8H-361c-3.2,0-5.7,2.6-5.7,5.8v75.3
			C-366.8,488.3-364.2,490.9-361,490.9z"/>
	</g>
	<g>
		<path class="st1" d="M-322.1,471.6h12c1.5,0,2.7-1.2,2.7-2.7V426c0-1.5-1.2-2.7-2.7-2.7h-12c-1.5,0-2.7,1.2-2.7,2.7v42.8
			C-324.9,470.4-323.6,471.6-322.1,471.6z"/>
	</g>
	<g>
		<path class="st2" d="M-95.3-1.7l25.7,26.5c0,0-59.5,58.7-157.6,66.7V53.8C-227.2,53.8-166.1,56.2-95.3-1.7z"/>
	</g>
	<g>
		<path class="st3" d="M-213.1,86c-0.9,0-1.6-0.7-1.6-1.5l-0.4-9.2c0-0.9,0.7-1.6,1.5-1.7c0.9,0,1.6,0.7,1.7,1.5l0.4,9.2
			C-211.5,85.2-212.1,85.9-213.1,86C-213.1,86-213.1,86-213.1,86z"/>
	</g>
	<g>
		<path class="st3" d="M-189,79.9c-0.7,0-1.4-0.5-1.5-1.2l-2.4-8.8c-0.2-0.9,0.3-1.7,1.1-2c0.8-0.2,1.7,0.3,2,1.1l2.4,8.8
			c0.2,0.9-0.3,1.7-1.1,2C-188.7,79.9-188.8,79.9-189,79.9z"/>
	</g>
	<g>
		<path class="st3" d="M-162.4,70.7c-0.6,0-1.2-0.3-1.5-0.9l-4-8.4c-0.4-0.8,0-1.8,0.8-2.1c0.8-0.4,1.8,0,2.1,0.8l4,8.4
			c0.4,0.8,0,1.8-0.8,2.1C-162,70.6-162.2,70.7-162.4,70.7z"/>
	</g>
	<g>
		<path class="st3" d="M-139.1,61.8c-0.6,0-1.1-0.3-1.4-0.8l-4.4-8c-0.4-0.8-0.1-1.8,0.6-2.2c0.8-0.4,1.8-0.1,2.2,0.6l4.4,8
			c0.4,0.8,0.1,1.8-0.6,2.2C-138.6,61.8-138.9,61.8-139.1,61.8z"/>
	</g>
	<g>
		<path class="st3" d="M-118.6,51c-0.5,0-1-0.2-1.3-0.6l-5.2-6.8c-0.5-0.7-0.4-1.7,0.3-2.3c0.7-0.5,1.7-0.4,2.3,0.3l5.2,6.8
			c0.5,0.7,0.4,1.7-0.3,2.3C-118,50.9-118.3,51-118.6,51z"/>
	</g>
	<g>
		<path class="st3" d="M-98.5,38.9c-0.4,0-0.8-0.1-1.1-0.4l-6.4-6c-0.6-0.6-0.7-1.6-0.1-2.3c0.6-0.7,1.6-0.7,2.3-0.1l6.4,6
			c0.6,0.6,0.7,1.6,0.1,2.3C-97.7,38.8-98.1,38.9-98.5,38.9z"/>
	</g>
	<g>
		<path class="st3" d="M-81.3,27.7c-0.4,0-0.8-0.1-1.1-0.4l-9.2-8c-0.7-0.6-0.7-1.6-0.2-2.3c0.6-0.7,1.6-0.7,2.3-0.2l9.2,8
			c0.7,0.6,0.7,1.6,0.2,2.3C-80.4,27.5-80.8,27.7-81.3,27.7z"/>
	</g>
	<g>
		<path class="st2" d="M-95.3,94.8l25.7,26.5c0,0-59.5,58.7-157.6,66.7v-37.8C-227.2,150.3-166.1,152.7-95.3,94.8z"/>
	</g>
	<g>
		<path class="st3" d="M-213.1,182.4c-0.9,0-1.6-0.7-1.6-1.5l-0.4-9.2c0-0.9,0.7-1.6,1.5-1.7c0.9,0,1.6,0.7,1.7,1.5l0.4,9.2
			C-211.5,181.6-212.1,182.4-213.1,182.4C-213.1,182.4-213.1,182.4-213.1,182.4z"/>
	</g>
	<g>
		<path class="st3" d="M-189,176.4c-0.7,0-1.4-0.5-1.5-1.2l-2.4-8.8c-0.2-0.9,0.3-1.7,1.1-2c0.8-0.2,1.7,0.3,2,1.1l2.4,8.8
			c0.2,0.9-0.3,1.7-1.1,2C-188.7,176.4-188.8,176.4-189,176.4z"/>
	</g>
	<g>
		<path class="st3" d="M-162.4,167.1c-0.6,0-1.2-0.3-1.5-0.9l-4-8.4c-0.4-0.8,0-1.8,0.8-2.1c0.8-0.4,1.8,0,2.1,0.8l4,8.4
			c0.4,0.8,0,1.8-0.8,2.1C-162,167.1-162.2,167.1-162.4,167.1z"/>
	</g>
	<g>
		<path class="st3" d="M-139.1,158.3c-0.6,0-1.1-0.3-1.4-0.8l-4.4-8c-0.4-0.8-0.1-1.8,0.6-2.2c0.8-0.4,1.8-0.1,2.2,0.6l4.4,8
			c0.4,0.8,0.1,1.8-0.6,2.2C-138.6,158.2-138.9,158.3-139.1,158.3z"/>
	</g>
	<g>
		<path class="st3" d="M-118.6,147.5c-0.5,0-1-0.2-1.3-0.6l-5.2-6.8c-0.5-0.7-0.4-1.7,0.3-2.3c0.7-0.5,1.7-0.4,2.3,0.3l5.2,6.8
			c0.5,0.7,0.4,1.7-0.3,2.3C-118,147.3-118.3,147.5-118.6,147.5z"/>
	</g>
	<g>
		<path class="st3" d="M-98.5,135.4c-0.4,0-0.8-0.1-1.1-0.4l-6.4-6c-0.6-0.6-0.7-1.6-0.1-2.3c0.6-0.7,1.6-0.7,2.3-0.1l6.4,6
			c0.6,0.6,0.7,1.6,0.1,2.3C-97.7,135.2-98.1,135.4-98.5,135.4z"/>
	</g>
	<g>
		<path class="st3" d="M-81.3,124.1c-0.4,0-0.8-0.1-1.1-0.4l-9.2-8c-0.7-0.6-0.7-1.6-0.2-2.3c0.6-0.7,1.6-0.7,2.3-0.2l9.2,8
			c0.7,0.6,0.7,1.6,0.2,2.3C-80.4,124-80.8,124.1-81.3,124.1z"/>
	</g>
</g>
<g id="Designed_by_Vecteezy">
	<g class="st5">
		<g>
			<g>
				<path class="st6" d="M-7.4,606.1c0.5,0,1,0.5,1,0.5l-8.9,19c-1,0-3.3,0.1-3.9,0.1c-0.5,0-1-0.5-1-0.5l-3-19
					c1.8,0,4.2-0.1,4.8-0.1c0.5,0,1,0.5,1,0.5l0.9,9.3c0.1,0.8,0.1,1.9,0.1,3.1c0.3-1.3,0.6-2.5,1-3.3l3.7-9.4
					C-10.1,606.2-8,606.1-7.4,606.1L-7.4,606.1z"/>
			</g>
			<g>
				<path class="st6" d="M1.8,615.5c0,2.1-1.2,3.4-4,4l-3,0.6c0.2,1.3,1.1,1.9,2.4,1.9c1.7,0,2.8-1.3,2.8-1.3s0.8,0.5,0.8,1.4
					c0,1.7-2.6,3.6-5.7,3.6c-3.1,0-5.2-2-5.2-5.3c0-3.8,2.7-9.1,7.6-9.1C0.1,611.5,1.8,613,1.8,615.5L1.8,615.5z M-3.3,617.4
					c0.6-0.2,0.8-0.7,0.8-1.3c0-0.6-0.2-1.4-0.9-1.4c-1.2,0-1.7,1.9-1.9,3.4L-3.3,617.4z"/>
			</g>
			<g>
				<path class="st6" d="M9.9,611.5c2.4,0,4.3,1.3,4.3,3c0,2.1-2.6,2.9-2.6,2.9s-0.7-2.3-2.5-2.3c-1.2,0-1.8,1.2-1.8,3.7
					c0,2.3,0.6,3.3,2.1,3.3c1.5,0,2.5-1,2.5-1s0.9,0.5,0.9,1.4c0,1.7-2.5,3.4-5.5,3.4c-3.2,0-5.1-2-5.1-5.3
					C2.2,616.7,5,611.5,9.9,611.5L9.9,611.5z"/>
			</g>
			<g>
				<path class="st6" d="M21.7,608.4c0.6,0,1,0.5,1,0.5l-0.5,2.9h3.1l-0.7,2.2c-0.2,0.7-0.6,1.1-1.3,1.1h-1.6l-0.9,5.7
					c-0.1,0.9,0.1,1.3,0.7,1.3c0.6,0,1.1-0.3,1.1-0.3s0.9,0.5,0.9,1.4c0,1.4-2,2.8-4.5,2.8c-2.6,0-3.7-1.6-3.3-4.5l1-6.3H15l0.7-2.3
					c0.2-0.6,0.7-1,1.3-1h0.8l1-2.7C20,608.8,21.1,608.4,21.7,608.4L21.7,608.4z"/>
			</g>
			<g>
				<path class="st6" d="M36.6,615.5c0,2.1-1.2,3.4-4,4l-3,0.6c0.2,1.3,1.1,1.9,2.4,1.9c1.7,0,2.8-1.3,2.8-1.3s0.9,0.5,0.9,1.4
					c0,1.7-2.6,3.6-5.7,3.6c-3.1,0-5.2-2-5.2-5.3c0-3.8,2.7-9.1,7.6-9.1C34.9,611.5,36.6,613,36.6,615.5L36.6,615.5z M31.5,617.4
					c0.6-0.2,0.8-0.7,0.8-1.3c0-0.6-0.2-1.4-0.9-1.4c-1.2,0-1.7,1.9-1.9,3.4L31.5,617.4z"/>
			</g>
			<g>
				<path class="st6" d="M48.9,615.5c0,2.1-1.2,3.4-4,4l-3,0.6c0.2,1.3,1.1,1.9,2.4,1.9c1.7,0,2.8-1.3,2.8-1.3s0.9,0.5,0.9,1.4
					c0,1.7-2.6,3.6-5.7,3.6c-3.1,0-5.2-2-5.2-5.3c0-3.8,2.7-9.1,7.6-9.1C47.3,611.5,48.9,613,48.9,615.5L48.9,615.5z M43.8,617.4
					c0.6-0.2,0.8-0.7,0.8-1.3c0-0.6-0.2-1.4-0.9-1.4c-1.2,0-1.7,1.9-1.9,3.4L43.8,617.4z"/>
			</g>
			<g>
				<path class="st6" d="M59,620.6c0,0,1,1,1,2.5c0,2.1-1.8,2.7-3.3,2.7c-2,0-3.4-0.9-4.9-1.4c-0.4,0.5-0.8,1-1.2,1.4
					c0,0-2.2-0.1-2.2-1.6c0-1.8,3.1-5,6.4-8.5c-0.4-0.1-0.7-0.1-1.1-0.1c-1.9,0-2.6,0.9-2.6,0.9s-1-1.1-0.9-2.5c0.1-2,2-2.5,3.5-2.5
					c1.6,0,2.7,0.6,3.9,1.1l0.9-1.1c0,0,2.2,0.1,2.2,1.6c0,1.8-3,4.9-6.2,8.3c0.7,0.2,1.3,0.3,1.9,0.3C58.2,621.7,59,620.6,59,620.6
					L59,620.6z"/>
			</g>
			<g>
				<path class="st6" d="M73.3,624.6c-0.8,4.8-4.1,7.3-8.3,7.3c-2.7,0-4.7-1.4-4.7-3c0-1.1,0.9-1.6,0.9-1.6s0.9,0.8,2.7,0.8
					c1.7,0,4-0.7,4.4-3.3l0.3-2c-1.1,1.6-2.6,3-4.5,3c-2.1,0-3.1-1.7-2.5-5.3l0.6-3.8c0.4-2.3,0.5-4.3,0.5-4.3c1.5-0.3,3.5-1,4.2-1
					c0.5,0,1,0.5,1,0.5l-0.8,4.8l-0.7,4.4c-0.1,0.4,0,0.6,0.4,0.6c1.8,0,2.8-5.1,2.8-5.1c0.4-2.3,0.5-4.3,0.5-4.3
					c1.5-0.3,3.5-1,4.2-1c0.5,0,1,0.5,1,0.5l-0.8,4.8L73.3,624.6z"/>
			</g>
		</g>
		<g>
			<path class="st6" d="M-131.4,612.2h4.8c1.1,0,1.9,0.1,2.5,0.2c0.8,0.2,1.4,0.6,1.9,1.2c0.5,0.6,0.9,1.3,1.2,2.1
				c0.3,0.8,0.4,1.8,0.4,3c0,1.1-0.1,2-0.4,2.7c-0.3,0.9-0.8,1.7-1.4,2.3c-0.5,0.4-1.1,0.8-1.8,1c-0.6,0.2-1.3,0.3-2.3,0.3h-4.9
				V612.2z M-128.8,614.4v8.5h1.9c0.7,0,1.3,0,1.6-0.1c0.4-0.1,0.8-0.3,1.1-0.5c0.3-0.3,0.5-0.7,0.7-1.2c0.2-0.6,0.3-1.4,0.3-2.4
				c0-1-0.1-1.8-0.3-2.3c-0.2-0.5-0.4-0.9-0.7-1.2c-0.3-0.3-0.7-0.5-1.2-0.6c-0.4-0.1-1.1-0.1-2.1-0.1H-128.8z"/>
			<path class="st6" d="M-113.4,622.1l2.5,0.4c-0.3,0.9-0.8,1.6-1.5,2.1c-0.7,0.5-1.5,0.7-2.6,0.7c-1.6,0-2.8-0.5-3.6-1.6
				c-0.6-0.8-0.9-1.9-0.9-3.2c0-1.5,0.4-2.8,1.2-3.6c0.8-0.9,1.8-1.3,3.1-1.3c1.4,0,2.5,0.5,3.3,1.4c0.8,0.9,1.2,2.3,1.2,4.2h-6.2
				c0,0.7,0.2,1.3,0.6,1.7c0.4,0.4,0.9,0.6,1.4,0.6c0.4,0,0.7-0.1,1-0.3C-113.7,623-113.5,622.6-113.4,622.1z M-113.2,619.7
				c0-0.7-0.2-1.3-0.6-1.6c-0.4-0.4-0.8-0.6-1.3-0.6c-0.5,0-1,0.2-1.3,0.6c-0.4,0.4-0.5,0.9-0.5,1.6H-113.2z"/>
			<path class="st6" d="M-110,622.5l2.5-0.4c0.1,0.5,0.3,0.8,0.6,1.1c0.3,0.2,0.8,0.4,1.4,0.4c0.6,0,1.1-0.1,1.4-0.4
				c0.2-0.2,0.3-0.4,0.3-0.7c0-0.2-0.1-0.3-0.2-0.5c-0.1-0.1-0.4-0.2-0.8-0.3c-2-0.4-3.3-0.8-3.8-1.2c-0.7-0.5-1.1-1.2-1.1-2.1
				c0-0.8,0.3-1.5,1-2c0.6-0.6,1.6-0.8,3-0.8c1.3,0,2.2,0.2,2.8,0.6c0.6,0.4,1,1,1.3,1.8l-2.3,0.4c-0.1-0.4-0.3-0.6-0.6-0.8
				c-0.3-0.2-0.7-0.3-1.2-0.3c-0.7,0-1.1,0.1-1.4,0.3c-0.2,0.1-0.3,0.3-0.3,0.5c0,0.2,0.1,0.3,0.2,0.4c0.2,0.2,1,0.4,2.3,0.7
				c1.3,0.3,2.2,0.7,2.8,1.1c0.5,0.4,0.8,1.1,0.8,1.8c0,0.9-0.4,1.6-1.1,2.2c-0.7,0.6-1.8,0.9-3.2,0.9c-1.3,0-2.3-0.3-3-0.8
				C-109.3,624-109.8,623.3-110,622.5z"/>
			<path class="st6" d="M-99.5,614.5v-2.3h2.5v2.3H-99.5z M-99.5,625.1v-9.3h2.5v9.3H-99.5z"/>
			<path class="st6" d="M-95.1,625.7l2.8,0.3c0,0.3,0.2,0.6,0.3,0.7c0.2,0.2,0.6,0.3,1.1,0.3c0.6,0,1.1-0.1,1.5-0.3
				c0.2-0.1,0.4-0.3,0.5-0.6c0.1-0.2,0.1-0.6,0.1-1.1v-1.4c-0.7,1-1.7,1.5-2.8,1.5c-1.3,0-2.2-0.5-3-1.6c-0.6-0.8-0.9-1.9-0.9-3.1
				c0-1.6,0.4-2.8,1.1-3.6c0.8-0.8,1.7-1.2,2.8-1.2c1.2,0,2.1,0.5,2.9,1.5v-1.3h2.3v8.4c0,1.1-0.1,1.9-0.3,2.5
				c-0.2,0.5-0.4,1-0.8,1.3c-0.3,0.3-0.8,0.6-1.3,0.7c-0.5,0.2-1.2,0.3-2.1,0.3c-1.6,0-2.7-0.3-3.4-0.8c-0.7-0.5-1-1.2-1-2.1
				C-95.1,626-95.1,625.9-95.1,625.7z M-92.9,620.3c0,1,0.2,1.7,0.6,2.2c0.4,0.5,0.9,0.7,1.4,0.7c0.6,0,1.1-0.2,1.5-0.7
				c0.4-0.5,0.6-1.2,0.6-2.1c0-1-0.2-1.7-0.6-2.2c-0.4-0.5-0.9-0.7-1.5-0.7c-0.6,0-1.1,0.2-1.5,0.7
				C-92.7,618.6-92.9,619.3-92.9,620.3z"/>
			<path class="st6" d="M-75.7,625.1h-2.5v-4.8c0-1-0.1-1.7-0.2-2c-0.1-0.3-0.3-0.5-0.5-0.7c-0.2-0.2-0.5-0.2-0.9-0.2
				c-0.4,0-0.8,0.1-1.2,0.4c-0.3,0.2-0.6,0.5-0.7,0.9c-0.1,0.4-0.2,1.1-0.2,2.1v4.2h-2.5v-9.3h2.3v1.4c0.8-1.1,1.8-1.6,3.1-1.6
				c0.5,0,1,0.1,1.5,0.3c0.5,0.2,0.8,0.4,1,0.8c0.2,0.3,0.4,0.7,0.5,1c0.1,0.4,0.1,0.9,0.1,1.7V625.1z"/>
			<path class="st6" d="M-68.2,622.1l2.5,0.4c-0.3,0.9-0.8,1.6-1.5,2.1c-0.7,0.5-1.5,0.7-2.6,0.7c-1.6,0-2.8-0.5-3.6-1.6
				c-0.6-0.8-0.9-1.9-0.9-3.2c0-1.5,0.4-2.8,1.2-3.6c0.8-0.9,1.8-1.3,3.1-1.3c1.4,0,2.5,0.5,3.3,1.4c0.8,0.9,1.2,2.3,1.2,4.2h-6.2
				c0,0.7,0.2,1.3,0.6,1.7c0.4,0.4,0.9,0.6,1.4,0.6c0.4,0,0.7-0.1,1-0.3C-68.5,623-68.3,622.6-68.2,622.1z M-68,619.7
				c0-0.7-0.2-1.3-0.6-1.6c-0.4-0.4-0.8-0.6-1.3-0.6c-0.5,0-1,0.2-1.3,0.6c-0.4,0.4-0.5,0.9-0.5,1.6H-68z"/>
			<path class="st6" d="M-55.3,625.1h-2.3v-1.4c-0.4,0.5-0.8,0.9-1.3,1.2c-0.5,0.3-1,0.4-1.6,0.4c-1.1,0-2-0.4-2.8-1.3
				c-0.8-0.9-1.1-2.1-1.1-3.6c0-1.6,0.4-2.8,1.1-3.6c0.7-0.8,1.7-1.2,2.8-1.2c1,0,1.9,0.4,2.7,1.3v-4.6h2.5V625.1z M-61.9,620.2
				c0,1,0.1,1.7,0.4,2.2c0.4,0.6,1,1,1.7,1c0.6,0,1.1-0.2,1.5-0.7c0.4-0.5,0.6-1.2,0.6-2.2c0-1.1-0.2-1.8-0.6-2.3
				c-0.4-0.5-0.9-0.7-1.5-0.7c-0.6,0-1.1,0.2-1.5,0.7C-61.7,618.6-61.9,619.3-61.9,620.2z"/>
			<path class="st6" d="M-48.7,625.1v-12.9h2.5v4.6c0.8-0.9,1.7-1.3,2.7-1.3c1.1,0,2.1,0.4,2.8,1.2c0.7,0.8,1.1,2,1.1,3.5
				c0,1.6-0.4,2.8-1.1,3.7c-0.8,0.9-1.7,1.3-2.8,1.3c-0.5,0-1.1-0.1-1.6-0.4c-0.5-0.3-1-0.7-1.3-1.2v1.4H-48.7z M-46.3,620.2
				c0,1,0.2,1.7,0.5,2.1c0.4,0.7,1,1,1.7,1c0.5,0,1-0.2,1.4-0.7c0.4-0.5,0.6-1.2,0.6-2.2c0-1.1-0.2-1.8-0.6-2.3
				c-0.4-0.5-0.9-0.7-1.5-0.7c-0.6,0-1.1,0.2-1.5,0.7C-46.1,618.6-46.3,619.3-46.3,620.2z"/>
			<path class="st6" d="M-39.2,615.8h2.6l2.2,6.6l2.2-6.6h2.6l-3.3,9l-0.6,1.6c-0.2,0.5-0.4,1-0.6,1.2c-0.2,0.3-0.4,0.5-0.7,0.7
				c-0.3,0.2-0.6,0.3-0.9,0.4c-0.4,0.1-0.8,0.1-1.3,0.1c-0.5,0-0.9,0-1.4-0.1l-0.2-1.9c0.4,0.1,0.7,0.1,1,0.1c0.6,0,1-0.2,1.3-0.5
				c0.3-0.3,0.5-0.8,0.6-1.3L-39.2,615.8z"/>
		</g>
	</g>
</g>
</svg>
