<?xml version="1.0" encoding="iso-8859-1"?>
<!-- Generator: Adobe Illustrator 19.0.0, SVG Export Plug-In . SVG Version: 6.00 Build 0)  -->
<svg version="1.1" id="Capa_1" xmlns="http://www.w3.org/2000/svg" xmlns:xlink="http://www.w3.org/1999/xlink" x="0px" y="0px"
	 viewBox="0 0 57 57" style="enable-background:new 0 0 57 57;" xml:space="preserve">
<path style="fill:#38454F;" d="M49.507,30.634c1.968,0.501,4.192,1.366,6.318,2.848C56.56,33.994,57,34.869,57,35.796v5.903
	c0,1.011-0.519,1.939-1.362,2.428c-1.13,0.654-2.783,1.612-4.915,2.348c-4.632,1.599-9.687,0.739-13.718-2.142
	c-1.224-0.875-2.574-1.983-4.005-3.384v-4.571c0,0,0.851-2.078,4.453-4.131C41.124,30.155,45.447,29.601,49.507,30.634z"/>
<path style="fill:#38454F;" d="M7.493,30.634c-1.968,0.501-4.192,1.366-6.318,2.848C0.44,33.994,0,34.869,0,35.796l0,5.903
	c0,1.011,0.519,1.939,1.362,2.428c1.13,0.654,2.783,1.612,4.915,2.348c4.632,1.599,9.687,0.739,13.718-2.142
	c1.224-0.875,2.574-1.983,4.005-3.384v-4.571c0,0-0.851-2.078-4.453-4.131C15.876,30.155,11.553,29.601,7.493,30.634z"/>
<ellipse style="fill:#18E5EF;" cx="42.068" cy="38.364" rx="9.068" ry="5.478"/>
<ellipse style="fill:#18E5EF;" cx="14.932" cy="38.364" rx="9.068" ry="5.478"/>
<path style="fill:#38454F;" d="M41.712,11.382l-2.026-0.431c-7.657-1.629-15.715-1.629-23.372,0l-2.026,0.431
	C13.529,11.544,13,12.093,13,12.72v6.517c0,0.91,1.263,1.189,2.365,0.955l1.131-0.241c0.395-0.084,0.795-0.145,1.192-0.221
	c1.596-2.016,5.827-3.46,10.811-3.46c5.099,0,9.415,1.51,10.923,3.598c0.148,0.03,0.298,0.051,0.446,0.083L41,20.192
	c1.102,0.234,2-0.045,2-0.955V12.72C43,12.093,42.471,11.544,41.712,11.382z"/>
<path style="fill:#556080;" d="M0.371,34.395c0.199-0.359,0.466-0.677,0.805-0.913c1.345-0.938,2.73-1.628,4.065-2.135
	c0.064-2.064,0.144-2.573,0.176-2.711c0.69-3.541,2.253-6.2,4.777-8.129c0.754-0.577,1.755-0.899,2.816-0.91
	c0.024,0,0.044-0.012,0.067-0.014C13.031,19.478,13,19.365,13,19.237V13.5c-0.117,0-0.235,0.021-0.349,0.063
	C4.257,16.689,0,23.32,0,33.27c0,0.082,0.012,0.375,0.012,0.375C0.017,33.94,0.152,34.211,0.371,34.395z"/>
<path style="fill:#556080;" d="M46.81,20.516c2.525,1.936,4.089,4.592,4.779,8.121c0.014,0.068,0.034,0.135,0.061,0.199
	c0.032,0.138,0.11,0.676,0.179,2.536c1.313,0.505,2.674,1.188,3.997,2.11c0.339,0.236,0.605,0.554,0.805,0.913
	c0.219-0.184,0.354-0.454,0.359-0.749c0,0,0.012-0.293,0.012-0.375c0-10.489-4.478-17.054-13.688-20.068
	c-0.103-0.034-0.207-0.05-0.312-0.05v6.084c0,0.019-0.006,0.033-0.007,0.051c0.028,0.002,0.053,0.016,0.081,0.016
	C44.464,19.304,45.79,19.734,46.81,20.516z"/>
<path style="fill:#38454F;" d="M23.659,41.271h9.683c-0.114-0.109-0.226-0.209-0.341-0.322v-4.571c0,0,0.016-0.039,0.051-0.107
	h-9.101C23.984,36.339,24,36.377,24,36.377v4.571C23.884,41.062,23.773,41.161,23.659,41.271z"/>
<g>
</g>
<g>
</g>
<g>
</g>
<g>
</g>
<g>
</g>
<g>
</g>
<g>
</g>
<g>
</g>
<g>
</g>
<g>
</g>
<g>
</g>
<g>
</g>
<g>
</g>
<g>
</g>
<g>
</g>
</svg>
