<?xml version="1.0" encoding="iso-8859-1"?>
<!-- Generator: Adobe Illustrator 19.0.0, SVG Export Plug-In . SVG Version: 6.00 Build 0)  -->
<svg version="1.1" id="Capa_1" xmlns="http://www.w3.org/2000/svg" xmlns:xlink="http://www.w3.org/1999/xlink" x="0px" y="0px"
	 viewBox="0 0 460 460" style="enable-background:new 0 0 460 460;" xml:space="preserve">
<g>
	<path style="fill:#96B5A5;" d="M155.42,94.273V0h-30v90.005C135.528,90.039,145.63,91.464,155.42,94.273z"/>
	<path style="fill:#B7D6CA;" d="M125.42,90.005V0h-30v94.059C105.218,91.324,115.32,89.97,125.42,90.005z"/>
	<path style="fill:#F46A1A;" d="M381.877,0h-30v91.312c10.297,1.598,20.408,4.661,30,9.194V0z"/>
	<path style="fill:#F46A1A;" d="M287.292,100.863V0h-30v122.19C266.308,113.175,276.462,106.082,287.292,100.863z"/>
	<path style="fill:#D5310E;" d="M412.584,122.157c-0.233-0.233-0.472-0.458-0.707-0.689V0h-30v100.506
		c-9.592-4.533-19.703-7.597-30-9.194c-11.456-1.777-23.138-1.739-34.585,0.117V0h-30v100.863
		c-10.831,5.219-20.985,12.312-29.967,21.294L230,149.483V460l182.584-182.584C455.461,234.539,455.461,165.034,412.584,122.157z
		 M334.959,135c17.304,0,33.569,6.738,45.802,18.973c12.239,12.24,18.98,28.511,18.98,45.814h-30c0-9.29-3.621-18.027-10.195-24.602
		C352.979,168.616,344.248,165,334.959,165V135z"/>
	<path style="fill:#F46A1A;" d="M202.674,122.157c-13.63-13.63-29.953-22.919-47.255-27.884c-9.79-2.809-19.892-4.234-30-4.269
		c-10.1-0.035-20.202,1.319-30,4.055c-17.581,4.909-34.179,14.27-48.004,28.098c-42.876,42.876-42.876,112.382,0,155.259L230,460
		V149.483L202.674,122.157z M140,296h-30v-30h30V296z M200,356h-30v-30h30V356z"/>
	<rect x="170" y="326" style="fill:#D5310E;" width="30" height="30"/>
	<rect x="110" y="266" style="fill:#D5310E;" width="30" height="30"/>
	<path style="fill:#F46A1A;" d="M359.546,175.185c6.574,6.575,10.195,15.312,10.195,24.602h30c0-17.303-6.741-33.574-18.98-45.814
		C368.528,141.738,352.263,135,334.959,135v30C344.248,165,352.979,168.616,359.546,175.185z"/>
</g>
<g>
</g>
<g>
</g>
<g>
</g>
<g>
</g>
<g>
</g>
<g>
</g>
<g>
</g>
<g>
</g>
<g>
</g>
<g>
</g>
<g>
</g>
<g>
</g>
<g>
</g>
<g>
</g>
<g>
</g>
</svg>
