<?xml version="1.0" encoding="utf-8"?>
<!-- Generator: Adobe Illustrator 19.2.1, SVG Export Plug-In . SVG Version: 6.00 Build 0)  -->
<svg version="1.1" xmlns="http://www.w3.org/2000/svg" xmlns:xlink="http://www.w3.org/1999/xlink" x="0px" y="0px"
	 viewBox="0 0 254.9 387.9" style="enable-background:new 0 0 254.9 387.9;" xml:space="preserve">
<style type="text/css">
	.st0{fill:#4D2611;}
	.st1{fill:#9B8579;}
</style>
<g id="_x31_">
	<g>
		<g>
			<path class="st0" d="M-776.9,387.9c-45.5,0-86.7-40.5-103.4-101.3c-4.3-1.6-8.2-5.4-11.7-11.2c-10.6-17.7-15.8-53.2-9.7-65.5
				c3-5.9,8.3-9.4,15.1-10c7.2-73.6,21.9-133.6,109.7-133.6c98.1,0,103.2,58.3,109.1,125.9c0.2,2.6,0.4,5.1,0.7,7.7
				c6.8,0.6,12.1,4.1,15.1,10c6.2,12.3,0.9,47.8-9.7,65.5c-3.5,5.8-7.4,9.6-11.7,11.2C-690.1,347.3-731.4,387.9-776.9,387.9z
				 M-884.4,211.8c-4.1,0-5.5,1.7-6.4,3.4c-3.6,7.3,0,38.4,9.2,53.9c2.7,4.6,5.1,6.2,6.4,6.3l4.6,0.1l1.1,4.4
				c14.6,57.3,51.9,95.8,92.6,95.8c40.8,0,78-38.5,92.6-95.8l1.1-4.4l4.6-0.1c1.3,0,3.7-1.7,6.4-6.3c9.3-15.5,12.9-46.6,9.2-53.9
				c-0.8-1.7-2.3-3.4-6.4-3.4c-0.8,0-1.7,0.1-2.5,0.2l-6.3,0.9l-0.6-6.3c-0.4-4.5-0.8-9-1.2-13.4c-6-69.1-10-114.8-97-114.8
				c-80.1,0-91.3,53.2-98.2,128.3l-0.6,6.3l-6.3-0.9C-882.8,211.9-883.6,211.8-884.4,211.8z"/>
		</g>
		<path class="st0" d="M-806.2,312.3h58C-748.2,312.3-776.9,332.6-806.2,312.3z"/>
		<path class="st0" d="M-792.4,333.6h28.6C-763.8,333.6-778.2,343.5-792.4,333.6z"/>
		<path class="st0" d="M-799.7,276.2c0,0,21.1,25.3,42.2,0c0,0-1.5,17.2-20.6,17.2C-798,293.4-799.7,276.2-799.7,276.2z"/>
	</g>
	<g>
		<g>
			<path class="st0" d="M-324.7,387.9c-45.5,0-86.7-40.5-103.4-101.3c-4.3-1.6-8.2-5.4-11.7-11.2c-10.6-17.7-15.8-53.2-9.7-65.5
				c3-5.9,8.3-9.4,15.1-10c7.2-73.6,21.9-133.6,109.7-133.6c98.1,0,103.2,58.3,109.1,125.9c0.2,2.6,0.4,5.1,0.7,7.7
				c6.8,0.6,12.1,4.1,15.1,10c6.2,12.3,0.9,47.8-9.7,65.5c-3.5,5.8-7.4,9.6-11.7,11.2C-238,347.3-279.2,387.9-324.7,387.9z
				 M-432.3,211.8c-4.1,0-5.5,1.7-6.4,3.4c-3.6,7.3,0,38.4,9.2,53.9c2.7,4.6,5.1,6.2,6.4,6.3l4.6,0.1l1.1,4.4
				c14.6,57.3,51.9,95.8,92.6,95.8c40.8,0,78-38.5,92.6-95.8l1.1-4.4l4.6-0.1c1.3,0,3.7-1.7,6.4-6.3c9.3-15.5,12.9-46.6,9.2-53.9
				c-0.8-1.7-2.3-3.4-6.4-3.4c-0.8,0-1.7,0.1-2.5,0.2l-6.3,0.9l-0.6-6.3c-0.4-4.5-0.8-9-1.2-13.4c-6-69.1-10-114.8-97-114.8
				c-80.1,0-91.3,53.2-98.2,128.3l-0.6,6.3l-6.3-0.9C-430.6,211.9-431.4,211.8-432.3,211.8z"/>
		</g>
		<path class="st0" d="M-354.1,312.3h58C-296,312.3-324.7,332.6-354.1,312.3z"/>
		<path class="st0" d="M-340.2,333.6h28.6C-311.6,333.6-326.1,343.5-340.2,333.6z"/>
		<path class="st0" d="M-347.6,276.2c0,0,21.1,25.3,42.2,0c0,0-1.5,17.2-20.6,17.2C-345.8,293.4-347.6,276.2-347.6,276.2z"/>
	</g>
	<g>
		<g>
			<path class="st0" d="M127.4,387.9c-45.5,0-86.7-40.5-103.4-101.3c-4.3-1.6-8.2-5.4-11.7-11.2c-10.6-17.7-15.8-53.2-9.7-65.5
				c3-5.9,8.3-9.4,15.1-10c7.2-73.6,21.9-133.6,109.7-133.6c98.1,0,103.2,58.3,109.1,125.9c0.2,2.6,0.4,5.1,0.7,7.7
				c6.8,0.6,12.1,4.1,15.1,10c6.2,12.3,0.9,47.8-9.7,65.5c-3.5,5.8-7.4,9.6-11.7,11.2C214.2,347.3,172.9,387.9,127.4,387.9z
				 M19.9,211.8c-4.1,0-5.5,1.7-6.4,3.4c-3.6,7.3,0,38.4,9.2,53.9c2.7,4.6,5.1,6.2,6.4,6.3l4.6,0.1l1.1,4.4
				c14.6,57.3,51.9,95.8,92.6,95.8s78-38.5,92.6-95.8l1.1-4.4l4.6-0.1c1.3,0,3.7-1.7,6.4-6.3c9.3-15.5,12.9-46.6,9.2-53.9
				c-0.8-1.7-2.3-3.4-6.4-3.4c-0.8,0-1.7,0.1-2.5,0.2l-6.3,0.9l-0.6-6.3c-0.4-4.5-0.8-9-1.2-13.4c-6-69.1-10-114.8-97-114.8
				c-80.1,0-91.3,53.2-98.2,128.3l-0.6,6.3l-6.3-0.9C21.5,211.9,20.7,211.8,19.9,211.8z"/>
		</g>
		<path class="st0" d="M98.1,312.3h58C156.1,312.3,127.4,332.6,98.1,312.3z"/>
		<path class="st0" d="M111.9,333.6h28.6C140.5,333.6,126.1,343.5,111.9,333.6z"/>
		<path class="st0" d="M104.6,276.2c0,0,21.1,25.3,42.2,0c0,0-1.5,17.2-20.6,17.2C106.4,293.4,104.6,276.2,104.6,276.2z"/>
	</g>
	<g>
		<g>
			<path class="st0" d="M-776.9,870.3c-45.5,0-86.7-40.5-103.4-101.3c-4.3-1.6-8.2-5.4-11.7-11.2c-10.6-17.7-15.8-53.2-9.7-65.5
				c3-5.9,8.3-9.4,15.1-10c7.2-73.6,21.9-133.6,109.7-133.6c98.1,0,103.2,58.3,109.1,125.9c0.2,2.6,0.4,5.1,0.7,7.7
				c6.8,0.6,12.1,4.1,15.1,10c6.2,12.3,0.9,47.8-9.7,65.5c-3.5,5.8-7.4,9.6-11.7,11.2C-690.1,829.8-731.4,870.3-776.9,870.3z
				 M-884.4,694.3c-4.1,0-5.5,1.7-6.4,3.4c-3.6,7.3,0,38.4,9.2,53.9c2.7,4.6,5.1,6.2,6.4,6.3l4.6,0.1l1.1,4.4
				c14.6,57.3,51.9,95.8,92.6,95.8c40.8,0,78-38.5,92.6-95.8l1.1-4.4l4.6-0.1c1.3,0,3.7-1.7,6.4-6.3c9.3-15.5,12.9-46.6,9.2-53.9
				c-0.8-1.7-2.3-3.4-6.4-3.4c-0.8,0-1.7,0.1-2.5,0.2l-6.3,0.9l-0.6-6.3c-0.4-4.5-0.8-9-1.2-13.4c-6-69.1-10-114.8-97-114.8
				c-80.1,0-91.3,53.2-98.2,128.3l-0.6,6.3l-6.3-0.9C-882.8,694.3-883.6,694.3-884.4,694.3z"/>
		</g>
		<path class="st0" d="M-806.2,794.8h58C-748.2,794.8-776.9,815-806.2,794.8z"/>
		<path class="st0" d="M-792.4,816h28.6C-763.8,816-778.2,825.9-792.4,816z"/>
		<path class="st0" d="M-799.7,758.6c0,0,21.1,25.3,42.2,0c0,0-1.5,17.2-20.6,17.2C-798,775.8-799.7,758.6-799.7,758.6z"/>
	</g>
	<g>
		<g>
			<path class="st0" d="M-324.7,870.3c-45.5,0-86.7-40.5-103.4-101.3c-4.3-1.6-8.2-5.4-11.7-11.2c-10.6-17.7-15.8-53.2-9.7-65.5
				c3-5.9,8.3-9.4,15.1-10c7.2-73.6,21.9-133.6,109.7-133.6c98.1,0,103.2,58.3,109.1,125.9c0.2,2.6,0.4,5.1,0.7,7.7
				c6.8,0.6,12.1,4.1,15.1,10c6.2,12.3,0.9,47.8-9.7,65.5c-3.5,5.8-7.4,9.6-11.7,11.2C-238,829.8-279.2,870.3-324.7,870.3z
				 M-432.3,694.3c-4.1,0-5.5,1.7-6.4,3.4c-3.6,7.3,0,38.4,9.2,53.9c2.7,4.6,5.1,6.2,6.4,6.3l4.6,0.1l1.1,4.4
				c14.6,57.3,51.9,95.8,92.6,95.8c40.8,0,78-38.5,92.6-95.8l1.1-4.4l4.6-0.1c1.3,0,3.7-1.7,6.4-6.3c9.3-15.5,12.9-46.6,9.2-53.9
				c-0.8-1.7-2.3-3.4-6.4-3.4c-0.8,0-1.7,0.1-2.5,0.2l-6.3,0.9l-0.6-6.3c-0.4-4.5-0.8-9-1.2-13.4c-6-69.1-10-114.8-97-114.8
				c-80.1,0-91.3,53.2-98.2,128.3l-0.6,6.3l-6.3-0.9C-430.6,694.3-431.4,694.3-432.3,694.3z"/>
		</g>
		<path class="st0" d="M-354.1,794.8h58C-296,794.8-324.7,815-354.1,794.8z"/>
		<path class="st0" d="M-340.2,816h28.6C-311.6,816-326.1,825.9-340.2,816z"/>
		<path class="st0" d="M-347.6,758.6c0,0,21.1,25.3,42.2,0c0,0-1.5,17.2-20.6,17.2C-345.8,775.8-347.6,758.6-347.6,758.6z"/>
	</g>
	<g>
		<g>
			<path class="st0" d="M127.4,870.3C81.9,870.3,40.7,829.8,24,769c-4.3-1.6-8.2-5.4-11.7-11.2c-10.6-17.7-15.8-53.2-9.7-65.5
				c3-5.9,8.3-9.4,15.1-10c7.2-73.6,21.9-133.6,109.7-133.6c98.1,0,103.2,58.3,109.1,125.9c0.2,2.6,0.4,5.1,0.7,7.7
				c6.8,0.6,12.1,4.1,15.1,10c6.2,12.3,0.9,47.8-9.7,65.5c-3.5,5.8-7.4,9.6-11.7,11.2C214.2,829.8,172.9,870.3,127.4,870.3z
				 M19.9,694.3c-4.1,0-5.5,1.7-6.4,3.4c-3.6,7.3,0,38.4,9.2,53.9c2.7,4.6,5.1,6.2,6.4,6.3l4.6,0.1l1.1,4.4
				c14.6,57.3,51.9,95.8,92.6,95.8s78-38.5,92.6-95.8l1.1-4.4l4.6-0.1c1.3,0,3.7-1.7,6.4-6.3c9.3-15.5,12.9-46.6,9.2-53.9
				c-0.8-1.7-2.3-3.4-6.4-3.4c-0.8,0-1.7,0.1-2.5,0.2l-6.3,0.9l-0.6-6.3c-0.4-4.5-0.8-9-1.2-13.4c-6-69.1-10-114.8-97-114.8
				c-80.1,0-91.3,53.2-98.2,128.3l-0.6,6.3l-6.3-0.9C21.5,694.3,20.7,694.3,19.9,694.3z"/>
		</g>
		<path class="st0" d="M98.1,794.8h58C156.1,794.8,127.4,815,98.1,794.8z"/>
		<path class="st0" d="M111.9,816h28.6C140.5,816,126.1,825.9,111.9,816z"/>
		<path class="st0" d="M104.6,758.6c0,0,21.1,25.3,42.2,0c0,0-1.5,17.2-20.6,17.2C106.4,775.8,104.6,758.6,104.6,758.6z"/>
	</g>
	<path class="st0" d="M-409.1,85.3c0,0-34.4-3-43.5,43.5s-6.1,66.8,0,84c6.1,17.2,38.4,26,38.4,26s-1-50.2,27.3-59.4
		c0,0,67.8,26.3,103.2,27.3c35.4,1,47.6,32,47.6,32s29.3,10.5,32.4-57.3C-200.7,113.7-275.6,11.5-409.1,85.3z"/>
	<path class="st0" d="M127.8,166.4c-55.9,0-60.9-11.5-80.3,0c-19.4,11.5-7.2,55.2-11.5,60.9c-4.3,5.7-33.7,10-31.5-76.7
		s61.6-104,61.6-104s-2.8,22.2,14.4,9.3C97.7,43,112,11.5,112,11.5s2.9,30.1,11.5,28.7C132.1,38.7,138.5,0,138.5,0s9.3,43,19.4,43
		s10-15.1,10-15.1s67.4,38.7,79.6,95.4c12.2,56.6,0.7,106.6-25.1,106.6c-14.3,0,2.9-58.6-22.9-69.3
		C173.7,149.9,174.4,166.4,127.8,166.4z"/>
	<path class="st0" d="M-331.4,649.8c-51,0-31.8-34.7-65-34c-33.2,0.7-28.8,46.5-28.8,72.4c0,25.8,7.7,40.6-1.2,40.6
		c-8.9,0-2.5-22.1-12.1-25.1c-9.6-3-30.3-36.9-17.7-82c12.6-45,41.4-82,124.8-82s118.2,34,122.6,82.7c4.4,48.7-0.7,68.7-9.6,79
		c-8.9,10.3-1.5,18.5-15.5,25.1c-14,6.6,20.2-108.6-22.6-114.5C-299.3,606.3-274.5,649.8-331.4,649.8z"/>
	<path class="st0" d="M224.2,719.4c-4.7-0.6,2.8-23.9-10.8-45c-13.7-21.1-14.8-18.8-22.8-19.9c-8-1.1-0.6,12.5-10.3,10.3
		c-9.7-2.3-4.6-19.9-13.7-21.6c-9.1-1.7-1.1,20.5-10.3,18.8c-9.1-1.7-1.1-30.2-9.7-30.8c-8.5-0.6-6.3,34.7-16.5,34.2
		c-10.3-0.6-10.3-17.1-18.8-18.2c-8.5-1.1,1.1,9.1-12,9.1c-13.1,0-19.4-12.5-25.1-12.5c-5.7,0-0.6,23.9-7.4,22.2
		c-6.8-1.7-10.3-13.1-19.9-9.7c-9.7,3.4-21.4,40.5-19.9,63.3c0.6,9.1-9.7-12.6-10.3-20.5c-0.6-8-19.4,1.7-20.5-25.1
		c-1.1-26.8-37.8-138.8,124-147.1c161.7-8.4,142,137.4,133.6,155.7c-8.4,18.2-22,17.5-24.3,25.1C227.4,715,228.9,720,224.2,719.4z"
		/>
	<path class="st0" d="M-774.3,644.7c-53.1,3.5-51.7-13.3-78,0c-26.2,13.3-18.9,58.1-14.6,65.6c4.4,7.5-2.9,10.8-13.1,0
		c-10.2-10.8-31.3-16.6-25.5-63.1c5.8-46.5-16.8-60.6,6.6-88.9c23.3-28.2,24-49.8,31.3-52.3c7.3-2.5,12.4,18.3,19.7,13.3
		c7.3-5-8.7-36.5-1.5-39.9c7.3-3.3,35,28.2,39.3,26.6c4.4-1.7,0-23.3,7.3-23.3c7.3,0,21.9,31.6,28.4,31.6c6.6,0,11.7-12.5,16.8-13.3
		s12.4,26.6,35.7,30.7c23.3,4.2,74.3,42.4,72.9,66.5c-1.5,24.1-5,32.4,0,48.2c5.1,15.8-3.1,59.8-32.1,70.9c-8,3.1,8.7-48.4-5.8-64.2
		C-701.4,637.2-710.9,640.6-774.3,644.7z"/>
</g>
<g id="Designed_by_Vecteezy">
	<g>
		<g>
			<g>
				<g>
					<path class="st1" d="M-288.2,901c0.8,0,1.6,0.7,1.6,0.7l-13.9,29.8c-1.5,0-5.2,0.2-6.1,0.2c-0.8,0-1.6-0.7-1.6-0.7l-4.8-29.8
						c2.9,0,6.5-0.2,7.6-0.2c0.8,0,1.6,0.7,1.6,0.7l1.5,14.6c0.1,1.3,0.1,3,0.1,4.8c0.5-2,1-3.9,1.5-5.2l5.8-14.7
						C-292.4,901.2-289.2,901-288.2,901L-288.2,901z"/>
				</g>
				<g>
					<path class="st1" d="M-273.8,915.7c0,3.2-1.8,5.4-6.3,6.3l-4.7,1c0.4,2,1.6,3,3.8,3c2.6,0,4.4-2,4.4-2s1.3,0.7,1.3,2.3
						c0,2.7-4.1,5.6-9,5.6c-4.9,0-8.1-3.1-8.1-8.3c0-6,4.3-14.2,11.9-14.2C-276.4,909.4-273.8,911.9-273.8,915.7L-273.8,915.7z
						 M-281.8,918.8c1-0.3,1.3-1.2,1.3-2.1c0-0.9-0.3-2.2-1.3-2.2c-1.9,0-2.7,3-3,5.3L-281.8,918.8z"/>
				</g>
				<g>
					<path class="st1" d="M-261.1,909.4c3.8,0,6.7,2,6.7,4.7c0,3.3-4,4.5-4,4.5s-1.2-3.6-3.9-3.6c-1.8,0-2.9,1.8-2.9,5.8
						c0,3.6,1,5.2,3.3,5.2c2.4,0,3.9-1.6,3.9-1.6s1.3,0.7,1.3,2.2c0,2.6-4,5.3-8.6,5.3c-4.9,0-8-3.1-8-8.2
						C-273.2,917.6-268.8,909.4-261.1,909.4L-261.1,909.4z"/>
				</g>
				<g>
					<path class="st1" d="M-242.6,904.6c0.9,0,1.5,0.7,1.5,0.7l-0.7,4.5h4.8l-1.1,3.5c-0.4,1.1-0.9,1.7-2,1.7h-2.5l-1.4,8.9
						c-0.2,1.4,0.1,2.1,1.1,2.1c0.9,0,1.8-0.5,1.8-0.5s1.3,0.7,1.3,2.2c0,2.2-3.1,4.3-7,4.3c-4.1,0-5.8-2.5-5.1-7l1.6-9.9h-2.6
						l1.1-3.6c0.3-0.9,1.1-1.6,2-1.6h1.3l1.5-4.2C-245.2,905.2-243.5,904.6-242.6,904.6L-242.6,904.6z"/>
				</g>
				<g>
					<path class="st1" d="M-219.3,915.7c0,3.2-1.8,5.4-6.3,6.3l-4.7,1c0.4,2,1.6,3,3.8,3c2.6,0,4.4-2,4.4-2s1.3,0.7,1.3,2.3
						c0,2.7-4.1,5.6-9,5.6c-4.9,0-8.1-3.1-8.1-8.3c0-6,4.3-14.2,11.9-14.2C-221.9,909.4-219.3,911.9-219.3,915.7L-219.3,915.7z
						 M-227.3,918.8c1-0.3,1.3-1.2,1.3-2.1c0-0.9-0.3-2.2-1.3-2.2c-1.9,0-2.7,3-3,5.3L-227.3,918.8z"/>
				</g>
				<g>
					<path class="st1" d="M-200,915.7c0,3.2-1.8,5.4-6.3,6.3l-4.7,1c0.4,2,1.6,3,3.8,3c2.6,0,4.4-2,4.4-2s1.3,0.7,1.3,2.3
						c0,2.7-4.1,5.6-9,5.6c-4.9,0-8.1-3.1-8.1-8.3c0-6,4.3-14.2,11.9-14.2C-202.6,909.4-200,911.9-200,915.7L-200,915.7z
						 M-208,918.8c1-0.3,1.3-1.2,1.3-2.1c0-0.9-0.3-2.2-1.3-2.2c-1.9,0-2.7,3-3,5.3L-208,918.8z"/>
				</g>
				<g>
					<path class="st1" d="M-184.2,923.8c0,0,1.6,1.5,1.6,4c0,3.3-2.8,4.2-5.2,4.2c-3.1,0-5.3-1.5-7.6-2.3c-0.6,0.7-1.3,1.5-1.9,2.3
						c0,0-3.5-0.1-3.5-2.4c0-2.9,4.8-7.8,9.9-13.4c-0.6-0.1-1.2-0.2-1.7-0.2c-2.9,0-4.1,1.5-4.1,1.5s-1.5-1.7-1.4-4
						c0.2-3.1,3.1-4,5.5-4c2.5,0,4.3,1,6.1,1.7l1.5-1.7c0,0,3.5,0.1,3.5,2.5c0,2.8-4.6,7.6-9.6,13c1.1,0.3,2,0.5,3,0.5
						C-185.4,925.5-184.2,923.8-184.2,923.8L-184.2,923.8z"/>
				</g>
				<g>
					<path class="st1" d="M-161.7,930c-1.2,7.6-6.4,11.4-13,11.4c-4.2,0-7.3-2.2-7.3-4.8c0-1.7,1.4-2.5,1.4-2.5s1.4,1.3,4.2,1.3
						c2.6,0,6.2-1.1,6.8-5.1l0.5-3.1c-1.8,2.6-4.1,4.6-7.1,4.6c-3.3,0-4.8-2.7-3.9-8.3l0.9-6c0.6-3.7,0.7-6.7,0.7-6.7
						c2.4-0.4,5.5-1.5,6.6-1.5c0.8,0,1.6,0.7,1.6,0.7l-1.2,7.5l-1.1,6.9c-0.1,0.6,0,1,0.6,1c2.8,0,4.3-7.9,4.3-7.9
						c0.6-3.7,0.7-6.7,0.7-6.7c2.4-0.4,5.5-1.5,6.6-1.5c0.9,0,1.6,0.7,1.6,0.7l-1.2,7.5L-161.7,930z"/>
				</g>
			</g>
			<g>
				<path class="st1" d="M-482.3,910.7h7.4c1.7,0,3,0.1,3.8,0.4c1.2,0.3,2.2,1,3,1.9c0.8,0.9,1.5,2,1.9,3.3c0.4,1.3,0.7,2.9,0.7,4.8
					c0,1.7-0.2,3.1-0.6,4.3c-0.5,1.5-1.2,2.7-2.2,3.6c-0.7,0.7-1.7,1.2-2.9,1.6c-0.9,0.3-2.1,0.4-3.6,0.4h-7.7V910.7z M-478.3,914.1
					v13.4h3c1.1,0,2-0.1,2.5-0.2c0.7-0.2,1.2-0.4,1.6-0.8c0.4-0.4,0.8-1,1.1-1.9c0.3-0.9,0.4-2.1,0.4-3.7c0-1.6-0.1-2.8-0.4-3.6
					c-0.3-0.8-0.7-1.5-1.2-2c-0.5-0.5-1.1-0.8-1.9-0.9c-0.6-0.1-1.7-0.2-3.3-0.2H-478.3z"/>
				<path class="st1" d="M-454.1,926.2l3.9,0.6c-0.5,1.4-1.3,2.5-2.3,3.2c-1.1,0.7-2.4,1.1-4,1.1c-2.5,0-4.4-0.8-5.6-2.5
					c-1-1.3-1.4-3-1.4-5c0-2.4,0.6-4.3,1.9-5.7c1.3-1.4,2.9-2.1,4.8-2.1c2.2,0,3.9,0.7,5.1,2.2c1.3,1.4,1.9,3.6,1.8,6.6h-9.7
					c0,1.1,0.3,2,0.9,2.7c0.6,0.6,1.3,1,2.2,1c0.6,0,1.1-0.2,1.5-0.5C-454.6,927.4-454.3,926.9-454.1,926.2z M-453.9,922.3
					c0-1.1-0.3-2-0.9-2.6c-0.6-0.6-1.2-0.9-2-0.9c-0.8,0-1.5,0.3-2.1,0.9c-0.6,0.6-0.8,1.4-0.8,2.5H-453.9z"/>
				<path class="st1" d="M-448.8,926.7l3.9-0.6c0.2,0.8,0.5,1.3,1,1.7c0.5,0.4,1.2,0.6,2.1,0.6c1,0,1.8-0.2,2.3-0.6
					c0.3-0.3,0.5-0.6,0.5-1c0-0.3-0.1-0.5-0.3-0.7c-0.2-0.2-0.6-0.4-1.3-0.5c-3.1-0.7-5.1-1.3-5.9-1.9c-1.2-0.8-1.7-1.9-1.7-3.3
					c0-1.3,0.5-2.3,1.5-3.2c1-0.9,2.6-1.3,4.7-1.3c2,0,3.5,0.3,4.5,1c1,0.7,1.6,1.6,2,2.9l-3.6,0.7c-0.2-0.6-0.5-1-0.9-1.3
					c-0.4-0.3-1.1-0.5-1.9-0.5c-1,0-1.7,0.1-2.2,0.4c-0.3,0.2-0.4,0.5-0.4,0.8c0,0.3,0.1,0.5,0.4,0.7c0.3,0.3,1.6,0.6,3.6,1.1
					c2.1,0.5,3.5,1,4.3,1.7c0.8,0.7,1.2,1.6,1.2,2.9c0,1.3-0.6,2.5-1.7,3.5c-1.1,1-2.8,1.4-5,1.4c-2,0-3.6-0.4-4.7-1.2
					C-447.7,929.1-448.4,928-448.8,926.7z"/>
				<path class="st1" d="M-432.3,914.2v-3.6h3.9v3.6H-432.3z M-432.3,930.8v-14.6h3.9v14.6H-432.3z"/>
				<path class="st1" d="M-425.4,931.8l4.4,0.5c0.1,0.5,0.2,0.9,0.5,1.1c0.4,0.3,0.9,0.4,1.7,0.4c1,0,1.8-0.2,2.3-0.5
					c0.3-0.2,0.6-0.5,0.8-1c0.1-0.3,0.2-0.9,0.2-1.8v-2.1c-1.2,1.6-2.6,2.4-4.4,2.4c-2,0-3.5-0.8-4.7-2.5c-0.9-1.3-1.3-2.9-1.3-4.9
					c0-2.4,0.6-4.3,1.8-5.6c1.2-1.3,2.6-1.9,4.4-1.9c1.8,0,3.3,0.8,4.5,2.4v-2.1h3.6v13.1c0,1.7-0.1,3-0.4,3.9
					c-0.3,0.9-0.7,1.5-1.2,2c-0.5,0.5-1.2,0.9-2.1,1.1c-0.9,0.3-1.9,0.4-3.3,0.4c-2.5,0-4.2-0.4-5.3-1.3c-1-0.8-1.6-1.9-1.6-3.2
					C-425.4,932.1-425.4,932-425.4,931.8z M-422,923.2c0,1.6,0.3,2.7,0.9,3.4c0.6,0.7,1.3,1.1,2.2,1.1c0.9,0,1.7-0.4,2.4-1.1
					c0.7-0.7,1-1.8,1-3.3c0-1.5-0.3-2.6-0.9-3.4c-0.6-0.7-1.4-1.1-2.4-1.1c-0.9,0-1.7,0.4-2.3,1.1C-421.7,920.6-422,921.7-422,923.2
					z"/>
				<path class="st1" d="M-395.1,930.8h-3.9v-7.5c0-1.6-0.1-2.6-0.2-3.1c-0.2-0.5-0.4-0.8-0.8-1.1c-0.4-0.3-0.8-0.4-1.3-0.4
					c-0.7,0-1.3,0.2-1.8,0.6c-0.5,0.4-0.9,0.9-1.1,1.5c-0.2,0.6-0.3,1.7-0.3,3.4v6.6h-3.9v-14.6h3.6v2.1c1.3-1.7,2.9-2.5,4.8-2.5
					c0.9,0,1.6,0.2,2.3,0.5c0.7,0.3,1.2,0.7,1.6,1.2c0.4,0.5,0.6,1,0.8,1.6c0.1,0.6,0.2,1.5,0.2,2.6V930.8z"/>
				<path class="st1" d="M-383.3,926.2l3.9,0.6c-0.5,1.4-1.3,2.5-2.3,3.2c-1.1,0.7-2.4,1.1-4,1.1c-2.5,0-4.4-0.8-5.6-2.5
					c-1-1.3-1.4-3-1.4-5c0-2.4,0.6-4.3,1.9-5.7c1.3-1.4,2.9-2.1,4.8-2.1c2.2,0,3.9,0.7,5.1,2.2c1.3,1.4,1.9,3.6,1.8,6.6h-9.7
					c0,1.1,0.3,2,0.9,2.7c0.6,0.6,1.3,1,2.2,1c0.6,0,1.1-0.2,1.5-0.5C-383.8,927.4-383.5,926.9-383.3,926.2z M-383.1,922.3
					c0-1.1-0.3-2-0.9-2.6c-0.6-0.6-1.2-0.9-2-0.9c-0.8,0-1.5,0.3-2.1,0.9c-0.6,0.6-0.8,1.4-0.8,2.5H-383.1z"/>
				<path class="st1" d="M-363.2,930.8h-3.6v-2.1c-0.6,0.8-1.3,1.5-2.1,1.9c-0.8,0.4-1.6,0.6-2.5,0.6c-1.7,0-3.1-0.7-4.3-2
					c-1.2-1.4-1.8-3.2-1.8-5.7c0-2.5,0.6-4.4,1.7-5.7c1.2-1.3,2.6-1.9,4.4-1.9c1.6,0,3,0.7,4.2,2v-7.3h3.9V930.8z M-373.6,923.2
					c0,1.6,0.2,2.7,0.6,3.4c0.6,1,1.5,1.5,2.6,1.5c0.9,0,1.6-0.4,2.3-1.1c0.6-0.8,0.9-1.9,0.9-3.4c0-1.7-0.3-2.9-0.9-3.6
					c-0.6-0.7-1.4-1.1-2.3-1.1c-0.9,0-1.7,0.4-2.3,1.1C-373.3,920.7-373.6,921.8-373.6,923.2z"/>
				<path class="st1" d="M-352.9,930.8v-20.2h3.9v7.3c1.2-1.4,2.6-2,4.2-2c1.8,0,3.3,0.6,4.4,1.9c1.2,1.3,1.7,3.1,1.7,5.6
					c0,2.5-0.6,4.4-1.8,5.8c-1.2,1.3-2.6,2-4.3,2c-0.8,0-1.7-0.2-2.5-0.6c-0.8-0.4-1.5-1-2.1-1.9v2.1H-352.9z M-349.1,923.2
					c0,1.5,0.2,2.6,0.7,3.4c0.7,1,1.6,1.5,2.7,1.5c0.9,0,1.6-0.4,2.2-1.1c0.6-0.7,0.9-1.9,0.9-3.4c0-1.7-0.3-2.9-0.9-3.6
					c-0.6-0.7-1.4-1.1-2.3-1.1c-0.9,0-1.7,0.4-2.3,1.1C-348.7,920.6-349.1,921.7-349.1,923.2z"/>
				<path class="st1" d="M-337.9,916.2h4.1l3.5,10.4l3.4-10.4h4l-5.2,14.1l-0.9,2.5c-0.3,0.9-0.7,1.5-1,2c-0.3,0.4-0.7,0.8-1.1,1.1
					c-0.4,0.3-0.9,0.5-1.5,0.7c-0.6,0.2-1.2,0.2-2,0.2c-0.7,0-1.5-0.1-2.2-0.2l-0.3-3c0.6,0.1,1.2,0.2,1.6,0.2c0.9,0,1.6-0.3,2-0.8
					c0.4-0.5,0.8-1.2,1-2L-337.9,916.2z"/>
			</g>
		</g>
	</g>
</g>
</svg>
