<?xml version="1.0" encoding="utf-8"?>
<!-- Generator: Adobe Illustrator 19.2.1, SVG Export Plug-In . SVG Version: 6.00 Build 0)  -->
<svg version="1.1" xmlns="http://www.w3.org/2000/svg" xmlns:xlink="http://www.w3.org/1999/xlink" x="0px" y="0px"
	 viewBox="0 0 151.9 184" style="enable-background:new 0 0 151.9 184;" xml:space="preserve">
<style type="text/css">
	.st0{fill:#6CBE45;}
	.st1{fill:#726658;}
	.st2{fill:#9B8579;}
	.st3{fill:#FFFFFF;}
	.st4{fill:#ED1C24;}
	.st5{opacity:0.26;}
	.st6{fill:#3C2415;}
</style>
<g id="_x31_">
	<g>
		<path class="st0" d="M-450.3-330.4c0,0,37.8-61.9,88.4-29.7C-361.8-360.2-381.9-294.2-450.3-330.4z"/>
	</g>
	<g>
		<path class="st1" d="M-259.3-243.6c0,0,55.5,39.9,94.6,36.7l37.2-33.5c0,0-60.3-1.3-88.2-19S-259.3-243.6-259.3-243.6z"/>
	</g>
	<g>
		<rect x="-541.1" y="101.6" class="st2" width="209" height="21.4"/>
	</g>
	<g>
		<path class="st1" d="M174.9-120.8H-24.8c-4,0-7.3-3.3-7.3-7.3v-199.7c0-4,3.3-7.3,7.3-7.3h199.7c4,0,7.3,3.3,7.3,7.3v199.7
			C182.2-124.1,178.9-120.8,174.9-120.8z"/>
	</g>
	<g>
		<path class="st3" d="M162-133.7H-12c-4,0-7.3-3.3-7.3-7.3v-174c0-4,3.3-7.3,7.3-7.3h174c4,0,7.3,3.3,7.3,7.3v174
			C169.4-137,166.1-133.7,162-133.7z"/>
	</g>
	<g>
		<path class="st1" d="M384.5,142.3c0,0-69.7-24.9-68.6-106.4c1.1-81.5,85.2-60.6,87.4-4.8c2.1,55.7-73.4,117.4-73.4,117.4
			l-4.3-10.2c0,0,63.3-44.4,65.4-102.9c1.6-46.1-66.5-59-64.9,3.8c1.9,74.3,67,97.5,67,97.5L384.5,142.3z"/>
	</g>
	<g>
		<path class="st2" d="M353.7-328.5c-30.1,0-54.5,32.9-54.5,73.6c0,40.6,24.4,73.6,54.5,73.6c30.1,0,54.5-32.9,54.5-73.6
			C408.2-295.6,383.8-328.5,353.7-328.5z M353.7-197.9c-23.4,0-42.3-25.5-42.3-57.1c0-31.5,18.9-57.1,42.3-57.1S396-286.5,396-255
			C396-223.5,377-197.9,353.7-197.9z"/>
	</g>
	<g>
		<path class="st1" d="M-455.9-289.4c0.8-2.4,10.5-39.4-12.9-65.1l15.5-8c0,0,26.3,30.5,11,73.2H-455.9z"/>
	</g>
	<g>
		<path class="st4" d="M-445.4-299.1c-31.2,3.5-65.9-18.5-82,36.2c-14.1,48.1,46.6,133.5,82,98.1c0,0,30.5,30.5,60.3-18.5
			S-346.6-310.3-445.4-299.1z"/>
	</g>
	<g>
		<g>
			<path class="st4" d="M-158,112.9l-18.5,39.1L-199,88.4l-11.3,21.4h-52.3c18.1,42.1,78.8,75.6,78.8,75.6s54.4-25.8,74.1-72.6H-158
				z"/>
		</g>
		<g>
			<path class="st4" d="M-218.3,98.9l20.1-34.6l22.5,56.3l9.6-17.7h60c1.2-4.2,2.2-8.4,2.8-12.9c8-61.1-53.9-71.6-83.6-32.2
				c0,0-39.4-56.3-74,4.8c-6.9,12.2-8,24.4-5.2,36.2H-218.3z"/>
		</g>
	</g>
	<g>
		<circle class="st1" cx="353.7" cy="-209.6" r="66.7"/>
	</g>
	<g>
		<path class="st3" d="M312.7-236h10.8v21.3h0.2c1.1-1.9,2.2-3.6,3.3-5.3l10.9-16h13.3l-15.9,20.5l16.8,27.6h-12.7l-11.8-20.8
			l-4.1,5.1v15.7h-10.8V-236z"/>
		<path class="st3" d="M394.4-190.1c-3.4,1.1-9.7,2.7-16.1,2.7c-8.8,0-15.1-2.2-19.6-6.5c-4.4-4.1-6.9-10.4-6.8-17.5
			c0.1-16,11.7-25.1,27.5-25.1c6.2,0,11,1.2,13.4,2.4l-2.3,8.7c-2.6-1.1-5.9-2.1-11.2-2.1c-9.1,0-15.9,5.1-15.9,15.6
			c0,9.9,6.2,15.8,15.1,15.8c2.5,0,4.5-0.3,5.4-0.7v-10.1h-7.4v-8.5h17.9V-190.1z"/>
	</g>
	<g>
		<path class="st4" d="M329.8,128.1c0,0,9.6,12.3,12.3,16.6c2.7,4.3-12.9,7-12.3,8c0.5,1.1-37,41.3-52.5,28.9
			c-15.5-12.3,44.5-44.5,44.5-44.5S321.8,130.8,329.8,128.1z"/>
	</g>
	<g>
		<path class="st4" d="M391.9,128.1c0,0-9.6,12.3-12.3,16.6c-2.7,4.3,12.9,7,12.3,8c-0.5,1.1,37,41.3,52.5,28.9
			s-44.5-44.5-44.5-44.5S399.9,130.8,391.9,128.1z"/>
	</g>
	<g>
		<path class="st1" d="M322.6,36.2c0,0,5.7,39,37,39s36.2-39,36.2-39l3.9,19.5c0,0-7.8,35.2-35.2,35.2c-27.4,0-48.6-37-48.6-37
			L322.6,36.2z"/>
	</g>
	<g>
		<path class="st2" d="M144.8,184H7.1c-3.9,0-7.1-3.2-7.1-7.1V12.7c0-3.9,3.2-7.1,7.1-7.1h137.7c3.9,0,7.1,3.2,7.1,7.1v164.2
			C151.9,180.8,148.7,184,144.8,184z"/>
	</g>
	<g>
		<rect x="16.9" y="18.4" class="st3" width="118.2" height="152.8"/>
	</g>
	<g>
		<rect x="24.9" y="54.1" class="st1" width="80.4" height="5.4"/>
	</g>
	<g>
		<rect x="24.9" y="86.3" class="st1" width="80.4" height="5.4"/>
	</g>
	<g>
		<rect x="24.9" y="118.4" class="st1" width="80.4" height="5.4"/>
	</g>
	<g>
		<rect x="24.9" y="150.6" class="st1" width="80.4" height="5.4"/>
	</g>
	<g>
		<path class="st1" d="M110.9,48v17.7h17.7V48H110.9z M125.7,62.7h-11.8V50.9h11.8V62.7z"/>
	</g>
	<g>
		<path class="st1" d="M110.9,80.1v17.7h17.7V80.1H110.9z M125.7,94.9h-11.8V83.1h11.8V94.9z"/>
	</g>
	<g>
		<path class="st1" d="M110.9,112.3V130h17.7v-17.7H110.9z M125.7,127h-11.8v-11.8h11.8V127z"/>
	</g>
	<g>
		<path class="st1" d="M110.9,144.4v17.7h17.7v-17.7H110.9z M125.7,159.2h-11.8v-11.8h11.8V159.2z"/>
	</g>
	<g>
		<polygon class="st4" points="114.5,53.3 120.1,61.5 131.8,47.4 120.7,57 		"/>
	</g>
	<g>
		<polygon class="st4" points="114.5,86 120.1,94.3 131.8,80.1 120.7,89.8 		"/>
	</g>
	<g>
		<path class="st1" d="M111.3,25.7H40.6c-1.8,0-3.2-1.4-3.2-3.2V3.2c0-1.8,1.4-3.2,3.2-3.2h70.7c1.8,0,3.2,1.4,3.2,3.2v19.4
			C114.5,24.3,113.1,25.7,111.3,25.7z"/>
	</g>
	<g>
		<path class="st4" d="M75-304.6c-34,0-61.6,27.6-61.6,61.6h47.2c0-8,6.5-14.5,14.5-14.5c8,0,14.5,6.5,14.5,14.5h47.2
			C136.7-277,109.1-304.6,75-304.6z"/>
	</g>
	<g>
		<polygon class="st3" points="91.9,-252.6 119.7,-275.9 87.9,-257.5 		"/>
	</g>
	<g>
		<path class="st1" d="M78.1-126.4H72c-0.8,0-1.4-0.6-1.4-1.4v-80.1c0-0.8,0.6-1.4,1.4-1.4h6.1c0.8,0,1.4,0.6,1.4,1.4v80.1
			C79.5-127,78.8-126.4,78.1-126.4z"/>
	</g>
	<g>
		<path class="st1" d="M-479.9,155.7h-25.5c-3.2,0-5.8-2.6-5.8-5.8V74.6c0-3.2,2.6-5.8,5.8-5.8h25.5c3.2,0,5.8,2.6,5.8,5.8v75.3
			C-474.1,153.1-476.7,155.7-479.9,155.7z"/>
	</g>
	<g>
		<path class="st1" d="M-518.8,136.4h-12c-1.5,0-2.7-1.2-2.7-2.7V90.9c0-1.5,1.2-2.7,2.7-2.7h12c1.5,0,2.7,1.2,2.7,2.7v42.8
			C-516.1,135.2-517.3,136.4-518.8,136.4z"/>
	</g>
	<g>
		<path class="st1" d="M-393.2,155.7h25.5c3.2,0,5.8-2.6,5.8-5.8V74.6c0-3.2-2.6-5.8-5.8-5.8h-25.5c-3.2,0-5.7,2.6-5.7,5.8v75.3
			C-399,153.1-396.4,155.7-393.2,155.7z"/>
	</g>
	<g>
		<path class="st1" d="M-354.3,136.4h12c1.5,0,2.7-1.2,2.7-2.7V90.9c0-1.5-1.2-2.7-2.7-2.7h-12c-1.5,0-2.7,1.2-2.7,2.7v42.8
			C-357,135.2-355.8,136.4-354.3,136.4z"/>
	</g>
	<g>
		<path class="st2" d="M-127.5-336.8l25.7,26.5c0,0-59.5,58.7-157.6,66.7v-37.8C-259.3-281.4-198.2-279-127.5-336.8z"/>
	</g>
	<g>
		<path class="st3" d="M-245.3-249.2c-0.9,0-1.6-0.7-1.6-1.5l-0.4-9.2c0-0.9,0.7-1.6,1.5-1.7c0.9,0,1.6,0.7,1.7,1.5l0.4,9.2
			C-243.6-250-244.3-249.3-245.3-249.2C-245.2-249.2-245.2-249.2-245.3-249.2z"/>
	</g>
	<g>
		<path class="st3" d="M-221.1-255.2c-0.7,0-1.4-0.5-1.5-1.2l-2.4-8.8c-0.2-0.9,0.3-1.7,1.1-2c0.8-0.2,1.7,0.3,2,1.1l2.4,8.8
			c0.2,0.9-0.3,1.7-1.1,2C-220.9-255.3-221-255.2-221.1-255.2z"/>
	</g>
	<g>
		<path class="st3" d="M-194.6-264.5c-0.6,0-1.2-0.3-1.5-0.9l-4-8.4c-0.4-0.8,0-1.8,0.8-2.1c0.8-0.4,1.8,0,2.1,0.8l4,8.4
			c0.4,0.8,0,1.8-0.8,2.1C-194.1-264.5-194.4-264.5-194.6-264.5z"/>
	</g>
	<g>
		<path class="st3" d="M-171.3-273.3c-0.6,0-1.1-0.3-1.4-0.8l-4.4-8c-0.4-0.8-0.1-1.8,0.6-2.2c0.8-0.4,1.8-0.1,2.2,0.6l4.4,8
			c0.4,0.8,0.1,1.8-0.6,2.2C-170.8-273.4-171-273.3-171.3-273.3z"/>
	</g>
	<g>
		<path class="st3" d="M-150.8-284.2c-0.5,0-1-0.2-1.3-0.6l-5.2-6.8c-0.5-0.7-0.4-1.7,0.3-2.3c0.7-0.5,1.7-0.4,2.3,0.3l5.2,6.8
			c0.5,0.7,0.4,1.7-0.3,2.3C-150.1-284.3-150.5-284.2-150.8-284.2z"/>
	</g>
	<g>
		<path class="st3" d="M-130.7-296.2c-0.4,0-0.8-0.1-1.1-0.4l-6.4-6c-0.6-0.6-0.7-1.6-0.1-2.3c0.6-0.7,1.6-0.7,2.3-0.1l6.4,6
			c0.6,0.6,0.7,1.6,0.1,2.3C-129.8-296.4-130.3-296.2-130.7-296.2z"/>
	</g>
	<g>
		<path class="st3" d="M-113.4-307.5c-0.4,0-0.8-0.1-1.1-0.4l-9.2-8c-0.7-0.6-0.7-1.6-0.2-2.3c0.6-0.7,1.6-0.7,2.3-0.2l9.2,8
			c0.7,0.6,0.7,1.6,0.2,2.3C-112.5-307.7-113-307.5-113.4-307.5z"/>
	</g>
	<g>
		<path class="st2" d="M-127.5-240.4l25.7,26.5c0,0-59.5,58.7-157.6,66.7v-37.8C-259.3-184.9-198.2-182.5-127.5-240.4z"/>
	</g>
	<g>
		<path class="st3" d="M-245.3-152.7c-0.9,0-1.6-0.7-1.6-1.5l-0.4-9.2c0-0.9,0.7-1.6,1.5-1.7c0.9,0,1.6,0.6,1.7,1.5l0.4,9.2
			C-243.6-153.5-244.3-152.8-245.3-152.7C-245.2-152.7-245.2-152.7-245.3-152.7z"/>
	</g>
	<g>
		<path class="st3" d="M-221.1-158.8c-0.7,0-1.4-0.5-1.5-1.2l-2.4-8.8c-0.2-0.9,0.3-1.7,1.1-2c0.8-0.2,1.7,0.3,2,1.1l2.4,8.8
			c0.2,0.9-0.3,1.7-1.1,2C-220.9-158.8-221-158.8-221.1-158.8z"/>
	</g>
	<g>
		<path class="st3" d="M-194.6-168c-0.6,0-1.2-0.3-1.5-0.9l-4-8.4c-0.4-0.8,0-1.8,0.8-2.1c0.8-0.4,1.8,0,2.1,0.8l4,8.4
			c0.4,0.8,0,1.8-0.8,2.1C-194.1-168.1-194.4-168-194.6-168z"/>
	</g>
	<g>
		<path class="st3" d="M-171.3-176.9c-0.6,0-1.1-0.3-1.4-0.8l-4.4-8c-0.4-0.8-0.1-1.8,0.6-2.2c0.8-0.4,1.8-0.1,2.2,0.6l4.4,8
			c0.4,0.8,0.1,1.8-0.6,2.2C-170.8-176.9-171-176.9-171.3-176.9z"/>
	</g>
	<g>
		<path class="st3" d="M-150.8-187.7c-0.5,0-1-0.2-1.3-0.6l-5.2-6.8c-0.5-0.7-0.4-1.7,0.3-2.3c0.7-0.5,1.7-0.4,2.3,0.3l5.2,6.8
			c0.5,0.7,0.4,1.7-0.3,2.3C-150.1-187.8-150.5-187.7-150.8-187.7z"/>
	</g>
	<g>
		<path class="st3" d="M-130.7-199.8c-0.4,0-0.8-0.1-1.1-0.4l-6.4-6c-0.6-0.6-0.7-1.6-0.1-2.3c0.6-0.6,1.6-0.7,2.3-0.1l6.4,6
			c0.6,0.6,0.7,1.6,0.1,2.3C-129.8-199.9-130.3-199.8-130.7-199.8z"/>
	</g>
	<g>
		<path class="st3" d="M-113.4-211c-0.4,0-0.8-0.1-1.1-0.4l-9.2-8c-0.7-0.6-0.7-1.6-0.2-2.3c0.6-0.7,1.6-0.7,2.3-0.2l9.2,8
			c0.7,0.6,0.7,1.6,0.2,2.3C-112.5-211.2-113-211-113.4-211z"/>
	</g>
</g>
<g id="Designed_by_Vecteezy">
	<g class="st5">
		<g>
			<g>
				<path class="st6" d="M-39.6,270.9c0.5,0,1,0.5,1,0.5l-8.9,19c-1,0-3.3,0.1-3.9,0.1c-0.5,0-1-0.5-1-0.5l-3-19
					c1.8,0,4.2-0.1,4.8-0.1c0.5,0,1,0.5,1,0.5l0.9,9.3c0.1,0.8,0.1,1.9,0.1,3.1c0.3-1.3,0.6-2.5,1-3.3l3.7-9.4
					C-42.2,271-40.2,270.9-39.6,270.9L-39.6,270.9z"/>
			</g>
			<g>
				<path class="st6" d="M-30.4,280.3c0,2.1-1.2,3.4-4,4l-3,0.6c0.2,1.3,1.1,1.9,2.4,1.9c1.7,0,2.8-1.3,2.8-1.3s0.8,0.5,0.8,1.4
					c0,1.7-2.6,3.6-5.7,3.6c-3.1,0-5.2-2-5.2-5.3c0-3.8,2.7-9.1,7.6-9.1C-32.1,276.3-30.4,277.9-30.4,280.3L-30.4,280.3z
					 M-35.5,282.3c0.6-0.2,0.8-0.7,0.8-1.3c0-0.6-0.2-1.4-0.9-1.4c-1.2,0-1.7,1.9-1.9,3.4L-35.5,282.3z"/>
			</g>
			<g>
				<path class="st6" d="M-22.3,276.3c2.4,0,4.3,1.3,4.3,3c0,2.1-2.6,2.9-2.6,2.9s-0.7-2.3-2.5-2.3c-1.2,0-1.8,1.2-1.8,3.7
					c0,2.3,0.6,3.3,2.1,3.3c1.5,0,2.5-1,2.5-1s0.9,0.5,0.9,1.4c0,1.7-2.5,3.4-5.5,3.4c-3.2,0-5.1-2-5.1-5.3
					C-30,281.5-27.2,276.3-22.3,276.3L-22.3,276.3z"/>
			</g>
			<g>
				<path class="st6" d="M-10.5,273.2c0.6,0,1,0.5,1,0.5l-0.5,2.9h3.1l-0.7,2.2c-0.2,0.7-0.6,1.1-1.3,1.1h-1.6l-0.9,5.7
					c-0.1,0.9,0.1,1.3,0.7,1.3c0.6,0,1.1-0.3,1.1-0.3s0.9,0.5,0.9,1.4c0,1.4-2,2.8-4.5,2.8c-2.6,0-3.7-1.6-3.3-4.5l1-6.3h-1.7
					l0.7-2.3c0.2-0.6,0.7-1,1.3-1h0.8l1-2.7C-12.2,273.6-11,273.2-10.5,273.2L-10.5,273.2z"/>
			</g>
			<g>
				<path class="st6" d="M4.4,280.3c0,2.1-1.2,3.4-4,4l-3,0.6c0.2,1.3,1.1,1.9,2.4,1.9c1.7,0,2.8-1.3,2.8-1.3s0.9,0.5,0.9,1.4
					c0,1.7-2.6,3.6-5.7,3.6c-3.1,0-5.2-2-5.2-5.3c0-3.8,2.7-9.1,7.6-9.1C2.8,276.3,4.4,277.9,4.4,280.3L4.4,280.3z M-0.7,282.3
					c0.6-0.2,0.8-0.7,0.8-1.3c0-0.6-0.2-1.4-0.9-1.4c-1.2,0-1.7,1.9-1.9,3.4L-0.7,282.3z"/>
			</g>
			<g>
				<path class="st6" d="M16.8,280.3c0,2.1-1.2,3.4-4,4l-3,0.6c0.2,1.3,1.1,1.9,2.4,1.9c1.7,0,2.8-1.3,2.8-1.3s0.9,0.5,0.9,1.4
					c0,1.7-2.6,3.6-5.7,3.6c-3.1,0-5.2-2-5.2-5.3c0-3.8,2.7-9.1,7.6-9.1C15.1,276.3,16.8,277.9,16.8,280.3L16.8,280.3z M11.7,282.3
					c0.6-0.2,0.8-0.7,0.8-1.3c0-0.6-0.2-1.4-0.9-1.4c-1.2,0-1.7,1.9-1.9,3.4L11.7,282.3z"/>
			</g>
			<g>
				<path class="st6" d="M26.9,285.4c0,0,1,1,1,2.5c0,2.1-1.8,2.7-3.3,2.7c-2,0-3.4-0.9-4.9-1.4c-0.4,0.5-0.8,1-1.2,1.4
					c0,0-2.2-0.1-2.2-1.6c0-1.8,3.1-5,6.4-8.5c-0.4-0.1-0.7-0.1-1.1-0.1c-1.9,0-2.6,0.9-2.6,0.9s-1-1.1-0.9-2.5c0.1-2,2-2.5,3.5-2.5
					c1.6,0,2.7,0.6,3.9,1.1l0.9-1.1c0,0,2.2,0.1,2.2,1.6c0,1.8-3,4.9-6.2,8.3c0.7,0.2,1.3,0.3,1.9,0.3
					C26.1,286.5,26.9,285.4,26.9,285.4L26.9,285.4z"/>
			</g>
			<g>
				<path class="st6" d="M41.2,289.4c-0.8,4.8-4.1,7.3-8.3,7.3c-2.7,0-4.7-1.4-4.7-3c0-1.1,0.9-1.6,0.9-1.6s0.9,0.8,2.7,0.8
					c1.7,0,4-0.7,4.4-3.3l0.3-2c-1.1,1.6-2.6,3-4.5,3c-2.1,0-3.1-1.7-2.5-5.3l0.6-3.8c0.4-2.3,0.5-4.3,0.5-4.3c1.5-0.3,3.5-1,4.2-1
					c0.5,0,1,0.5,1,0.5l-0.8,4.8l-0.7,4.4c-0.1,0.4,0,0.6,0.4,0.6c1.8,0,2.8-5.1,2.8-5.1c0.4-2.3,0.5-4.3,0.5-4.3
					c1.5-0.3,3.5-1,4.2-1c0.5,0,1,0.5,1,0.5l-0.8,4.8L41.2,289.4z"/>
			</g>
		</g>
		<g>
			<path class="st6" d="M-163.6,277.1h4.8c1.1,0,1.9,0.1,2.5,0.2c0.8,0.2,1.4,0.6,1.9,1.2c0.5,0.6,0.9,1.3,1.2,2.1
				c0.3,0.8,0.4,1.8,0.4,3c0,1.1-0.1,2-0.4,2.7c-0.3,0.9-0.8,1.7-1.4,2.3c-0.5,0.4-1.1,0.8-1.8,1c-0.6,0.2-1.3,0.3-2.3,0.3h-4.9
				V277.1z M-161,279.2v8.5h1.9c0.7,0,1.3,0,1.6-0.1c0.4-0.1,0.8-0.3,1.1-0.5c0.3-0.3,0.5-0.7,0.7-1.2c0.2-0.6,0.3-1.4,0.3-2.4
				s-0.1-1.8-0.3-2.3c-0.2-0.5-0.4-0.9-0.7-1.2s-0.7-0.5-1.2-0.6c-0.4-0.1-1.1-0.1-2.1-0.1H-161z"/>
			<path class="st6" d="M-145.5,287l2.5,0.4c-0.3,0.9-0.8,1.6-1.5,2.1c-0.7,0.5-1.5,0.7-2.6,0.7c-1.6,0-2.8-0.5-3.6-1.6
				c-0.6-0.8-0.9-1.9-0.9-3.2c0-1.5,0.4-2.8,1.2-3.6c0.8-0.9,1.8-1.3,3.1-1.3c1.4,0,2.5,0.5,3.3,1.4c0.8,0.9,1.2,2.3,1.2,4.2h-6.2
				c0,0.7,0.2,1.3,0.6,1.7c0.4,0.4,0.9,0.6,1.4,0.6c0.4,0,0.7-0.1,1-0.3C-145.9,287.8-145.7,287.4-145.5,287z M-145.4,284.5
				c0-0.7-0.2-1.3-0.6-1.6c-0.4-0.4-0.8-0.6-1.3-0.6c-0.5,0-1,0.2-1.3,0.6c-0.4,0.4-0.5,0.9-0.5,1.6H-145.4z"/>
			<path class="st6" d="M-142.2,287.3l2.5-0.4c0.1,0.5,0.3,0.8,0.6,1.1c0.3,0.2,0.8,0.4,1.4,0.4c0.6,0,1.1-0.1,1.4-0.4
				c0.2-0.2,0.3-0.4,0.3-0.7c0-0.2-0.1-0.3-0.2-0.5c-0.1-0.1-0.4-0.2-0.8-0.3c-2-0.4-3.3-0.8-3.8-1.2c-0.7-0.5-1.1-1.2-1.1-2.1
				c0-0.8,0.3-1.5,1-2c0.6-0.6,1.6-0.8,3-0.8c1.3,0,2.2,0.2,2.8,0.6c0.6,0.4,1,1,1.3,1.8l-2.3,0.4c-0.1-0.4-0.3-0.6-0.6-0.8
				c-0.3-0.2-0.7-0.3-1.2-0.3c-0.7,0-1.1,0.1-1.4,0.3c-0.2,0.1-0.3,0.3-0.3,0.5c0,0.2,0.1,0.3,0.2,0.4c0.2,0.2,1,0.4,2.3,0.7
				c1.3,0.3,2.2,0.7,2.8,1.1c0.5,0.4,0.8,1.1,0.8,1.8c0,0.9-0.4,1.6-1.1,2.2c-0.7,0.6-1.8,0.9-3.2,0.9c-1.3,0-2.3-0.3-3-0.8
				C-141.4,288.9-141.9,288.2-142.2,287.3z"/>
			<path class="st6" d="M-131.6,279.3v-2.3h2.5v2.3H-131.6z M-131.6,289.9v-9.3h2.5v9.3H-131.6z"/>
			<path class="st6" d="M-127.2,290.6l2.8,0.3c0,0.3,0.2,0.6,0.3,0.7c0.2,0.2,0.6,0.3,1.1,0.3c0.6,0,1.1-0.1,1.5-0.3
				c0.2-0.1,0.4-0.3,0.5-0.6c0.1-0.2,0.1-0.6,0.1-1.1v-1.4c-0.7,1-1.7,1.5-2.8,1.5c-1.3,0-2.2-0.5-3-1.6c-0.6-0.8-0.9-1.9-0.9-3.1
				c0-1.6,0.4-2.8,1.1-3.6c0.8-0.8,1.7-1.2,2.8-1.2c1.2,0,2.1,0.5,2.9,1.5v-1.3h2.3v8.4c0,1.1-0.1,1.9-0.3,2.5
				c-0.2,0.5-0.4,1-0.8,1.3c-0.3,0.3-0.8,0.6-1.3,0.7c-0.5,0.2-1.2,0.3-2.1,0.3c-1.6,0-2.7-0.3-3.4-0.8s-1-1.2-1-2.1
				C-127.2,290.8-127.2,290.7-127.2,290.6z M-125,285.1c0,1,0.2,1.7,0.6,2.2c0.4,0.5,0.9,0.7,1.4,0.7c0.6,0,1.1-0.2,1.5-0.7
				c0.4-0.5,0.6-1.2,0.6-2.1c0-1-0.2-1.7-0.6-2.2c-0.4-0.5-0.9-0.7-1.5-0.7c-0.6,0-1.1,0.2-1.5,0.7
				C-124.8,283.4-125,284.1-125,285.1z"/>
			<path class="st6" d="M-107.9,289.9h-2.5v-4.8c0-1-0.1-1.7-0.2-2c-0.1-0.3-0.3-0.5-0.5-0.7c-0.2-0.2-0.5-0.2-0.9-0.2
				c-0.4,0-0.8,0.1-1.2,0.4c-0.3,0.2-0.6,0.5-0.7,0.9c-0.1,0.4-0.2,1.1-0.2,2.1v4.2h-2.5v-9.3h2.3v1.4c0.8-1.1,1.8-1.6,3.1-1.6
				c0.5,0,1,0.1,1.5,0.3c0.5,0.2,0.8,0.4,1,0.8c0.2,0.3,0.4,0.7,0.5,1c0.1,0.4,0.1,0.9,0.1,1.7V289.9z"/>
			<path class="st6" d="M-100.3,287l2.5,0.4c-0.3,0.9-0.8,1.6-1.5,2.1c-0.7,0.5-1.5,0.7-2.6,0.7c-1.6,0-2.8-0.5-3.6-1.6
				c-0.6-0.8-0.9-1.9-0.9-3.2c0-1.5,0.4-2.8,1.2-3.6c0.8-0.9,1.8-1.3,3.1-1.3c1.4,0,2.5,0.5,3.3,1.4c0.8,0.9,1.2,2.3,1.2,4.2h-6.2
				c0,0.7,0.2,1.3,0.6,1.7c0.4,0.4,0.9,0.6,1.4,0.6c0.4,0,0.7-0.1,1-0.3C-100.6,287.8-100.4,287.4-100.3,287z M-100.2,284.5
				c0-0.7-0.2-1.3-0.6-1.6c-0.4-0.4-0.8-0.6-1.3-0.6c-0.5,0-1,0.2-1.3,0.6c-0.4,0.4-0.5,0.9-0.5,1.6H-100.2z"/>
			<path class="st6" d="M-87.5,289.9h-2.3v-1.4c-0.4,0.5-0.8,0.9-1.3,1.2c-0.5,0.3-1,0.4-1.6,0.4c-1.1,0-2-0.4-2.8-1.3
				c-0.8-0.9-1.1-2.1-1.1-3.6c0-1.6,0.4-2.8,1.1-3.6c0.7-0.8,1.7-1.2,2.8-1.2c1,0,1.9,0.4,2.7,1.3v-4.6h2.5V289.9z M-94.1,285.1
				c0,1,0.1,1.7,0.4,2.2c0.4,0.6,1,1,1.7,1c0.6,0,1.1-0.2,1.5-0.7c0.4-0.5,0.6-1.2,0.6-2.2c0-1.1-0.2-1.8-0.6-2.3
				c-0.4-0.5-0.9-0.7-1.5-0.7c-0.6,0-1.1,0.2-1.5,0.7C-93.9,283.5-94.1,284.2-94.1,285.1z"/>
			<path class="st6" d="M-80.9,289.9v-12.9h2.5v4.6c0.8-0.9,1.7-1.3,2.7-1.3c1.1,0,2.1,0.4,2.8,1.2c0.7,0.8,1.1,2,1.1,3.5
				c0,1.6-0.4,2.8-1.1,3.7c-0.8,0.9-1.7,1.3-2.8,1.3c-0.5,0-1.1-0.1-1.6-0.4c-0.5-0.3-1-0.7-1.3-1.2v1.4H-80.9z M-78.4,285.1
				c0,1,0.2,1.7,0.5,2.1c0.4,0.7,1,1,1.7,1c0.5,0,1-0.2,1.4-0.7c0.4-0.5,0.6-1.2,0.6-2.2c0-1.1-0.2-1.8-0.6-2.3
				c-0.4-0.5-0.9-0.7-1.5-0.7c-0.6,0-1.1,0.2-1.5,0.7C-78.2,283.4-78.4,284.1-78.4,285.1z"/>
			<path class="st6" d="M-71.3,280.6h2.6l2.2,6.6l2.2-6.6h2.6l-3.3,9l-0.6,1.6c-0.2,0.5-0.4,1-0.6,1.2c-0.2,0.3-0.4,0.5-0.7,0.7
				c-0.3,0.2-0.6,0.3-0.9,0.4c-0.4,0.1-0.8,0.1-1.3,0.1c-0.5,0-0.9,0-1.4-0.1l-0.2-1.9c0.4,0.1,0.7,0.1,1,0.1c0.6,0,1-0.2,1.3-0.5
				c0.3-0.3,0.5-0.8,0.6-1.3L-71.3,280.6z"/>
		</g>
	</g>
</g>
</svg>
