<?xml version="1.0" encoding="iso-8859-1"?>
<!-- Generator: Adobe Illustrator 19.0.0, SVG Export Plug-In . SVG Version: 6.00 Build 0)  -->
<svg version="1.1" id="Capa_1" xmlns="http://www.w3.org/2000/svg" xmlns:xlink="http://www.w3.org/1999/xlink" x="0px" y="0px"
	 viewBox="0 0 58 58" style="enable-background:new 0 0 58 58;" xml:space="preserve">
<path style="fill:#546A79;" d="M29,0C12.984,0,0,12.984,0,29c0,16.016,12.984,29,29,29s29-12.984,29-29C58,12.984,45.016,0,29,0z
	 M29,33c-2.209,0-4-1.791-4-4c0-2.209,1.791-4,4-4s4,1.791,4,4C33,31.209,31.209,33,29,33z"/>
<path style="fill:#38454F;" d="M29,5C15.745,5,5,15.745,5,29s10.745,24,24,24s24-10.745,24-24S42.255,5,29,5z M29,33
	c-2.209,0-4-1.791-4-4c0-2.209,1.791-4,4-4s4,1.791,4,4C33,31.209,31.209,33,29,33z"/>
<path style="fill:#8697CB;" d="M13,33H9v-2h4c0.551,0,1-0.448,1-1s-0.449-1-1-1H9v-6h7v2h-5v2h2c1.654,0,3,1.346,3,3
	S14.654,33,13,33z"/>
<path style="fill:#8697CB;" d="M46,33h-4v-2h4c0.551,0,1-0.448,1-1s-0.449-1-1-1h-4v-6h7v2h-5v2h2c1.654,0,3,1.346,3,3
	S47.654,33,46,33z"/>
<path style="fill:#546A79;" d="M29,20c-4.971,0-9,4.029-9,9c0,4.97,4.029,9,9,9s9-4.03,9-9C38,24.029,33.971,20,29,20z M29,33
	c-2.209,0-4-1.791-4-4c0-2.209,1.791-4,4-4s4,1.791,4,4C33,31.209,31.209,33,29,33z"/>
<g>
</g>
<g>
</g>
<g>
</g>
<g>
</g>
<g>
</g>
<g>
</g>
<g>
</g>
<g>
</g>
<g>
</g>
<g>
</g>
<g>
</g>
<g>
</g>
<g>
</g>
<g>
</g>
<g>
</g>
</svg>
